<svg version="1.1" id="Layer_1" xmlns="http://www.w3.org/2000/svg" xmlns:xlink="http://www.w3.org/1999/xlink" x="0px" y="0px"
	 width="100%" viewBox="0 0 208 192" enable-background="new 0 0 208 192" xml:space="preserve">
<path fill="#000000" opacity="1.000000" stroke="none" 
	d="
M84.468658,193.000000 
	C79.001961,190.784225 73.867760,188.829910 69.028305,186.309647 
	C40.635845,171.523438 23.041721,148.516693 17.617432,116.851089 
	C12.284364,85.718025 20.980980,58.408550 42.431435,35.502197 
	C57.097668,19.840527 75.469994,10.783874 96.863091,7.506112 
	C137.452606,1.287158 175.601044,23.102560 193.634811,54.521545 
	C213.298416,88.780098 208.617783,134.574600 182.222961,163.838165 
	C170.058563,177.324646 155.384735,186.473419 138.253418,192.758453 
	C120.312439,193.000000 102.624878,193.000000 84.468658,193.000000 
M88.114105,184.312042 
	C100.144028,187.616287 112.426575,188.511139 124.639473,186.337906 
	C177.773804,176.882889 209.034424,125.168510 192.806076,73.990128 
	C175.492279,19.388601 106.860710,-3.197809 60.894455,31.151875 
	C32.667606,52.245247 20.168436,81.001686 26.419353,116.027855 
	C32.616905,150.755005 53.821201,173.207230 88.114105,184.312042 
z"/>
<path fill="#000000" opacity="1.000000" stroke="none" 
	d="
M84.115410,74.333130 
	C86.790718,69.057571 85.401344,63.692867 85.548828,58.467274 
	C85.810860,49.182941 87.094589,47.693253 96.232574,47.689495 
	C106.555298,47.685249 116.878273,47.646969 127.200653,47.707237 
	C134.461288,47.749626 136.340057,49.678791 136.392120,56.901138 
	C136.424530,61.396297 136.526505,65.896225 136.365845,70.385727 
	C136.250977,73.595871 137.474197,74.908821 140.727356,74.809334 
	C145.717316,74.656738 150.717789,74.692909 155.710068,74.809052 
	C162.218689,74.960487 164.371628,77.138336 164.401764,83.621170 
	C164.455948,95.275551 164.451157,106.930580 164.391968,118.584946 
	C164.362625,124.365189 162.686371,126.343231 156.743088,126.776077 
	C151.441589,127.162186 146.095306,127.021721 140.770401,126.964455 
	C137.656448,126.930977 136.205948,128.086823 136.304016,131.374573 
	C136.457825,136.531052 136.413391,141.697861 136.296280,146.856735 
	C136.181381,151.918869 133.964157,154.254852 128.970352,154.298538 
	C116.983620,154.403381 104.994743,154.405807 93.008026,154.300705 
	C88.014099,154.256927 85.820465,151.936829 85.698837,146.842331 
	C85.575684,141.683746 85.544159,136.517120 85.688744,131.360077 
	C85.779350,128.128082 84.480377,126.852921 81.273232,126.942741 
	C76.282288,127.082504 71.279984,127.126022 66.291153,126.956169 
	C59.682163,126.731140 57.638142,124.596046 57.619965,118.169403 
	C57.587006,106.514862 57.575539,94.859879 57.644333,83.205605 
	C57.678215,77.465591 60.024410,75.029884 65.769150,74.821518 
	C71.752647,74.604477 77.744255,74.611038 84.115410,74.333130 
M134.941742,83.321404 
	C129.767944,83.069023 128.202484,79.594604 128.012634,75.211647 
	C127.803673,70.387497 127.834686,65.549171 127.892509,60.718594 
	C127.930634,57.533161 126.521049,56.260300 123.350800,56.298820 
	C115.020744,56.400043 106.687042,56.425915 98.358101,56.285351 
	C94.968422,56.228142 94.026955,57.825817 94.095116,60.862408 
	C94.196037,65.358757 94.220474,69.863464 94.066132,74.357346 
	C93.836365,81.047363 91.471832,83.303146 84.885590,83.359253 
	C80.220360,83.398994 75.549812,83.498985 70.890610,83.327827 
	C67.571823,83.205917 66.000381,84.239204 66.071312,87.841202 
	C66.238617,96.335915 66.229156,104.837738 66.085274,113.333199 
	C66.025627,116.855072 67.552094,118.055847 70.874519,117.992088 
	C75.703705,117.899399 80.546768,117.862274 85.366783,118.120857 
	C92.059395,118.479919 94.163101,120.825127 94.240791,127.535202 
	C94.294800,132.200180 94.349358,136.868256 94.236931,141.530930 
	C94.166786,144.440170 95.211479,145.818207 98.277779,145.781982 
	C106.774521,145.681595 115.273254,145.701721 123.770836,145.745010 
	C126.510681,145.758972 127.710625,144.525208 127.690231,141.817535 
	C127.653839,136.985855 127.659546,132.152649 127.739426,127.321594 
	C127.845398,120.912193 129.984772,118.488007 136.336914,118.125648 
	C141.320847,117.841354 146.331802,117.928864 151.328369,118.005539 
	C154.422272,118.053017 155.924408,116.917458 155.888412,113.639328 
	C155.793243,104.976006 155.802017,96.310127 155.902130,87.646797 
	C155.939926,84.376472 154.501541,83.256210 151.350327,83.343613 
	C146.189301,83.486763 141.020721,83.357864 134.941742,83.321404 
z"/>
</svg>