<svg version="1.1" id="Layer_1" xmlns="http://www.w3.org/2000/svg" xmlns:xlink="http://www.w3.org/1999/xlink" x="0px" y="0px"
	 width="100%" viewBox="0 0 1024 944" enable-background="new 0 0 1024 944" xml:space="preserve">
<path fill="#000000" opacity="1.000000" stroke="none" 
	d="
M106.468658,945.000000 
	C109.453842,936.774658 115.380608,930.120361 120.320572,922.870422 
	C165.167770,857.052368 210.179626,791.346497 255.157501,725.617493 
	C309.543365,646.139954 363.942963,566.671814 418.336090,487.199249 
	C418.712555,486.649231 419.001953,486.013519 419.466705,485.554077 
	C423.588287,481.479889 422.019226,478.335541 418.366760,474.776123 
	C405.119568,461.866333 392.100159,448.722748 378.996735,435.665466 
	C338.388885,395.200745 297.812622,354.704224 257.167542,314.276917 
	C192.065552,249.523636 126.916260,184.817917 61.791256,120.087776 
	C46.073936,104.465752 30.303450,88.896248 14.694262,73.166786 
	C6.688105,65.098946 4.395514,55.297649 8.205455,44.642658 
	C12.221160,33.412220 21.064272,27.448654 32.619255,27.105019 
	C43.213863,26.789944 53.858585,28.245388 64.484238,28.869465 
	C82.266418,29.913866 100.053665,30.873487 117.833931,31.948896 
	C142.591949,33.446346 167.343277,35.054588 192.101715,36.544945 
	C210.045044,37.625050 227.990402,38.691368 245.944702,39.560104 
	C253.578384,39.929462 259.642487,43.183941 264.900513,48.426983 
	C324.847961,108.203384 384.782257,167.992981 444.761261,227.737717 
	C474.277802,257.138977 503.875153,286.459167 533.447937,315.803894 
	C538.383484,320.701416 538.407471,320.628479 542.630066,314.945312 
	C582.579285,261.178711 622.559082,207.434845 662.507751,153.667831 
	C696.196411,108.326302 730.057983,63.110195 763.303772,17.446030 
	C768.149902,10.789717 774.042175,10.587242 780.456299,9.872663 
	C793.345154,8.436754 806.262756,7.258935 819.169495,5.983816 
	C820.325562,5.869598 821.504456,5.737716 823.247559,7.298562 
	C739.380737,122.294792 655.452942,237.374619 571.557556,352.409943 
	C572.418884,355.375702 574.749146,356.890381 576.585510,358.718903 
	C656.767883,438.559814 736.976807,518.374146 817.191223,598.182922 
	C881.102661,661.771179 945.035706,725.337646 1008.917786,788.955322 
	C1012.915771,792.936768 1017.588928,796.269531 1020.656738,801.179260 
	C1022.633362,804.342590 1023.546509,807.881714 1024.868164,811.666626 
	C1025.000000,813.714355 1025.000000,815.428711 1024.905884,817.933716 
	C1021.626587,832.539490 1014.160522,840.509155 1002.203735,842.127808 
	C996.450012,842.906738 990.584473,842.914856 984.764465,843.138733 
	C958.311890,844.156372 931.859070,845.174133 905.403259,846.101685 
	C872.945374,847.239807 840.481628,848.214783 808.026489,849.423767 
	C799.129578,849.755188 791.846069,846.888794 785.556641,840.601624 
	C748.905701,803.964050 712.177612,767.403564 675.452087,730.840637 
	C600.464844,656.185425 525.466064,581.541748 450.444855,506.920624 
	C448.844818,505.329102 447.561951,503.222443 445.026703,502.665619 
	C442.787598,504.303986 441.527893,506.686218 440.041748,508.855591 
	C411.512787,550.500610 383.004059,592.159424 354.493286,633.816895 
	C292.389771,724.557007 230.274490,815.289124 168.199203,906.048523 
	C159.365768,918.963745 150.728241,932.012878 142.000015,945.000000 
	C130.312439,945.000000 118.624878,945.000000 106.468658,945.000000 
M383.950592,330.554688 
	C398.212372,345.277985 412.440460,360.034088 426.742462,374.718201 
	C465.228912,414.233032 503.735809,453.727936 542.255188,493.210693 
	C589.501038,541.638184 636.788757,590.024780 684.019836,638.466614 
	C733.229919,688.938171 782.425659,739.423828 831.507690,790.019714 
	C834.813965,793.427856 838.093262,795.134033 842.845764,794.728271 
	C849.642517,794.147827 856.475769,793.969849 863.296814,793.705505 
	C881.266846,793.009155 899.238892,792.362610 917.209595,791.682739 
	C918.511658,791.633484 919.923096,791.806396 920.827148,790.424988 
	C921.014648,788.431213 919.338745,787.577942 918.208313,786.471130 
	C886.295166,755.226440 854.341553,724.023254 822.424866,692.782166 
	C757.995911,629.717224 693.584656,566.634155 629.166260,503.558411 
	C581.656250,457.038696 534.149231,410.515961 486.635681,363.999847 
	C423.046509,301.745575 359.462860,239.485687 295.855469,177.250092 
	C267.746826,149.747650 239.558990,122.326096 211.486084,94.787315 
	C208.410126,91.769859 204.991928,90.544281 200.786209,90.324181 
	C184.997543,89.497902 169.219666,88.465782 153.437439,87.516060 
	C152.121567,87.436874 150.734772,87.162766 149.096359,89.707458 
	C227.076813,169.678894 305.266632,249.865021 383.950592,330.554688 
z"/>
</svg>