<svg version="1.1" id="Layer_1" xmlns="http://www.w3.org/2000/svg" xmlns:xlink="http://www.w3.org/1999/xlink" x="0px" y="0px"
	 width="100%" viewBox="0 0 181 170" enable-background="new 0 0 181 170" xml:space="preserve">
<path fill="#F7F7F7" opacity="1.000000" stroke="none" 
	d="
M104.000000,171.000000 
	C69.333336,171.000000 35.166672,171.000000 1.000005,171.000000 
	C1.000003,114.333336 1.000003,57.666679 1.000002,1.000012 
	C61.333324,1.000008 121.666649,1.000008 181.999969,1.000004 
	C181.999985,57.666656 181.999985,114.333313 182.000000,170.999985 
	C156.166672,171.000000 130.333328,171.000000 104.000000,171.000000 
M134.880432,76.329742 
	C133.557739,74.770401 132.233627,72.466866 130.261597,76.233154 
	C129.515045,75.758644 128.768478,75.284134 127.898788,74.149422 
	C124.923668,72.794266 121.948555,71.439110 118.285027,70.007515 
	C117.216705,69.595970 116.148392,69.184425 114.783966,68.315796 
	C114.185646,67.904724 113.587326,67.493660 112.990303,66.378136 
	C111.934296,61.782303 109.946777,66.302162 108.372833,65.981758 
	C104.151764,65.122482 103.980888,67.385544 104.672768,70.875679 
	C105.119400,73.128693 104.257713,75.641052 103.373489,77.982407 
	C102.533875,77.435028 101.694260,76.887650 100.861259,75.606697 
	C98.655670,74.029503 96.626038,72.062248 94.202209,70.968811 
	C90.778770,69.424423 87.063881,68.526062 82.776665,67.324097 
	C81.852554,67.201050 80.928436,67.078003 79.900909,66.306465 
	C79.010902,65.841057 78.120895,65.375641 77.230896,64.910233 
	C77.123062,65.138351 77.015228,65.366478 76.907394,65.594597 
	C77.386345,66.237122 77.865295,66.879654 78.048790,67.937248 
	C77.683136,68.289406 77.317490,68.641556 76.267693,69.095421 
	C74.834724,71.779167 73.401764,74.462914 71.322777,77.068596 
	C70.900009,76.987183 70.477242,76.905769 69.854172,76.380020 
	C69.520050,76.032303 69.185928,75.684593 68.842247,74.595398 
	C65.593788,73.225014 62.345325,71.854630 58.657207,70.497025 
	C58.368404,70.353172 58.083366,70.360405 57.366295,69.981232 
	C55.579044,68.959274 53.791794,67.937325 51.987484,66.186127 
	C49.602959,62.401306 45.464470,62.684887 42.908405,66.444122 
	C41.867817,67.974533 39.802158,68.807968 38.202892,69.958519 
	C37.125713,68.356354 36.018909,66.772964 34.986324,65.142555 
	C34.587879,64.513428 34.357971,63.777561 34.051277,63.090328 
	C33.866776,63.584679 33.682270,64.079033 33.497768,64.573380 
	C29.961233,64.322601 26.360027,64.399017 22.908751,63.716869 
	C20.178295,63.177193 18.000151,62.693943 16.504135,66.014565 
	C16.337465,66.014786 16.170797,66.014999 15.671763,65.386902 
	C13.409336,63.169334 11.769532,63.747574 11.114996,66.666069 
	C10.693695,68.544594 10.506533,70.582298 10.750675,72.479660 
	C11.169676,75.735954 12.687958,78.972130 12.529388,82.156227 
	C12.196193,88.846863 11.074833,95.498253 10.223965,102.609016 
	C12.744798,102.750816 14.024074,102.822777 15.658390,103.360023 
	C15.838771,103.908867 16.019152,104.457710 15.887124,105.877502 
	C15.992566,109.249023 16.098007,112.620537 15.892418,116.844063 
	C15.716558,119.224716 15.540699,121.605377 14.647855,124.060959 
	C14.221310,124.286415 13.459864,124.461250 13.417021,124.744705 
	C12.235192,132.563782 11.126449,140.393890 9.848474,148.416153 
	C9.848474,148.416153 9.600313,148.389236 8.830280,148.142014 
	C7.527891,149.026001 6.225502,149.910004 4.661443,151.450104 
	C4.283131,152.284073 3.904819,153.118057 3.114881,154.193985 
	C2.921088,154.513351 2.950843,154.810394 2.910768,155.945969 
	C2.474123,163.988907 2.474111,163.961807 10.206988,163.958221 
	C39.655994,163.944565 69.105026,163.968857 98.554016,163.942444 
	C123.341400,163.920197 148.128723,163.847260 173.590271,164.060913 
	C174.218307,163.735443 174.846344,163.409988 175.854782,163.110397 
	C175.854782,163.110397 176.229752,163.041534 176.997391,162.977005 
	C177.661987,162.031357 179.060287,160.890274 178.869110,160.172577 
	C177.825592,156.255157 176.921646,152.133041 174.918991,148.692978 
	C173.387177,146.061676 172.439255,144.435333 174.563293,141.709183 
	C175.620468,140.352310 176.453476,137.090866 175.715027,136.343185 
	C170.586349,131.150436 172.374969,125.667824 173.858658,119.805473 
	C174.607468,116.846802 174.000641,113.521126 173.863983,110.367584 
	C173.631485,105.002525 172.984741,99.638916 173.045654,94.280762 
	C173.219177,79.020088 173.758209,63.763279 173.886322,48.502708 
	C173.903961,46.400330 172.807999,43.985161 171.508087,42.255558 
	C170.037827,40.299271 168.328568,40.710648 166.922729,43.170643 
	C160.298355,42.979919 153.673965,42.789200 147.005966,41.913818 
	C143.899429,37.609230 142.194260,44.207043 139.104950,43.495106 
	C140.124771,44.051735 141.144608,44.608360 142.480911,45.088764 
	C142.480911,45.088764 142.806412,45.087112 142.686005,46.006485 
	C142.577698,51.989132 142.469376,57.971779 141.698929,64.299721 
	C141.462418,67.850166 140.956543,71.409439 141.072372,74.948349 
	C141.169678,77.921188 139.934067,79.152596 136.761017,79.486420 
	C136.428711,79.410004 136.179184,79.223114 135.984955,78.343452 
	C135.652420,77.897057 135.319901,77.450653 134.880432,76.329742 
M165.965118,18.226854 
	C163.129166,16.365829 160.391632,15.870804 157.058197,19.158203 
	C153.070633,19.055719 149.083054,18.953238 144.996704,18.303234 
	C144.270935,18.255844 143.166931,17.879398 142.877747,18.211809 
	C139.890671,21.645451 140.237076,25.324892 142.621185,29.918749 
	C142.718460,32.136238 142.815750,34.353729 142.919724,36.723583 
	C147.931396,36.723583 152.466034,36.723583 157.837494,36.944054 
	C159.557495,36.870201 161.277496,36.796349 163.716873,36.928802 
	C164.460419,36.889484 165.203949,36.850166 166.770966,36.922340 
	C167.212296,33.620483 167.653610,30.318628 168.732803,26.891428 
	C168.519058,25.922562 168.305313,24.953695 167.959473,23.235088 
	C167.446686,22.023813 166.933884,20.812538 166.240356,19.247599 
	C166.240356,19.247599 166.169891,18.856733 165.965118,18.226854 
z"/>
<path fill="#37495B" opacity="1.000000" stroke="none" 
	d="
M115.080070,68.772888 
	C116.148392,69.184425 117.216705,69.595970 118.807327,70.328537 
	C122.227058,72.036247 125.124489,73.422943 128.021927,74.809631 
	C128.768478,75.284134 129.515045,75.758644 130.753418,76.542252 
	C132.162003,77.238083 133.078766,77.624817 134.169342,78.252930 
	C134.899582,78.638123 135.456024,78.781944 136.012451,78.925758 
	C136.179184,79.223114 136.428711,79.410004 137.208862,79.761452 
	C139.045471,80.740639 140.434235,81.444794 142.282700,82.382050 
	C142.573059,80.123825 142.774139,78.560051 143.341309,76.990517 
	C144.337036,76.597092 145.474152,76.263229 145.521805,75.813835 
	C146.612152,65.531250 148.123795,55.226803 145.529053,44.989914 
	C153.197372,44.993446 160.404221,45.010513 167.678574,45.489426 
	C167.693771,60.957573 167.641434,75.963875 167.324554,90.969543 
	C166.707397,90.979370 166.354828,90.989838 165.727356,91.016312 
	C165.009186,91.299622 164.565918,91.566917 164.077621,92.020050 
	C164.032593,92.205887 163.985001,92.585335 163.646515,92.697006 
	C162.857483,92.696426 162.406937,92.584167 161.872437,92.204231 
	C160.872681,92.124123 159.956879,92.311691 158.603851,92.667152 
	C154.430176,92.722969 150.693710,92.610893 146.809097,92.153992 
	C140.700623,91.549301 134.741364,91.248077 128.778290,91.096619 
	C128.212250,91.082237 127.622383,92.006218 126.599525,92.659698 
	C108.455864,92.698662 90.756264,92.572472 73.037735,92.079941 
	C73.014313,91.469772 73.009811,91.225937 72.993927,90.577827 
	C71.450455,89.116028 69.940102,87.180779 68.382751,87.142181 
	C57.577549,86.874397 46.761395,87.089035 35.951481,86.944710 
	C32.880836,86.903709 31.624163,87.978401 31.999626,91.233421 
	C32.042267,91.814461 32.049652,92.146584 31.577610,92.651924 
	C26.671427,92.949295 22.214380,93.074120 17.997265,93.113739 
	C18.237194,93.028542 18.264513,92.544807 18.552427,92.336082 
	C17.973299,91.425316 17.106256,90.723274 16.067266,89.579659 
	C15.747356,83.774384 15.599397,78.410675 15.610271,72.716034 
	C15.697665,71.908813 15.626227,71.432533 15.734816,70.721573 
	C15.995252,70.105957 16.075661,69.725014 16.529989,69.223236 
	C18.862827,68.949898 20.869978,68.461494 22.767870,68.734001 
	C24.907024,69.041161 26.947802,70.033463 29.223980,70.909225 
	C29.758883,71.144196 30.101175,71.197701 30.546768,71.489777 
	C30.823320,72.023865 30.996574,72.319382 30.994991,72.976456 
	C29.359320,73.896927 27.753103,74.233696 26.474260,75.070663 
	C24.856468,76.129471 23.068481,77.343330 22.143312,78.946014 
	C20.823774,81.231857 20.220985,83.931450 19.270090,86.570778 
	C23.052862,88.379288 22.807804,87.996826 26.620039,85.554199 
	C30.283760,83.206741 33.376923,80.933540 33.664200,76.184341 
	C33.696190,75.655487 34.888702,75.196831 35.793556,74.715057 
	C36.371948,74.737930 36.699799,74.751358 37.213539,74.936401 
	C37.724304,75.174431 38.049183,75.240837 38.571304,75.600807 
	C40.844944,77.043671 42.921337,78.192986 45.046829,79.600891 
	C45.546947,80.049965 45.997971,80.240433 46.448997,80.430908 
	C46.302292,79.957069 46.155586,79.483231 46.014618,78.599762 
	C45.912525,77.115807 45.804691,76.041481 45.836773,74.651016 
	C46.109615,73.896767 46.242542,73.458649 46.693443,72.959869 
	C50.608307,72.105705 54.205200,71.312218 57.802094,70.518723 
	C58.083366,70.360405 58.368404,70.353172 58.819508,70.665024 
	C58.981808,70.833031 58.914005,71.193924 58.955112,71.586197 
	C60.527653,72.581955 62.059082,73.185455 63.710632,73.750778 
	C63.830746,73.712601 64.007942,73.891884 64.006348,74.290085 
	C65.007278,76.064438 65.884361,77.580559 67.124214,78.691971 
	C67.356369,78.900070 69.040428,77.488480 70.054474,76.824348 
	C70.477242,76.905769 70.900009,76.987183 71.840698,77.408585 
	C73.454506,78.167938 74.550385,78.587288 75.920837,79.111710 
	C76.132004,76.951157 76.275848,75.479385 76.740234,73.908890 
	C80.096916,72.515900 83.133057,71.221657 86.487122,69.932701 
	C87.615913,70.478516 88.426773,71.019051 89.082466,71.685417 
	C88.931084,71.978241 88.934875,72.145233 88.938667,72.312218 
	C89.089203,72.109123 89.239738,71.906029 89.733902,71.675835 
	C91.411461,72.364731 92.745399,73.080727 94.064972,74.201820 
	C95.589966,80.234779 100.625916,77.787704 104.351456,78.989059 
	C104.735207,79.135414 104.863503,79.249458 105.054733,79.642807 
	C105.758568,80.044357 106.399460,80.166603 107.040344,80.288849 
	C107.010841,79.521370 106.981331,78.753899 106.855835,77.566299 
	C106.834305,75.431686 106.908775,73.717194 107.307236,72.032059 
	C110.114166,70.965240 112.597122,69.869064 115.080070,68.772888 
z"/>
<path fill="#314558" opacity="1.000000" stroke="none" 
	d="
M172.916077,163.796783 
	C148.128723,163.847260 123.341400,163.920197 98.554016,163.942444 
	C69.105026,163.968857 39.655994,163.944565 10.206988,163.958221 
	C2.474111,163.961807 2.474123,163.988907 3.327163,155.511108 
	C3.949255,154.905182 4.154952,154.734100 4.360648,154.563019 
	C4.082601,154.359360 3.804553,154.155685 3.526505,153.952026 
	C3.904819,153.118057 4.283131,152.284073 5.125311,151.086700 
	C6.926224,149.945282 8.263268,149.167252 9.600313,148.389236 
	C9.600313,148.389236 9.848474,148.416153 10.273787,148.447052 
	C12.154339,148.344498 13.609577,148.211029 15.488781,148.268692 
	C64.467300,148.492828 113.021858,148.521042 161.576385,148.572632 
	C164.062347,148.575272 166.548080,148.778656 169.096466,149.212677 
	C169.781235,149.670135 170.403473,149.803467 171.167694,150.246826 
	C172.438538,151.656647 173.567398,152.756439 174.491135,154.269073 
	C174.265610,157.112915 174.245209,159.543930 173.938385,162.085541 
	C173.406693,162.729691 173.161392,163.263245 172.916077,163.796783 
z"/>
<path fill="#324659" opacity="1.000000" stroke="none" 
	d="
M15.364841,123.986031 
	C15.540699,121.605377 15.716558,119.224716 16.417431,116.305626 
	C18.207542,112.075874 19.490269,108.383339 16.199533,105.006554 
	C16.019152,104.457710 15.838771,103.908867 15.613915,102.784088 
	C15.763227,100.819160 15.957013,99.430176 16.608845,98.024765 
	C39.721157,98.012840 62.375427,98.017342 85.210281,98.263382 
	C86.249527,98.344688 87.108185,98.184464 88.388298,98.016953 
	C90.214752,98.013084 91.619759,98.016510 93.109436,98.175995 
	C93.453384,98.228569 93.712646,98.125099 94.442230,98.013992 
	C102.289520,98.022705 109.666481,98.039047 117.034180,98.453392 
	C117.899391,99.883514 118.773872,100.915627 119.648346,101.947746 
	C120.415558,100.654503 121.182770,99.361267 122.330589,98.050369 
	C123.473122,98.022575 124.235054,98.012444 124.998161,98.403336 
	C124.997940,99.873924 124.996529,100.943474 124.752777,102.185089 
	C124.344421,102.910484 124.178429,103.463814 123.954376,104.442871 
	C123.816261,111.467262 123.736198,118.065933 123.213142,124.745850 
	C118.819618,125.614807 119.288353,122.907822 118.857208,120.379250 
	C118.559013,118.630371 117.069588,117.084610 116.112457,115.448090 
	C114.735947,116.310097 113.359444,117.172119 111.616539,118.030769 
	C110.760918,118.029976 110.271698,118.032539 109.678635,117.670059 
	C109.654793,116.556503 109.734787,115.808006 110.129776,114.838226 
	C111.277008,111.174324 112.109253,107.731697 113.238541,103.060318 
	C104.470497,102.455925 96.472176,101.904594 88.189453,101.333656 
	C88.180908,101.413269 88.095680,102.207397 87.611404,103.000145 
	C83.793221,103.346207 80.374100,103.693657 76.959145,104.074234 
	C76.963318,104.107353 76.898376,104.122887 76.862717,103.716400 
	C70.952164,103.221046 65.077286,103.129005 59.202057,103.082481 
	C59.134163,103.081947 59.061604,103.671112 58.995766,103.992661 
	C59.000305,104.000305 58.984993,103.991310 58.587692,104.070541 
	C57.897396,110.875481 57.572407,117.600487 57.424030,124.329376 
	C57.417854,124.609360 59.062046,124.925728 60.396618,125.113998 
	C65.915802,125.043121 70.975731,125.083397 76.182388,125.335312 
	C76.719398,125.514107 77.109680,125.481277 77.499969,125.448441 
	C77.369194,124.974663 77.238411,124.500885 77.077667,123.558350 
	C77.121445,117.393196 77.195206,111.696793 77.661407,106.023956 
	C78.702515,107.509491 79.847977,108.953163 79.902657,110.437027 
	C80.042564,114.233444 79.564590,118.048859 79.596687,121.854462 
	C79.615036,124.029671 80.147705,126.200539 80.631241,129.689835 
	C98.388298,132.429230 117.203461,130.859711 136.000000,130.375168 
	C136.000610,131.500687 136.001221,132.251022 136.001495,133.401215 
	C136.000565,134.867355 135.999969,135.933685 135.580688,137.010864 
	C131.087311,137.071365 126.996170,137.377533 122.941345,137.117477 
	C114.384193,136.568680 105.857216,135.424728 97.296188,135.104492 
	C91.537369,134.889069 85.738258,135.992050 79.962677,135.936295 
	C65.201523,135.793839 50.441532,135.391769 35.687050,134.910461 
	C34.180683,134.861343 32.714745,133.572723 31.230045,132.859283 
	C32.728210,131.908310 34.120834,130.653946 35.752377,130.086334 
	C37.617794,129.437332 39.695663,129.398987 41.681217,129.095306 
	C41.560410,128.331589 41.439602,127.567871 41.318794,126.804153 
	C36.678009,127.202271 32.025181,128.012604 27.399971,127.877495 
	C23.146364,127.753227 22.396721,130.124313 22.026052,133.323074 
	C21.626026,136.775223 23.207829,138.170776 26.630161,138.118973 
	C27.411259,138.107147 28.211149,139.337234 28.551888,139.997101 
	C18.645981,140.002502 18.714849,140.010834 19.848902,130.642151 
	C20.171473,127.977303 20.094242,125.165367 16.015619,124.742516 
	C15.657599,124.319252 15.511220,124.152641 15.364841,123.986031 
M43.999550,104.000000 
	C43.999550,104.000000 44.009102,103.985504 43.997974,103.424721 
	C43.297962,103.466293 42.597950,103.507866 40.995407,103.723038 
	C36.315407,103.763603 31.635405,103.804169 26.647491,103.419189 
	C26.254105,103.484848 25.860716,103.550499 25.467329,103.616158 
	C25.671413,104.081757 25.875496,104.547363 26.140560,105.944946 
	C26.104937,111.294640 26.069313,116.644333 25.534718,122.388725 
	C24.851736,124.643265 25.181858,125.987068 28.912542,124.992607 
	C33.843193,124.992607 38.773846,124.992607 44.491211,124.992607 
	C44.491211,118.289558 44.491211,112.200752 44.999130,105.943352 
	C44.670788,105.292633 44.342449,104.641922 43.999550,104.000000 
M17.718580,100.481293 
	C17.608271,101.046822 17.497961,101.612350 17.387651,102.177872 
	C17.790249,102.183182 18.192846,102.188492 18.595444,102.193810 
	C18.499636,101.625725 18.403828,101.057632 17.718580,100.481293 
z"/>
<path fill="#F0F6F5" opacity="1.000000" stroke="none" 
	d="
M169.033920,148.888565 
	C166.548080,148.778656 164.062347,148.575272 161.576385,148.572632 
	C113.021858,148.521042 64.467300,148.492828 15.610218,147.956207 
	C16.943396,146.968399 18.569162,146.110291 20.216572,146.066498 
	C26.444353,145.900970 32.681896,146.097687 38.909210,145.923569 
	C40.286480,145.885071 41.636856,144.884781 43.452953,144.199341 
	C64.984749,144.050003 86.063293,144.057144 107.141632,143.993576 
	C115.760109,143.967590 124.378128,143.788544 133.450027,143.806549 
	C141.585251,143.896942 149.266815,143.859924 157.290955,143.951935 
	C158.106308,143.995804 158.579071,143.910660 159.494598,143.898727 
	C162.458054,143.971924 164.978729,143.971924 167.422195,143.971924 
	C167.422195,137.720413 167.422195,132.355545 167.555603,126.548080 
	C167.594193,122.412285 167.499359,118.719093 167.535461,114.633133 
	C167.579117,113.151688 167.491806,112.063004 167.543228,110.540985 
	C167.615799,107.066597 167.549637,104.025551 167.598938,100.613861 
	C167.748459,98.952782 167.782516,97.662361 167.796356,96.051582 
	C167.776260,94.683968 167.776382,93.636696 167.769073,92.311493 
	C167.704147,91.679092 167.646622,91.324638 167.589111,90.970184 
	C167.641434,75.963875 167.693771,60.957573 167.792557,45.236572 
	C167.828262,44.153549 167.817520,43.785225 167.806763,43.416901 
	C168.328568,40.710648 170.037827,40.299271 171.508087,42.255558 
	C172.807999,43.985161 173.903961,46.400330 173.886322,48.502708 
	C173.758209,63.763279 173.219177,79.020088 173.045654,94.280762 
	C172.984741,99.638916 173.631485,105.002525 173.863983,110.367584 
	C174.000641,113.521126 174.607468,116.846802 173.858658,119.805473 
	C172.374969,125.667824 170.586349,131.150436 175.715027,136.343185 
	C176.453476,137.090866 175.620468,140.352310 174.563293,141.709183 
	C172.439255,144.435333 173.387177,146.061676 174.918991,148.692978 
	C176.921646,152.133041 177.825592,156.255157 178.869110,160.172577 
	C179.060287,160.890274 177.661987,162.031357 176.559814,162.572937 
	C175.646927,159.397980 175.171600,156.627121 174.696259,153.856247 
	C173.567398,152.756439 172.438538,151.656647 171.143494,149.960938 
	C170.329529,149.206223 169.681717,149.047394 169.033920,148.888565 
z"/>
<path fill="#30475C" opacity="1.000000" stroke="none" 
	d="
M162.997498,36.722492 
	C161.277496,36.796349 159.557495,36.870201 157.391907,36.443359 
	C154.493805,35.291115 152.075241,34.328850 149.581299,34.056286 
	C145.149139,33.571899 144.913361,30.654274 144.986588,27.266674 
	C145.056198,24.045704 145.877670,21.975624 149.800690,21.921450 
	C155.485809,21.842945 161.011765,22.029243 166.069336,25.342268 
	C166.067581,26.095755 166.060989,26.526392 165.774933,27.208723 
	C164.662811,30.547777 163.830154,33.635136 162.997498,36.722492 
z"/>
<path fill="#F1F4F5" opacity="1.000000" stroke="none" 
	d="
M46.375473,73.020538 
	C46.242542,73.458649 46.109615,73.896767 45.542122,74.705856 
	C42.863052,75.153633 40.618557,75.230438 38.374058,75.307251 
	C38.049183,75.240837 37.724304,75.174431 37.143127,74.601456 
	C34.739037,73.147003 32.591251,72.199104 30.443466,71.251205 
	C30.101175,71.197701 29.758883,71.144196 29.155245,70.587143 
	C25.518982,67.008224 21.754210,65.072060 17.004253,66.014648 
	C18.000151,62.693943 20.178295,63.177193 22.908751,63.716869 
	C26.360027,64.399017 29.961233,64.322601 33.497768,64.573380 
	C33.682270,64.079033 33.866776,63.584679 34.051277,63.090328 
	C34.357971,63.777561 34.587879,64.513428 34.986324,65.142555 
	C36.018909,66.772964 37.125713,68.356354 38.202892,69.958519 
	C39.802158,68.807968 41.867817,67.974533 42.908405,66.444122 
	C45.464470,62.684887 49.602959,62.401306 51.660816,66.614799 
	C50.429897,67.131798 49.525646,67.220123 48.254761,67.232231 
	C47.299988,68.117569 46.711849,69.079124 46.120369,70.420830 
	C46.203175,71.540833 46.289326,72.280685 46.375473,73.020538 
z"/>
<path fill="#F1F4F5" opacity="1.000000" stroke="none" 
	d="
M16.150799,98.041191 
	C15.957013,99.430176 15.763227,100.819160 15.436396,102.551437 
	C14.024074,102.822777 12.744798,102.750816 10.223965,102.609016 
	C11.074833,95.498253 12.196193,88.846863 12.529388,82.156227 
	C12.687958,78.972130 11.169676,75.735954 10.750675,72.479660 
	C10.506533,70.582298 10.693695,68.544594 11.114996,66.666069 
	C11.769532,63.747574 13.409336,63.169334 15.842724,66.117416 
	C16.061146,67.679977 16.108608,68.512016 16.156071,69.344063 
	C16.075661,69.725014 15.995252,70.105957 15.491169,70.772903 
	C15.195476,71.721588 15.323457,72.384285 15.451438,73.046974 
	C15.599397,78.410675 15.747356,83.774384 15.880680,89.815475 
	C15.738977,90.647873 15.611911,90.802887 15.242245,90.981735 
	C14.994633,91.698639 14.989621,92.391701 14.998932,93.530106 
	C15.168065,94.849205 15.322877,95.722977 15.590792,96.563126 
	C15.703895,96.529510 16.091312,96.493225 16.012154,96.883835 
	C16.005596,97.530022 16.078197,97.785606 16.150799,98.041191 
z"/>
<path fill="#F1F4F5" opacity="1.000000" stroke="none" 
	d="
M42.999615,144.327362 
	C41.636856,144.884781 40.286480,145.885071 38.909210,145.923569 
	C32.681896,146.097687 26.444353,145.900970 20.216572,146.066498 
	C18.569162,146.110291 16.943396,146.968399 15.186253,147.765076 
	C13.609577,148.211029 12.154339,148.344498 10.352333,148.350067 
	C11.126449,140.393890 12.235192,132.563782 13.417021,124.744705 
	C13.459864,124.461250 14.221310,124.286415 15.006348,124.023499 
	C15.511220,124.152641 15.657599,124.319252 15.864878,125.181206 
	C15.827797,129.544785 15.729816,133.213028 15.300990,136.947968 
	C15.187075,138.383209 15.404006,139.751724 15.722267,141.527618 
	C16.766115,142.620071 17.693947,143.868820 18.653664,143.893845 
	C23.097069,144.009598 27.549328,143.785538 32.441216,143.812103 
	C36.255882,144.069794 39.627750,144.198578 42.999615,144.327362 
z"/>
<path fill="#35424E" opacity="1.000000" stroke="none" 
	d="
M166.064529,25.019417 
	C161.011765,22.029243 155.485809,21.842945 149.800690,21.921450 
	C145.877670,21.975624 145.056198,24.045704 144.986588,27.266674 
	C144.913361,30.654274 145.149139,33.571899 149.581299,34.056286 
	C152.075241,34.328850 154.493805,35.291115 156.973511,36.333122 
	C152.466034,36.723583 147.931396,36.723583 142.919724,36.723583 
	C142.815750,34.353729 142.718460,32.136238 142.651398,29.041264 
	C143.745163,25.126553 140.529526,20.980177 145.095490,18.850754 
	C149.083054,18.953238 153.070633,19.055719 157.899994,19.190125 
	C161.217819,19.100273 163.693848,18.978502 166.169891,18.856731 
	C166.169891,18.856733 166.240356,19.247599 166.235382,19.872673 
	C166.175125,22.004972 166.119827,23.512194 166.064529,25.019417 
z"/>
<path fill="#35434F" opacity="1.000000" stroke="none" 
	d="
M145.067566,45.003456 
	C148.123795,55.226803 146.612152,65.531250 145.521805,75.813835 
	C145.474152,76.263229 144.337036,76.597092 143.247742,76.534637 
	C142.645752,72.041153 142.503403,67.997787 142.361053,63.954426 
	C142.469376,57.971779 142.577698,51.989132 143.121002,45.501732 
	C144.059845,44.999138 144.563705,45.001297 145.067566,45.003456 
z"/>
<path fill="#435264" opacity="1.000000" stroke="none" 
	d="
M145.529053,44.989914 
	C144.563705,45.001297 144.059845,44.999138 143.181198,45.042046 
	C142.806412,45.087112 142.480911,45.088764 142.519775,44.740875 
	C144.055618,43.794815 145.552597,43.196648 147.049591,42.598480 
	C153.673965,42.789200 160.298355,42.979919 167.364746,43.293770 
	C167.817520,43.785225 167.828262,44.153549 167.725037,44.774727 
	C160.404221,45.010513 153.197372,44.993446 145.529053,44.989914 
z"/>
<path fill="#E2E7E9" opacity="1.000000" stroke="none" 
	d="
M104.991791,79.363510 
	C104.863503,79.249458 104.735207,79.135414 104.313965,78.760323 
	C104.021027,78.499283 103.982346,78.037186 103.982346,78.037186 
	C104.257713,75.641052 105.119400,73.128693 104.672768,70.875679 
	C103.980888,67.385544 104.151764,65.122482 108.372833,65.981758 
	C109.946777,66.302162 111.934296,61.782303 112.609085,66.794464 
	C109.151840,67.354836 106.550636,68.018555 106.983246,72.002701 
	C106.908775,73.717194 106.834305,75.431686 106.599564,77.726517 
	C105.956787,78.659073 105.474289,79.011292 104.991791,79.363510 
z"/>
<path fill="#E2E7E9" opacity="1.000000" stroke="none" 
	d="
M89.237633,71.559578 
	C88.426773,71.019051 87.615913,70.478516 86.337822,69.654617 
	C85.071587,68.698013 84.272583,68.024780 83.473587,67.351540 
	C87.063881,68.526062 90.778770,69.424423 94.202209,70.968811 
	C96.626038,72.062248 98.655670,74.029503 100.492378,75.942917 
	C98.108780,75.451653 96.094055,74.624184 94.079338,73.796715 
	C92.745399,73.080727 91.411461,72.364731 89.666275,71.671371 
	C89.255028,71.694008 89.237633,71.559578 89.237633,71.559578 
z"/>
<path fill="#E2E8EA" opacity="1.000000" stroke="none" 
	d="
M142.029999,64.127075 
	C142.503403,67.997787 142.645752,72.041153 142.881653,76.540390 
	C142.774139,78.560051 142.573059,80.123825 142.282700,82.382050 
	C140.434235,81.444794 139.045471,80.740639 137.447632,79.739853 
	C139.934067,79.152596 141.169678,77.921188 141.072372,74.948349 
	C140.956543,71.409439 141.462418,67.850166 142.029999,64.127075 
z"/>
<path fill="#46525D" opacity="1.000000" stroke="none" 
	d="
M83.125122,67.337814 
	C84.272583,68.024780 85.071587,68.698013 86.019897,69.649330 
	C83.133057,71.221657 80.096916,72.515900 76.624832,73.558670 
	C76.443207,71.869362 76.697517,70.431534 76.951836,68.993713 
	C77.317490,68.641556 77.683136,68.289406 78.498032,67.733063 
	C79.299622,67.337578 79.651978,67.146263 80.004326,66.954956 
	C80.928436,67.078003 81.852554,67.201050 83.125122,67.337814 
z"/>
<path fill="#46525D" opacity="1.000000" stroke="none" 
	d="
M48.621399,67.308456 
	C49.525646,67.220123 50.429897,67.131798 51.669346,66.979416 
	C53.791794,67.937325 55.579044,68.959274 57.584194,70.249977 
	C54.205200,71.312218 50.608307,72.105705 46.693443,72.959869 
	C46.289326,72.280685 46.203175,71.540833 46.393051,70.270020 
	C47.319847,68.928864 47.970623,68.118660 48.621399,67.308456 
z"/>
<path fill="#5E6972" opacity="1.000000" stroke="none" 
	d="
M166.069336,25.342268 
	C166.119827,23.512194 166.175125,22.004972 166.325745,20.049507 
	C166.933884,20.812538 167.446686,22.023813 167.934265,23.983711 
	C167.971024,25.493813 168.032990,26.255293 168.094940,27.016773 
	C167.653610,30.318628 167.212296,33.620483 166.379364,36.425125 
	C166.009979,32.937614 166.032181,29.947321 166.054398,26.957027 
	C166.060989,26.526392 166.067581,26.095755 166.069336,25.342268 
z"/>
<path fill="#E2E7E9" opacity="1.000000" stroke="none" 
	d="
M76.609764,69.044571 
	C76.697517,70.431534 76.443207,71.869362 76.304291,73.657402 
	C76.275848,75.479385 76.132004,76.951157 75.920837,79.111710 
	C74.550385,78.587288 73.454506,78.167938 72.163712,77.447617 
	C73.401764,74.462914 74.834724,71.779167 76.609764,69.044571 
z"/>
<path fill="#DDE3E6" opacity="1.000000" stroke="none" 
	d="
M16.529989,69.223236 
	C16.108608,68.512016 16.061146,67.679977 16.008905,66.431572 
	C16.170797,66.014999 16.337465,66.014786 16.754194,66.014603 
	C21.754210,65.072060 25.518982,67.008224 28.962635,70.405670 
	C26.947802,70.033463 24.907024,69.041161 22.767870,68.734001 
	C20.869978,68.461494 18.862827,68.949898 16.529989,69.223236 
z"/>
<path fill="#E2E8EA" opacity="1.000000" stroke="none" 
	d="
M145.046097,18.576994 
	C140.529526,20.980177 143.745163,25.126553 142.527252,28.605572 
	C140.237076,25.324892 139.890671,21.645451 142.877747,18.211809 
	C143.166931,17.879398 144.270935,18.255844 145.046097,18.576994 
z"/>
<path fill="#46525D" opacity="1.000000" stroke="none" 
	d="
M107.307236,72.032059 
	C106.550636,68.018555 109.151840,67.354836 112.608429,67.146698 
	C113.587326,67.493660 114.185646,67.904724 114.932022,68.544342 
	C112.597122,69.869064 110.114166,70.965240 107.307236,72.032059 
z"/>
<path fill="#46525D" opacity="1.000000" stroke="none" 
	d="
M94.064972,74.201820 
	C96.094055,74.624184 98.108780,75.451653 100.489075,76.309700 
	C101.694260,76.887650 102.533875,77.435028 103.677917,78.009796 
	C103.982346,78.037186 104.021027,78.499283 104.058517,78.728027 
	C100.625916,77.787704 95.589966,80.234779 94.064972,74.201820 
z"/>
<path fill="#E2E8EA" opacity="1.000000" stroke="none" 
	d="
M166.067505,18.541794 
	C163.693848,18.978502 161.217819,19.100273 158.321594,19.014973 
	C160.391632,15.870804 163.129166,16.365829 166.067505,18.541794 
z"/>
<path fill="#46525D" opacity="1.000000" stroke="none" 
	d="
M69.954323,76.602188 
	C69.040428,77.488480 67.356369,78.900070 67.124214,78.691971 
	C65.884361,77.580559 65.007278,76.064438 64.371658,74.301651 
	C66.109642,74.388977 67.480728,74.862923 68.851807,75.336876 
	C69.185928,75.684593 69.520050,76.032303 69.954323,76.602188 
z"/>
<path fill="#354454" opacity="1.000000" stroke="none" 
	d="
M16.043329,105.442032 
	C19.490269,108.383339 18.207542,112.075874 16.572947,115.879623 
	C16.098007,112.620537 15.992566,109.249023 16.043329,105.442032 
z"/>
<path fill="#E2E8EA" opacity="1.000000" stroke="none" 
	d="
M147.027771,42.256149 
	C145.552597,43.196648 144.055618,43.794815 142.361542,44.778984 
	C141.144608,44.608360 140.124771,44.051735 139.104950,43.495106 
	C142.194260,44.207043 143.899429,37.609230 147.027771,42.256149 
z"/>
<path fill="#E2E7E9" opacity="1.000000" stroke="none" 
	d="
M68.847031,74.966141 
	C67.480728,74.862923 66.109642,74.388977 64.373253,73.903458 
	C64.007942,73.891884 63.830746,73.712601 63.517879,73.457169 
	C61.774677,72.532455 60.344341,71.863190 58.914005,71.193924 
	C58.914005,71.193924 58.981808,70.833031 59.039337,70.658638 
	C62.345325,71.854630 65.593788,73.225014 68.847031,74.966141 
z"/>
<path fill="#E2E7E9" opacity="1.000000" stroke="none" 
	d="
M127.960358,74.479523 
	C125.124489,73.422943 122.227058,72.036247 119.151527,70.366760 
	C121.948555,71.439110 124.923668,72.794266 127.960358,74.479523 
z"/>
<path fill="#35424E" opacity="1.000000" stroke="none" 
	d="
M165.774933,27.208723 
	C166.032181,29.947321 166.009979,32.937614 165.967621,36.369377 
	C165.203949,36.850166 164.460419,36.889484 163.357178,36.825645 
	C163.830154,33.635136 164.662811,30.547777 165.774933,27.208723 
z"/>
<path fill="#C2C8CE" opacity="1.000000" stroke="none" 
	d="
M174.491150,154.269073 
	C175.171600,156.627121 175.646927,159.397980 176.175995,162.605194 
	C176.229752,163.041534 175.854782,163.110397 175.489532,162.870087 
	C174.824448,162.411499 174.524612,162.193207 174.224792,161.974930 
	C174.245209,159.543930 174.265610,157.112915 174.491150,154.269073 
z"/>
<path fill="#E2E7E9" opacity="1.000000" stroke="none" 
	d="
M133.995544,78.011551 
	C133.078766,77.624817 132.162003,77.238083 131.083221,76.594292 
	C132.233627,72.466866 133.557739,74.770401 134.718658,76.780052 
	C134.289627,77.433174 134.102524,77.693565 133.995544,78.011551 
z"/>
<path fill="#D4DCE0" opacity="1.000000" stroke="none" 
	d="
M9.215297,148.265625 
	C8.263268,149.167252 6.926224,149.945282 5.256146,150.758636 
	C6.225502,149.910004 7.527891,149.026001 9.215297,148.265625 
z"/>
<path fill="#E2E7E9" opacity="1.000000" stroke="none" 
	d="
M79.952621,66.630707 
	C79.651978,67.146263 79.299622,67.337578 78.645760,67.525528 
	C77.865295,66.879654 77.386345,66.237122 76.907394,65.594597 
	C77.015228,65.366478 77.123062,65.138351 77.230896,64.910233 
	C78.120895,65.375641 79.010902,65.841057 79.952621,66.630707 
z"/>
<path fill="#E2E8EA" opacity="1.000000" stroke="none" 
	d="
M168.413879,26.954102 
	C168.032990,26.255293 167.971024,25.493813 168.000320,24.358582 
	C168.305313,24.953695 168.519058,25.922562 168.413879,26.954102 
z"/>
<path fill="#707983" opacity="1.000000" stroke="none" 
	d="
M173.938385,162.085541 
	C174.524612,162.193207 174.824448,162.411499 175.299332,162.857147 
	C174.846344,163.409988 174.218307,163.735443 173.253174,163.928848 
	C173.161392,163.263245 173.406693,162.729691 173.938385,162.085541 
z"/>
<path fill="#E2E8EA" opacity="1.000000" stroke="none" 
	d="
M134.169342,78.252930 
	C134.102524,77.693565 134.289627,77.433174 134.772125,77.117310 
	C135.319901,77.450653 135.652420,77.897057 135.998703,78.634605 
	C135.456024,78.781944 134.899582,78.638123 134.169342,78.252930 
z"/>
<path fill="#707983" opacity="1.000000" stroke="none" 
	d="
M3.320693,154.072998 
	C3.804553,154.155685 4.082601,154.359360 4.360648,154.563019 
	C4.154952,154.734100 3.949255,154.905182 3.473852,155.080688 
	C2.950843,154.810394 2.921088,154.513351 3.320693,154.072998 
z"/>
<path fill="#E2EFF0" opacity="1.000000" stroke="none" 
	d="
M15.477690,96.596741 
	C15.322877,95.722977 15.168065,94.849205 15.296246,93.524803 
	C16.305271,93.115753 17.031301,93.157349 17.757334,93.198936 
	C22.214380,93.074120 26.671427,92.949295 32.025742,92.791641 
	C46.300892,92.654640 59.678776,92.550461 73.056656,92.446281 
	C90.756264,92.572472 108.455864,92.698662 127.046463,92.797440 
	C134.277390,92.679634 140.617325,92.589226 146.957260,92.498817 
	C150.693710,92.610893 154.430176,92.722969 158.957397,92.800301 
	C160.484238,92.667671 161.220306,92.569794 161.956375,92.471909 
	C162.406937,92.584167 162.857483,92.696426 164.004913,92.853386 
	C165.726685,92.795204 166.751602,92.692322 167.776505,92.589432 
	C167.776382,93.636696 167.776260,94.683968 167.588821,96.063538 
	C167.401505,96.395836 167.010025,96.536171 166.792007,96.326637 
	C166.374634,96.145500 166.175262,96.173897 165.526764,96.064423 
	C117.015007,95.895950 68.952377,95.857925 20.889753,95.867004 
	C19.283300,95.867302 17.676937,96.343864 15.922152,96.657013 
	C15.773773,96.715591 15.477689,96.596741 15.477690,96.596741 
z"/>
<path fill="#32435F" opacity="1.000000" stroke="none" 
	d="
M31.994654,90.983833 
	C31.624163,87.978401 32.880836,86.903709 35.951481,86.944710 
	C46.761395,87.089035 57.577549,86.874397 68.382751,87.142181 
	C69.940102,87.180779 71.450455,89.116028 72.524704,90.584610 
	C58.709454,90.991722 45.352055,90.987778 31.994654,90.983833 
z"/>
<path fill="#384A60" opacity="1.000000" stroke="none" 
	d="
M35.543007,74.705620 
	C34.888702,75.196831 33.696190,75.655487 33.664200,76.184341 
	C33.376923,80.933540 30.283760,83.206741 26.620039,85.554199 
	C22.807804,87.996826 23.052862,88.379288 19.270090,86.570778 
	C20.220985,83.931450 20.823774,81.231857 22.143312,78.946014 
	C23.068481,77.343330 24.856468,76.129471 26.474260,75.070663 
	C27.753103,74.233696 29.359320,73.896927 31.341072,73.029175 
	C33.088997,73.382088 34.316002,74.043854 35.543007,74.705620 
z"/>
<path fill="#2B3A4D" opacity="1.000000" stroke="none" 
	d="
M31.999626,91.233421 
	C45.352055,90.987778 58.709454,90.991722 72.536087,90.988884 
	C73.009811,91.225937 73.014313,91.469772 73.037735,92.079941 
	C59.678776,92.550461 46.300892,92.654640 32.474880,92.619095 
	C32.049652,92.146584 32.042267,91.814461 31.999626,91.233421 
z"/>
<path fill="#2B3A4D" opacity="1.000000" stroke="none" 
	d="
M146.809097,92.153992 
	C140.617325,92.589226 134.277390,92.679634 127.490509,92.632294 
	C127.622383,92.006218 128.212250,91.082237 128.778290,91.096619 
	C134.741364,91.248077 140.700623,91.549301 146.809097,92.153992 
z"/>
<path fill="#DDE3E6" opacity="1.000000" stroke="none" 
	d="
M38.571304,75.600807 
	C40.618557,75.230438 42.863052,75.153633 45.402206,75.021996 
	C45.804691,76.041481 45.912525,77.115807 45.739601,78.615379 
	C45.305134,79.141190 45.151432,79.241745 44.997730,79.342293 
	C42.921337,78.192986 40.844944,77.043671 38.571304,75.600807 
z"/>
<path fill="#DDE3E6" opacity="1.000000" stroke="none" 
	d="
M35.793556,74.715057 
	C34.316002,74.043854 33.088997,73.382088 31.515911,72.667603 
	C30.996574,72.319382 30.823320,72.023865 30.546766,71.489777 
	C32.591251,72.199104 34.739037,73.147003 36.957233,74.429848 
	C36.699799,74.751358 36.371948,74.737930 35.793556,74.715057 
z"/>
<path fill="#2B3A4D" opacity="1.000000" stroke="none" 
	d="
M15.484845,90.957901 
	C15.611911,90.802887 15.738977,90.647873 16.052631,90.257050 
	C17.106256,90.723274 17.973299,91.425316 18.213631,92.393784 
	C16.886227,92.092773 16.185535,91.525337 15.484845,90.957901 
z"/>
<path fill="#46525D" opacity="1.000000" stroke="none" 
	d="
M58.955112,71.586197 
	C60.344341,71.863190 61.774677,72.532455 63.397766,73.495338 
	C62.059082,73.185455 60.527653,72.581955 58.955112,71.586197 
z"/>
<path fill="#46525D" opacity="1.000000" stroke="none" 
	d="
M105.054733,79.642807 
	C105.474289,79.011292 105.956787,78.659073 106.695557,78.146637 
	C106.981331,78.753899 107.010841,79.521370 107.040344,80.288849 
	C106.399460,80.166603 105.758568,80.044357 105.054733,79.642807 
z"/>
<path fill="#435264" opacity="1.000000" stroke="none" 
	d="
M167.769073,92.311493 
	C166.751602,92.692322 165.726685,92.795204 164.343384,92.741714 
	C163.985001,92.585335 164.032593,92.205887 164.353210,92.030701 
	C165.116638,91.570442 165.559433,91.285378 166.002243,91.000305 
	C166.354828,90.989838 166.707397,90.979370 167.324554,90.969543 
	C167.646622,91.324638 167.704147,91.679092 167.769073,92.311493 
z"/>
<path fill="#2B3A4D" opacity="1.000000" stroke="none" 
	d="
M161.872437,92.204239 
	C161.220306,92.569794 160.484238,92.667671 159.394623,92.632408 
	C159.956879,92.311691 160.872681,92.124123 161.872437,92.204239 
z"/>
<path fill="#DDE3E6" opacity="1.000000" stroke="none" 
	d="
M15.242245,90.981735 
	C16.185535,91.525337 16.886227,92.092773 17.925716,92.602509 
	C18.264513,92.544807 18.237194,93.028542 17.997265,93.113739 
	C17.031301,93.157349 16.305271,93.115753 15.281924,93.079468 
	C14.989621,92.391701 14.994633,91.698639 15.242245,90.981735 
z"/>
<path fill="#DDE3E6" opacity="1.000000" stroke="none" 
	d="
M15.610271,72.716034 
	C15.323457,72.384285 15.195476,71.721588 15.311142,71.007568 
	C15.626227,71.432533 15.697665,71.908813 15.610271,72.716034 
z"/>
<path fill="#46525D" opacity="1.000000" stroke="none" 
	d="
M45.046829,79.600891 
	C45.151432,79.241745 45.305134,79.141190 45.733860,79.025009 
	C46.155586,79.483231 46.302292,79.957069 46.448997,80.430908 
	C45.997971,80.240433 45.546947,80.049965 45.046829,79.600891 
z"/>
<path fill="#2B3A4D" opacity="1.000000" stroke="none" 
	d="
M165.727356,91.016312 
	C165.559433,91.285378 165.116638,91.570442 164.398239,91.844864 
	C164.565918,91.566917 165.009186,91.299622 165.727356,91.016312 
z"/>
<path fill="#46525D" opacity="1.000000" stroke="none" 
	d="
M89.322655,71.698471 
	C89.239738,71.906029 89.089203,72.109123 88.938667,72.312218 
	C88.934875,72.145233 88.931084,71.978241 89.082466,71.685417 
	C89.237633,71.559578 89.255028,71.694008 89.322655,71.698471 
z"/>
<path fill="#D4DCE0" opacity="1.000000" stroke="none" 
	d="
M169.096466,149.212677 
	C169.681717,149.047394 170.329529,149.206223 171.001526,149.650940 
	C170.403473,149.803467 169.781235,149.670135 169.096466,149.212677 
z"/>
<path fill="#33475D" opacity="1.000000" stroke="none" 
	d="
M29.002388,139.995728 
	C28.211149,139.337234 27.411259,138.107147 26.630161,138.118973 
	C23.207829,138.170776 21.626026,136.775223 22.026052,133.323074 
	C22.396721,130.124313 23.146364,127.753227 27.399971,127.877495 
	C32.025181,128.012604 36.678009,127.202271 41.318794,126.804153 
	C41.439602,127.567871 41.560410,128.331589 41.681217,129.095306 
	C39.695663,129.398987 37.617794,129.437332 35.752377,130.086334 
	C34.120834,130.653946 32.728210,131.908310 31.230045,132.859283 
	C32.714745,133.572723 34.180683,134.861343 35.687050,134.910461 
	C50.441532,135.391769 65.201523,135.793839 79.962677,135.936295 
	C85.738258,135.992050 91.537369,134.889069 97.296188,135.104492 
	C105.857216,135.424728 114.384193,136.568680 122.941345,137.117477 
	C126.996170,137.377533 131.087311,137.071365 135.995636,137.066711 
	C144.552414,137.407593 152.275543,137.703491 159.999207,138.249695 
	C160.000015,138.666870 160.000305,138.833740 159.873184,139.295319 
	C159.494904,140.396042 159.244049,141.202072 158.663116,142.002823 
	C157.892990,142.005371 157.452927,142.013199 156.915710,141.625641 
	C155.330368,140.819839 153.848709,140.085403 152.352783,140.055069 
	C145.904343,139.924332 139.451721,140.000061 132.531921,140.000259 
	C98.708504,140.000351 65.353798,140.000793 31.624468,140.000702 
	C30.500696,139.998703 29.751541,139.997223 29.002388,139.995728 
z"/>
<path fill="#32475B" opacity="1.000000" stroke="none" 
	d="
M160.000610,139.000610 
	C160.000305,138.833740 160.000015,138.666870 160.143280,137.921844 
	C161.675766,133.846252 159.680573,131.204315 156.829163,131.225815 
	C149.882645,131.278168 142.943787,132.343796 136.001831,133.001373 
	C136.001221,132.251022 136.000610,131.500687 136.111557,130.158646 
	C136.423264,129.297043 136.682419,129.108047 137.447113,129.000000 
	C140.929276,128.666565 143.964951,128.333130 147.371796,127.990341 
	C149.975967,126.032898 149.561920,120.470680 147.000000,117.541237 
	C147.000000,115.131981 147.259979,113.135460 146.925125,111.244255 
	C146.605499,109.439140 145.666245,107.743729 144.961121,105.646843 
	C145.282730,103.195938 145.642578,101.098274 146.441162,99.000244 
	C149.583923,98.670921 152.287979,98.341957 155.450348,98.009842 
	C159.268906,98.004433 162.629120,98.002167 166.201569,97.890617 
	C166.612549,97.366287 166.811295,96.951233 167.010040,96.536179 
	C167.010025,96.536171 167.401505,96.395836 167.609039,96.383881 
	C167.782516,97.662361 167.748459,98.952782 167.192200,100.617416 
	C164.912140,101.093513 163.154327,101.195389 161.242279,101.306206 
	C161.511475,107.286903 161.688675,112.717857 162.026718,118.138794 
	C162.211380,121.100182 162.668304,124.044579 162.634354,127.006744 
	C158.455734,128.287231 160.353851,129.435562 162.101791,131.149673 
	C163.381302,132.404419 164.919083,134.665222 164.551605,135.975571 
	C164.178833,137.304810 161.608490,138.017761 160.000610,139.000610 
z"/>
<path fill="#33465C" opacity="1.000000" stroke="none" 
	d="
M137.000610,129.000000 
	C136.682419,129.108047 136.423264,129.297043 136.111557,129.783478 
	C117.203461,130.859711 98.388298,132.429230 80.631241,129.689835 
	C80.147705,126.200539 79.615036,124.029671 79.596687,121.854462 
	C79.564590,118.048859 80.042564,114.233444 79.902657,110.437027 
	C79.847977,108.953163 78.702515,107.509491 77.547592,105.709061 
	C77.012550,104.927437 76.983757,104.484268 76.954971,104.041107 
	C80.374100,103.693657 83.793221,103.346207 87.612785,103.371704 
	C88.018333,104.487839 88.023445,105.231033 87.738556,106.263336 
	C87.299446,108.522064 87.133980,110.490616 87.005234,112.461563 
	C86.831337,115.123573 87.466362,117.146332 90.870605,117.365128 
	C90.912529,118.491425 90.812737,119.253304 90.395058,120.095146 
	C88.669044,121.748833 86.203690,123.299057 90.231293,125.270584 
	C91.407501,125.891487 92.345428,126.569908 93.233994,126.510460 
	C97.837181,126.202484 102.427750,125.706001 107.315964,125.151260 
	C108.029671,125.000771 108.450150,124.974243 109.201218,124.941605 
	C110.012009,124.298248 110.492218,123.661011 111.220108,122.846382 
	C111.638405,122.099014 111.809006,121.529030 111.978798,120.593002 
	C111.979637,119.496017 111.981300,118.765076 111.982948,118.034134 
	C113.359444,117.172119 114.735947,116.310097 116.112457,115.448090 
	C117.069588,117.084610 118.559013,118.630371 118.857208,120.379250 
	C119.288353,122.907822 118.819618,125.614807 123.469810,124.762924 
	C124.447868,124.893211 124.726257,125.087700 125.128052,125.645767 
	C127.742813,126.339912 130.271210,126.507263 132.711838,127.061333 
	C134.210876,127.401642 135.575577,128.333664 137.000610,129.000000 
z"/>
<path fill="#E9EDEF" opacity="1.000000" stroke="none" 
	d="
M125.004654,125.282181 
	C124.726257,125.087700 124.447868,124.893211 123.912804,124.681664 
	C123.736198,118.065933 123.816261,111.467262 124.421288,104.428009 
	C130.607101,104.002808 136.267929,104.018181 141.948181,104.489319 
	C142.101089,108.291000 142.234604,111.636925 142.232666,115.310471 
	C142.183868,116.093788 142.270508,116.549500 142.222733,117.426796 
	C142.101303,119.910995 142.114304,121.973618 141.872925,124.120804 
	C141.421021,124.494804 141.223511,124.784225 140.639282,125.023941 
	C135.169937,125.076889 130.087296,125.179535 125.004654,125.282181 
z"/>
<path fill="#E9EDED" opacity="1.000000" stroke="none" 
	d="
M108.870621,124.947716 
	C108.450150,124.974243 108.029671,125.000771 106.865997,125.014618 
	C101.072273,124.671204 96.021744,124.340454 91.028671,123.607315 
	C90.961739,122.141678 90.837349,121.078423 90.712952,120.015175 
	C90.812737,119.253304 90.912529,118.491425 91.020905,117.002655 
	C90.933418,115.512611 90.837349,114.749458 90.882614,113.600487 
	C90.900368,110.771835 90.776779,108.329010 90.888382,105.620804 
	C96.672974,104.916824 102.247681,104.103439 107.742340,104.474716 
	C108.499596,104.525887 108.853043,110.452148 109.411522,113.655319 
	C109.494682,114.132317 109.677872,114.591881 109.814789,115.059509 
	C109.734787,115.808006 109.654793,116.556503 109.573212,118.030136 
	C109.650505,119.493843 109.729370,120.232422 109.713562,121.294090 
	C109.677811,122.057739 109.736732,122.498299 109.613068,123.153534 
	C109.243858,123.894714 109.057243,124.421219 108.870621,124.947716 
z"/>
<path fill="#EAEFF0" opacity="1.000000" stroke="none" 
	d="
M76.959145,104.074226 
	C76.983757,104.484268 77.012550,104.927437 77.155151,105.685501 
	C77.195206,111.696793 77.121445,117.393196 76.848083,123.689888 
	C76.444199,124.568008 76.239929,124.845840 76.035660,125.123672 
	C70.975731,125.083397 65.915802,125.043121 60.155750,124.747040 
	C59.298748,117.657921 59.141869,110.824615 58.984993,103.991310 
	C58.984993,103.991310 59.000305,104.000305 59.464256,104.002975 
	C65.584930,104.044731 71.241653,104.083809 76.898376,104.122894 
	C76.898376,104.122887 76.963318,104.107353 76.959145,104.074226 
z"/>
<path fill="#EBEEEF" opacity="1.000000" stroke="none" 
	d="
M26.955402,103.844734 
	C31.635405,103.804169 36.315407,103.763603 41.772713,103.803238 
	C43.036381,103.917458 43.522743,103.951477 44.009102,103.985504 
	C44.009102,103.985504 43.999550,104.000000 44.021935,104.361702 
	C44.193283,105.186249 44.342247,105.649094 44.491211,106.111938 
	C44.491211,112.200752 44.491211,118.289558 44.491211,124.992607 
	C38.773846,124.992607 33.843193,124.992607 28.272877,124.793121 
	C27.100039,123.727097 26.566864,122.860558 26.033691,121.994026 
	C26.069313,116.644333 26.104937,111.294640 26.342850,105.359634 
	C26.681896,104.464462 26.818649,104.154602 26.955402,103.844734 
z"/>
<path fill="#2C3C49" opacity="1.000000" stroke="none" 
	d="
M165.989349,97.999893 
	C162.629120,98.002167 159.268906,98.004433 155.001511,98.006020 
	C151.398361,98.005394 148.702362,98.005455 145.665283,98.004837 
	C144.869446,98.009056 144.414688,98.013969 143.593597,98.016327 
	C142.492935,98.018890 141.758636,98.024017 140.647003,98.020294 
	C139.515076,98.009911 138.760452,98.008392 137.543213,98.004227 
	C133.052719,98.001831 129.024841,98.002068 124.996979,98.002304 
	C124.235054,98.012444 123.473122,98.022575 121.922745,98.036247 
	C119.770683,98.044983 118.407059,98.050186 117.043442,98.055389 
	C109.666481,98.039047 102.289520,98.022705 94.205643,98.011505 
	C93.498726,98.016640 93.024757,98.019943 93.024757,98.019943 
	C91.619759,98.016510 90.214752,98.013084 88.021561,98.010956 
	C86.498810,98.015450 85.764252,98.018639 85.029694,98.021835 
	C62.375427,98.017342 39.721157,98.012840 16.608845,98.024765 
	C16.078197,97.785606 16.005596,97.530022 15.990240,96.909798 
	C16.047485,96.545158 16.070530,96.598427 16.070530,96.598427 
	C17.676937,96.343864 19.283300,95.867302 20.889753,95.867004 
	C68.952377,95.857925 117.015007,95.895950 165.518524,96.363983 
	C165.969376,97.200905 165.979355,97.600395 165.989349,97.999893 
z"/>
<path fill="#32475F" opacity="1.000000" stroke="none" 
	d="
M136.001495,133.401215 
	C142.943787,132.343796 149.882645,131.278168 156.829163,131.225815 
	C159.680573,131.204315 161.675766,133.846252 160.142761,137.671539 
	C152.275543,137.703491 144.552414,137.407593 136.414337,137.055847 
	C135.999969,135.933685 136.000565,134.867355 136.001495,133.401215 
z"/>
<path fill="#354454" opacity="1.000000" stroke="none" 
	d="
M28.551888,139.997101 
	C29.751541,139.997223 30.500696,139.998703 31.624783,140.368988 
	C31.999283,141.719589 31.998850,142.701401 31.998417,143.683197 
	C27.549328,143.785538 23.097069,144.009598 18.653664,143.893845 
	C17.693947,143.868820 16.766115,142.620071 15.906202,141.126740 
	C15.869819,139.172729 15.750828,138.026993 15.631837,136.881256 
	C15.729816,133.213028 15.827797,129.544785 16.076519,125.437866 
	C20.094242,125.165367 20.171473,127.977303 19.848902,130.642151 
	C18.714849,140.010834 18.645981,140.002502 28.551888,139.997101 
z"/>
<path fill="#445462" opacity="1.000000" stroke="none" 
	d="
M110.129776,114.838226 
	C109.677872,114.591881 109.494682,114.132317 109.411522,113.655319 
	C108.853043,110.452148 108.499596,104.525887 107.742340,104.474716 
	C102.247681,104.103439 96.672974,104.916824 90.469147,105.649399 
	C89.536934,105.953941 89.259155,105.964531 88.743179,105.974167 
	C88.504974,105.973213 88.028557,105.974228 88.028564,105.974228 
	C88.023445,105.231033 88.018333,104.487839 88.011841,103.373085 
	C88.095680,102.207397 88.180908,101.413269 88.189453,101.333656 
	C96.472176,101.904594 104.470497,102.455925 113.238541,103.060318 
	C112.109253,107.731697 111.277008,111.174324 110.129776,114.838226 
z"/>
<path fill="#324250" opacity="1.000000" stroke="none" 
	d="
M124.998161,98.403336 
	C129.024841,98.002068 133.052719,98.001831 137.506516,98.347961 
	C137.621231,99.795609 137.310013,100.896889 136.538208,102.000900 
	C132.383453,102.006760 128.689285,102.009895 124.995125,102.013031 
	C124.996529,100.943474 124.997940,99.873924 124.998161,98.403336 
z"/>
<path fill="#515F6E" opacity="1.000000" stroke="none" 
	d="
M58.587688,104.070541 
	C59.141869,110.824615 59.298748,117.657921 59.696495,124.858185 
	C59.062046,124.925728 57.417854,124.609360 57.424030,124.329376 
	C57.572407,117.600487 57.897396,110.875481 58.587688,104.070541 
z"/>
<path fill="#445462" opacity="1.000000" stroke="none" 
	d="
M124.752777,102.185089 
	C128.689285,102.009895 132.383453,102.006760 136.913498,102.004089 
	C138.500000,102.003136 139.250610,102.001724 140.292633,102.023315 
	C141.032303,102.708740 141.480530,103.371155 141.928772,104.033562 
	C136.267929,104.018181 130.607101,104.002808 124.479347,104.002289 
	C124.178429,103.463814 124.344421,102.910484 124.752777,102.185089 
z"/>
<path fill="#515F6E" opacity="1.000000" stroke="none" 
	d="
M76.862717,103.716400 
	C71.241653,104.083809 65.584930,104.044731 59.459717,103.995331 
	C59.061604,103.671112 59.134163,103.081947 59.202057,103.082481 
	C65.077286,103.129005 70.952164,103.221046 76.862717,103.716400 
z"/>
<path fill="#445462" opacity="1.000000" stroke="none" 
	d="
M117.034180,98.453400 
	C118.407059,98.050186 119.770683,98.044983 121.542145,98.053902 
	C121.182770,99.361267 120.415558,100.654503 119.648346,101.947746 
	C118.773872,100.915627 117.899391,99.883514 117.034180,98.453400 
z"/>
<path fill="#616D78" opacity="1.000000" stroke="none" 
	d="
M25.784203,122.191376 
	C26.566864,122.860558 27.100039,123.727097 27.807444,124.852173 
	C25.181858,125.987068 24.851736,124.643265 25.784203,122.191376 
z"/>
<path fill="#445462" opacity="1.000000" stroke="none" 
	d="
M109.808243,120.970993 
	C109.729370,120.232422 109.650505,119.493843 109.677055,118.395187 
	C110.271698,118.032539 110.760918,118.029976 111.616547,118.030777 
	C111.981300,118.765076 111.979637,119.496017 111.617287,120.598907 
	C110.773811,120.970909 110.291023,120.970947 109.808243,120.970993 
z"/>
<path fill="#354454" opacity="1.000000" stroke="none" 
	d="
M18.013300,100.485420 
	C18.403828,101.057632 18.499636,101.625725 18.595444,102.193802 
	C18.192846,102.188492 17.790249,102.183182 17.387651,102.177872 
	C17.497961,101.612350 17.608271,101.046822 18.013300,100.485420 
z"/>
<path fill="#616D78" opacity="1.000000" stroke="none" 
	d="
M44.003540,103.705109 
	C43.522743,103.951477 43.036381,103.917458 42.223980,103.716431 
	C42.597950,103.507866 43.297962,103.466293 44.003540,103.705109 
z"/>
<path fill="#616D78" opacity="1.000000" stroke="none" 
	d="
M26.801447,103.631958 
	C26.818649,104.154602 26.681896,104.464462 26.312361,104.893646 
	C25.875496,104.547363 25.671413,104.081757 25.467329,103.616158 
	C25.860716,103.550499 26.254105,103.484848 26.801447,103.631958 
z"/>
<path fill="#616D78" opacity="1.000000" stroke="none" 
	d="
M44.745171,106.027649 
	C44.342247,105.649094 44.193283,105.186249 44.029213,104.357307 
	C44.342449,104.641922 44.670788,105.292633 44.745171,106.027649 
z"/>
<path fill="#515F6E" opacity="1.000000" stroke="none" 
	d="
M76.182388,125.335312 
	C76.239929,124.845840 76.444199,124.568008 76.878052,124.158646 
	C77.238411,124.500885 77.369194,124.974663 77.499969,125.448441 
	C77.109680,125.481277 76.719398,125.514107 76.182388,125.335312 
z"/>
<path fill="#445462" opacity="1.000000" stroke="none" 
	d="
M85.210281,98.263382 
	C85.764252,98.018639 86.498810,98.015450 87.600105,98.018250 
	C87.108185,98.184464 86.249527,98.344688 85.210281,98.263382 
z"/>
<path fill="#445462" opacity="1.000000" stroke="none" 
	d="
M93.109436,98.175995 
	C93.024757,98.019943 93.498726,98.016640 93.735321,98.019135 
	C93.712646,98.125099 93.453384,98.228569 93.109436,98.175995 
z"/>
<path fill="#34435A" opacity="1.000000" stroke="none" 
	d="
M32.441216,143.812103 
	C31.998850,142.701401 31.999283,141.719589 31.999401,140.369507 
	C65.353798,140.000793 98.708504,140.000351 132.531738,140.368210 
	C132.998947,141.717377 132.997650,142.698257 132.996353,143.679138 
	C124.378128,143.788544 115.760109,143.967590 107.141632,143.993576 
	C86.063293,144.057144 64.984749,144.050003 43.452953,144.199341 
	C39.627750,144.198578 36.255882,144.069794 32.441216,143.812103 
z"/>
<path fill="#35455F" opacity="1.000000" stroke="none" 
	d="
M163.002441,126.996643 
	C162.668304,124.044579 162.211380,121.100182 162.026718,118.138794 
	C161.688675,112.717857 161.511475,107.286903 161.242279,101.306206 
	C163.154327,101.195389 164.912140,101.093513 167.076721,100.988068 
	C167.549637,104.025551 167.615799,107.066597 167.256500,110.437256 
	C166.369751,109.866707 165.908447,108.966545 165.335114,107.847740 
	C165.335114,113.363869 165.335114,118.527962 165.335114,123.532394 
	C166.015732,120.734680 166.710129,117.880287 167.404510,115.025894 
	C167.499359,118.719093 167.594193,122.412285 167.188904,126.554367 
	C165.460007,127.001045 164.231232,126.998840 163.002441,126.996643 
z"/>
<path fill="#354454" opacity="1.000000" stroke="none" 
	d="
M162.634354,127.006744 
	C164.231232,126.998840 165.460007,127.001045 167.055496,126.996964 
	C167.422195,132.355545 167.422195,137.720413 167.422195,143.971924 
	C164.978729,143.971924 162.458054,143.971924 159.497223,143.596100 
	C159.035782,142.816223 159.014496,142.412170 158.993195,142.008102 
	C159.244049,141.202072 159.494904,140.396042 159.873184,139.295319 
	C161.608490,138.017761 164.178833,137.304810 164.551605,135.975571 
	C164.919083,134.665222 163.381302,132.404419 162.101791,131.149673 
	C160.353851,129.435562 158.455734,128.287231 162.634354,127.006744 
z"/>
<path fill="#354454" opacity="1.000000" stroke="none" 
	d="
M133.450027,143.806549 
	C132.997650,142.698257 132.998947,141.717377 133.000427,140.368561 
	C139.451721,140.000061 145.904343,139.924332 152.352783,140.055069 
	C153.848709,140.085403 155.330368,140.819839 156.899353,141.925735 
	C156.969528,143.021759 156.958954,143.422348 156.948364,143.822922 
	C149.266815,143.859924 141.585251,143.896942 133.450027,143.806549 
z"/>
<path fill="#354454" opacity="1.000000" stroke="none" 
	d="
M167.535477,114.633133 
	C166.710129,117.880287 166.015732,120.734680 165.335114,123.532394 
	C165.335114,118.527962 165.335114,113.363869 165.335114,107.847740 
	C165.908447,108.966545 166.369751,109.866707 167.117767,110.870598 
	C167.491806,112.063004 167.579117,113.151688 167.535477,114.633133 
z"/>
<path fill="#5F6B75" opacity="1.000000" stroke="none" 
	d="
M157.290955,143.951935 
	C156.958954,143.422348 156.969528,143.021759 156.996475,142.321106 
	C157.452927,142.013199 157.892990,142.005371 158.663147,142.002823 
	C159.014496,142.412170 159.035782,142.816223 159.054443,143.522919 
	C158.579071,143.910660 158.106308,143.995804 157.290955,143.951935 
z"/>
<path fill="#DDE3E6" opacity="1.000000" stroke="none" 
	d="
M48.254765,67.232239 
	C47.970623,68.118660 47.319847,68.928864 46.396393,69.889877 
	C46.711849,69.079124 47.299988,68.117569 48.254765,67.232239 
z"/>
<path fill="#324659" opacity="1.000000" stroke="none" 
	d="
M15.922152,96.657013 
	C16.070530,96.598427 16.047485,96.545158 16.069399,96.519196 
	C16.091312,96.493225 15.703895,96.529510 15.590792,96.563126 
	C15.477689,96.596741 15.773773,96.715591 15.922152,96.657013 
z"/>
<path fill="#BBC3C9" opacity="1.000000" stroke="none" 
	d="
M15.300990,136.947968 
	C15.750828,138.026993 15.869819,139.172729 15.804873,140.719360 
	C15.404006,139.751724 15.187075,138.383209 15.300990,136.947968 
z"/>
<path fill="#3B4A5A" opacity="1.000000" stroke="none" 
	d="
M166.201569,97.890617 
	C165.979355,97.600395 165.969376,97.200905 165.967651,96.501846 
	C166.175262,96.173897 166.374634,96.145500 166.792023,96.326645 
	C166.811295,96.951233 166.612549,97.366287 166.201569,97.890617 
z"/>
<path fill="#354757" opacity="1.000000" stroke="none" 
	d="
M125.128052,125.645767 
	C130.087296,125.179535 135.169937,125.076889 140.783936,125.243317 
	C141.884354,125.340080 142.453400,125.167778 143.399017,124.908020 
	C144.865219,121.931877 147.427750,118.775871 142.357162,117.005211 
	C142.270508,116.549500 142.183868,116.093788 142.578873,115.185097 
	C143.706818,111.821442 144.353104,108.910759 144.999390,106.000084 
	C145.666245,107.743729 146.605499,109.439140 146.925125,111.244255 
	C147.259979,113.135460 147.000000,115.131981 147.000000,117.995346 
	C147.000198,121.938705 147.000412,124.969200 147.000610,127.999695 
	C143.964951,128.333130 140.929276,128.666565 137.447113,129.000000 
	C135.575577,128.333664 134.210876,127.401642 132.711838,127.061333 
	C130.271210,126.507263 127.742813,126.339912 125.128052,125.645767 
z"/>
<path fill="#324250" opacity="1.000000" stroke="none" 
	d="
M144.961121,105.646843 
	C144.353104,108.910759 143.706818,111.821442 142.714325,114.857483 
	C142.234604,111.636925 142.101089,108.291000 141.948181,104.489319 
	C141.480530,103.371155 141.032303,102.708740 140.294800,101.683655 
	C140.344269,100.541718 140.683014,99.762466 141.352173,98.982010 
	C142.441696,98.660164 143.200821,98.339523 143.959930,98.018890 
	C144.414688,98.013969 144.869446,98.009056 145.662933,98.253571 
	C146.001648,98.502991 146.002441,99.000610 146.002441,99.000610 
	C145.642578,101.098274 145.282730,103.195938 144.961121,105.646843 
z"/>
<path fill="#324659" opacity="1.000000" stroke="none" 
	d="
M147.371796,127.990341 
	C147.000412,124.969200 147.000198,121.938705 147.000000,118.454102 
	C149.561920,120.470680 149.975967,126.032898 147.371796,127.990341 
z"/>
<path fill="#3B4A5A" opacity="1.000000" stroke="none" 
	d="
M146.441162,99.000244 
	C146.002441,99.000610 146.001648,98.502991 146.004013,98.254257 
	C148.702362,98.005455 151.398361,98.005394 154.543182,98.009155 
	C152.287979,98.341957 149.583923,98.670921 146.441162,99.000244 
z"/>
<path fill="#445462" opacity="1.000000" stroke="none" 
	d="
M90.971222,124.009705 
	C96.021744,124.340454 101.072273,124.671204 106.572754,125.138580 
	C102.427750,125.706001 97.837181,126.202484 93.233994,126.510460 
	C92.345428,126.569908 91.407501,125.891487 90.338898,125.051468 
	C90.369232,124.255821 90.631157,124.075890 90.971222,124.009705 
z"/>
<path fill="#324659" opacity="1.000000" stroke="none" 
	d="
M87.738556,106.263336 
	C88.028557,105.974228 88.504974,105.973213 88.749275,106.405106 
	C89.576149,109.220100 90.158714,111.603203 90.741280,113.986305 
	C90.837349,114.749458 90.933418,115.512611 90.879196,116.638229 
	C87.466362,117.146332 86.831337,115.123573 87.005234,112.461563 
	C87.133980,110.490616 87.299446,108.522064 87.738556,106.263336 
z"/>
<path fill="#31404F" opacity="1.000000" stroke="none" 
	d="
M91.028671,123.607315 
	C90.631157,124.075890 90.369232,124.255821 90.077843,124.768616 
	C86.203690,123.299057 88.669044,121.748833 90.395065,120.095146 
	C90.837349,121.078423 90.961739,122.141678 91.028671,123.607315 
z"/>
<path fill="#445462" opacity="1.000000" stroke="none" 
	d="
M109.201218,124.941605 
	C109.057243,124.421219 109.243858,123.894714 109.907433,123.172379 
	C110.580406,122.992279 110.776413,123.008026 110.972412,123.023773 
	C110.492218,123.661011 110.012009,124.298248 109.201218,124.941605 
z"/>
<path fill="#324659" opacity="1.000000" stroke="none" 
	d="
M111.220108,122.846375 
	C110.776413,123.008026 110.580406,122.992279 110.090027,122.957687 
	C109.736732,122.498299 109.677811,122.057739 109.713562,121.294090 
	C110.291023,120.970947 110.773811,120.970909 111.618103,120.964951 
	C111.809006,121.529030 111.638405,122.099014 111.220108,122.846375 
z"/>
<path fill="#324250" opacity="1.000000" stroke="none" 
	d="
M142.222733,117.426796 
	C147.427750,118.775871 144.865219,121.931877 143.308319,124.697296 
	C142.683929,124.287544 142.445999,124.108276 142.127319,124.036232 
	C142.114304,121.973618 142.101303,119.910995 142.222733,117.426796 
z"/>
<path fill="#445462" opacity="1.000000" stroke="none" 
	d="
M141.872925,124.120804 
	C142.445999,124.108276 142.683929,124.287544 142.931763,124.784744 
	C142.453400,125.167778 141.884354,125.340080 141.170654,125.293022 
	C141.223511,124.784225 141.421021,124.494804 141.872925,124.120804 
z"/>
<path fill="#31404F" opacity="1.000000" stroke="none" 
	d="
M90.882614,113.600487 
	C90.158714,111.603203 89.576149,109.220100 88.987480,106.406052 
	C89.259155,105.964531 89.536934,105.953941 90.233948,105.914764 
	C90.776779,108.329010 90.900368,110.771835 90.882614,113.600487 
z"/>
<path fill="#324659" opacity="1.000000" stroke="none" 
	d="
M141.021759,98.983215 
	C140.683014,99.762466 140.344269,100.541718 140.003372,101.660645 
	C139.250610,102.001724 138.500000,102.003136 137.374084,102.001358 
	C137.310013,100.896889 137.621231,99.795609 137.969147,98.350594 
	C138.760452,98.008392 139.515076,98.009911 140.643311,98.258621 
	C141.016907,98.505806 141.021759,98.983215 141.021759,98.983215 
z"/>
<path fill="#445462" opacity="1.000000" stroke="none" 
	d="
M141.352173,98.982010 
	C141.021759,98.983215 141.016907,98.505806 141.020615,98.267471 
	C141.758636,98.024017 142.492935,98.018890 143.593597,98.016327 
	C143.200821,98.339523 142.441696,98.660164 141.352173,98.982010 
z"/>
</svg>