<svg version="1.1" id="Layer_1" xmlns="http://www.w3.org/2000/svg" xmlns:xlink="http://www.w3.org/1999/xlink" x="0px" y="0px"
	 width="100%" viewBox="0 0 1347 1085" enable-background="new 0 0 1347 1085" xml:space="preserve">
<path fill="#1F3A8B" opacity="1.000000" stroke="none" 
	d="
M809.000000,1086.000000 
	C539.333313,1086.000000 270.166656,1086.000000 1.000000,1086.000000 
	C1.000000,724.333313 1.000000,362.666656 1.000000,1.000000 
	C450.000000,1.000000 899.000000,1.000000 1348.000000,1.000000 
	C1348.000000,362.666656 1348.000000,724.333313 1348.000000,1086.000000 
	C1168.500000,1086.000000 989.000000,1086.000000 809.000000,1086.000000 
M1318.665161,999.842529 
	C1308.486694,990.451294 1297.971680,981.396729 1288.184570,971.613953 
	C1226.896240,910.353210 1165.739014,848.960938 1104.601196,787.549744 
	C1064.631470,747.401062 1024.796509,707.118103 984.849304,666.947083 
	C925.740051,607.506714 866.583984,548.112854 807.452393,488.694733 
	C806.078369,487.314087 804.757568,485.880463 803.150879,484.198273 
	C922.251953,351.623474 1041.075928,219.357086 1160.416870,86.515221 
	C1158.345093,85.728340 1157.768311,85.387589 1157.153809,85.293678 
	C1141.835205,82.953117 1126.526367,80.535271 1111.170288,78.469826 
	C1109.527832,78.248894 1107.129150,79.681557 1105.881104,81.067390 
	C1046.563110,146.936752 987.333008,212.885239 928.094116,278.825867 
	C877.088440,335.601959 826.077942,392.373749 775.123047,449.195404 
	C774.053711,450.387848 773.636108,452.164612 772.914429,453.668762 
	C769.383240,450.929840 768.088257,449.173309 766.565857,447.642914 
	C706.277527,387.039093 645.953613,326.470673 585.666260,265.865845 
	C518.558655,198.404755 451.530426,130.864532 384.250519,63.575855 
	C380.851044,60.175930 375.531250,58.482918 370.846924,56.659805 
	C367.982544,55.545017 364.622437,55.709835 361.487091,55.284447 
	C316.080627,49.123936 270.623627,43.311001 225.280304,36.716232 
	C157.199493,26.814507 89.195854,16.381437 21.170452,6.101216 
	C17.396130,5.530829 14.418320,6.320508 12.788575,9.778864 
	C11.253289,13.036774 12.318140,15.942782 15.116155,18.192209 
	C15.635559,18.609777 16.156055,19.028725 16.646444,19.479258 
	C51.123837,51.154457 86.465721,81.948227 119.877495,114.710373 
	C175.436203,169.188843 229.755310,224.931488 284.598083,280.140137 
	C391.827637,388.085083 499.058777,496.028473 606.282715,603.979004 
	C607.538208,605.242981 608.706299,606.593689 610.145996,608.154053 
	C467.783966,755.842468 325.727692,903.213684 183.074036,1051.204590 
	C184.905045,1051.463745 185.824997,1051.657349 186.753494,1051.716064 
	C203.051971,1052.747314 219.363190,1053.612183 235.642868,1054.881958 
	C239.920700,1055.215698 242.707397,1053.887329 245.664032,1050.929565 
	C333.433624,963.126404 421.314667,875.434692 509.126221,787.673401 
	C554.388062,742.437500 599.559448,697.110962 644.720703,651.774475 
	C646.107300,650.382507 646.924622,648.423462 648.007385,646.728821 
	C648.767029,646.807434 649.526672,646.886047 650.286316,646.964722 
	C651.569397,648.689636 652.664124,650.601318 654.162903,652.112366 
	C699.926697,698.251099 745.742798,744.338074 791.524963,790.458679 
	C883.568420,883.182678 975.610229,975.908386 1067.602173,1068.683472 
	C1073.964722,1075.100098 1081.414429,1077.107300 1089.975708,1075.232910 
	C1120.897217,1068.463013 1151.787476,1061.551514 1182.701782,1054.748535 
	C1205.646362,1049.699463 1228.451172,1043.764160 1251.606079,1039.987671 
	C1278.881592,1035.538818 1306.481079,1033.094482 1333.896240,1029.451050 
	C1336.369263,1029.122437 1339.785278,1026.783813 1340.465210,1024.647339 
	C1341.135132,1022.542114 1339.584106,1018.802490 1337.783325,1017.009277 
	C1331.889526,1011.139954 1325.438110,1005.830505 1318.665161,999.842529 
z"/>
<path fill="#F1F3F5" opacity="1.000000" stroke="none" 
	d="
M1318.933105,1000.074158 
	C1325.438110,1005.830505 1331.889526,1011.139954 1337.783325,1017.009277 
	C1339.584106,1018.802490 1341.135132,1022.542114 1340.465210,1024.647339 
	C1339.785278,1026.783813 1336.369263,1029.122437 1333.896240,1029.451050 
	C1306.481079,1033.094482 1278.881592,1035.538818 1251.606079,1039.987671 
	C1228.451172,1043.764160 1205.646362,1049.699463 1182.701782,1054.748535 
	C1151.787476,1061.551514 1120.897217,1068.463013 1089.975708,1075.232910 
	C1081.414429,1077.107300 1073.964722,1075.100098 1067.602173,1068.683472 
	C975.610229,975.908386 883.568420,883.182678 791.524963,790.458679 
	C745.742798,744.338074 699.926697,698.251099 654.162903,652.112366 
	C652.664124,650.601318 651.569397,648.689636 650.286316,646.964722 
	C649.526672,646.886047 648.767029,646.807434 648.007385,646.728821 
	C646.924622,648.423462 646.107300,650.382507 644.720703,651.774475 
	C599.559448,697.110962 554.388062,742.437500 509.126221,787.673401 
	C421.314667,875.434692 333.433624,963.126404 245.664032,1050.929565 
	C242.707397,1053.887329 239.920700,1055.215698 235.642868,1054.881958 
	C219.363190,1053.612183 203.051971,1052.747314 186.753494,1051.716064 
	C185.824997,1051.657349 184.905045,1051.463745 183.074036,1051.204590 
	C325.727692,903.213684 467.783966,755.842468 610.145996,608.154053 
	C608.706299,606.593689 607.538208,605.242981 606.282715,603.979004 
	C499.058777,496.028473 391.827637,388.085083 284.598083,280.140137 
	C229.755310,224.931488 175.436203,169.188843 119.877495,114.710373 
	C86.465721,81.948227 51.123837,51.154457 16.646444,19.479258 
	C16.156055,19.028725 15.635559,18.609777 15.116155,18.192209 
	C12.318140,15.942782 11.253289,13.036774 12.788575,9.778864 
	C14.418320,6.320508 17.396130,5.530829 21.170452,6.101216 
	C89.195854,16.381437 157.199493,26.814507 225.280304,36.716232 
	C270.623627,43.311001 316.080627,49.123936 361.487091,55.284447 
	C364.622437,55.709835 367.982544,55.545017 370.846924,56.659805 
	C375.531250,58.482918 380.851044,60.175930 384.250519,63.575855 
	C451.530426,130.864532 518.558655,198.404755 585.666260,265.865845 
	C645.953613,326.470673 706.277527,387.039093 766.565857,447.642914 
	C768.088257,449.173309 769.383240,450.929840 772.914429,453.668762 
	C773.636108,452.164612 774.053711,450.387848 775.123047,449.195404 
	C826.077942,392.373749 877.088440,335.601959 928.094116,278.825867 
	C987.333008,212.885239 1046.563110,146.936752 1105.881104,81.067390 
	C1107.129150,79.681557 1109.527832,78.248894 1111.170288,78.469826 
	C1126.526367,80.535271 1141.835205,82.953117 1157.153809,85.293678 
	C1157.768311,85.387589 1158.345093,85.728340 1160.416870,86.515221 
	C1041.075928,219.357086 922.251953,351.623474 803.150879,484.198273 
	C804.757568,485.880463 806.078369,487.314087 807.452393,488.694733 
	C866.583984,548.112854 925.740051,607.506714 984.849304,666.947083 
	C1024.796509,707.118103 1064.631470,747.401062 1104.601196,787.549744 
	C1165.739014,848.960938 1226.896240,910.353210 1288.184570,971.613953 
	C1297.971680,981.396729 1308.486694,990.451294 1318.933105,1000.074158 
M451.021149,227.478760 
	C412.028015,188.917953 373.056000,150.335678 333.977295,111.861816 
	C332.089294,110.003036 329.404633,108.344345 326.850922,107.861076 
	C279.372498,98.876274 231.858261,90.080711 184.346848,81.270752 
	C183.040207,81.028465 181.681412,81.067436 179.408310,80.910416 
	C180.953659,82.590988 181.698593,83.451759 182.495865,84.260979 
	C245.418396,148.125992 308.319702,212.011963 371.279877,275.839844 
	C416.332153,321.512970 461.491608,367.080414 506.554657,412.742950 
	C631.218201,539.064880 755.856567,665.411743 880.504395,791.749207 
	C952.952759,865.179688 1025.409302,938.602112 1097.811157,1012.078369 
	C1100.353271,1014.658264 1102.992188,1017.490967 1104.428101,1020.720581 
	C1106.050415,1024.369263 1107.571655,1025.119019 1111.470337,1024.093872 
	C1147.887695,1014.517517 1184.369507,1005.187378 1220.828247,995.768494 
	C1222.361572,995.372437 1223.850586,994.804871 1226.186646,994.050232 
	C967.580750,738.311157 709.552551,483.143341 451.021149,227.478760 
z"/>
<path fill="#203B8C" opacity="1.000000" stroke="none" 
	d="
M451.272736,227.727142 
	C709.552551,483.143341 967.580750,738.311157 1226.186646,994.050232 
	C1223.850586,994.804871 1222.361572,995.372437 1220.828247,995.768494 
	C1184.369507,1005.187378 1147.887695,1014.517517 1111.470337,1024.093872 
	C1107.571655,1025.119019 1106.050415,1024.369263 1104.428101,1020.720581 
	C1102.992188,1017.490967 1100.353271,1014.658264 1097.811157,1012.078369 
	C1025.409302,938.602112 952.952759,865.179688 880.504395,791.749207 
	C755.856567,665.411743 631.218201,539.064880 506.554657,412.742950 
	C461.491608,367.080414 416.332153,321.512970 371.279877,275.839844 
	C308.319702,212.011963 245.418396,148.125992 182.495865,84.260979 
	C181.698593,83.451759 180.953659,82.590988 179.408310,80.910416 
	C181.681412,81.067436 183.040207,81.028465 184.346848,81.270752 
	C231.858261,90.080711 279.372498,98.876274 326.850922,107.861076 
	C329.404633,108.344345 332.089294,110.003036 333.977295,111.861816 
	C373.056000,150.335678 412.028015,188.917953 451.272736,227.727142 
z"/>
</svg>