<svg version="1.1" id="Layer_1" xmlns="http://www.w3.org/2000/svg" xmlns:xlink="http://www.w3.org/1999/xlink" x="0px" y="0px"
	 width="100%" viewBox="0 0 487 528" enable-background="new 0 0 487 528" xml:space="preserve">
<path fill="#CBCBCB" opacity="1.000000" stroke="none" 
	d="
M1.000000,186.000000 
	C1.000000,124.015129 1.000000,62.530258 1.000000,1.022692 
	C163.278259,1.022692 325.556549,1.022692 487.917419,1.022692 
	C487.917419,176.901611 487.917419,352.803284 487.917419,528.852478 
	C325.666779,528.852478 163.333405,528.852478 1.000000,528.852478 
	C1.000000,414.776642 1.000000,300.638336 1.000000,186.000000 
M347.708649,77.180550 
	C347.272858,76.914253 346.837097,76.647964 347.060852,75.756096 
	C347.374603,73.827293 347.938568,71.901176 347.959351,69.969231 
	C348.055969,60.977207 348.009857,51.983570 348.000122,42.990524 
	C347.991852,35.319077 346.675934,34.001606 338.977081,34.000381 
	C303.671021,33.994774 268.364929,33.990402 233.058884,34.016701 
	C230.735855,34.018429 228.413025,34.279560 225.646347,34.146976 
	C225.142944,33.699394 224.639526,33.251812 223.829529,32.217625 
	C222.161179,30.610214 220.589676,28.885719 218.809586,27.413408 
	C199.795059,11.686336 169.810318,14.839952 156.063995,33.927334 
	C155.756821,34.125954 155.449646,34.324577 154.079300,34.310627 
	C140.437134,34.206139 126.795105,34.075287 113.152763,34.007240 
	C105.215813,33.967648 103.999641,35.244850 103.999359,43.348808 
	C103.996544,125.401657 103.997070,207.454498 103.998520,289.507355 
	C103.998543,290.838623 103.618271,292.355591 104.125694,293.459381 
	C104.971687,295.299683 106.357368,298.299225 107.578041,298.329834 
	C115.083954,298.518097 122.607323,298.010529 130.944290,297.730804 
	C134.252747,297.714020 137.561203,297.697235 141.486679,298.282013 
	C142.435333,298.517059 143.383621,298.955658 144.332703,298.957367 
	C167.233841,298.998718 190.135147,299.015686 213.036102,298.941254 
	C214.406479,298.936798 215.774261,298.134094 218.007202,297.821686 
	C225.995285,297.848907 233.983368,297.876129 242.613510,298.440643 
	C243.248642,298.614136 243.883621,298.938751 244.518951,298.939453 
	C276.822205,298.974945 309.125580,299.003510 341.428558,298.911713 
	C342.619751,298.908325 343.807526,297.699677 345.701996,296.674591 
	C346.495148,296.620850 347.288330,296.567108 348.918335,296.746216 
	C351.838562,296.986237 354.758789,297.226257 358.115967,297.502197 
	C358.115967,295.249969 358.115936,293.449341 358.115936,291.648682 
	C358.115906,228.337570 358.116577,165.026459 358.114136,101.715347 
	C358.113983,98.383316 358.272095,95.038147 358.035339,91.722023 
	C357.560059,85.064827 354.642731,79.989891 347.708649,77.180550 
M55.528324,328.500244 
	C55.528366,257.520111 55.525337,186.539963 55.532593,115.559822 
	C55.533436,107.313950 54.984993,108.435104 62.802605,108.405579 
	C72.229805,108.369972 81.657227,108.397156 91.091820,108.397156 
	C91.091820,97.280807 91.091820,86.864273 91.091820,76.199234 
	C72.928207,76.199234 55.109570,75.932175 37.312698,76.435150 
	C33.943310,76.530373 30.191811,79.147827 27.448402,81.551018 
	C23.435804,85.066010 23.133795,90.268021 23.135056,95.407707 
	C23.165514,219.706192 23.150902,344.004700 23.155283,468.303192 
	C23.155720,480.728851 29.432156,486.925415 42.005947,486.927399 
	C102.822235,486.936981 163.638535,486.930481 224.454819,486.929688 
	C226.230545,486.929688 228.006256,486.929688 229.980957,486.929688 
	C229.980957,475.860199 229.980957,465.449402 229.980957,454.439636 
	C171.810989,454.439636 113.922142,454.439636 56.272091,454.439636 
	C55.902134,453.549103 55.672031,453.253540 55.671608,452.957642 
	C55.612888,411.805206 55.570900,370.652740 55.528324,328.500244 
M396.799316,360.287842 
	C405.343353,351.338348 405.059906,342.808350 395.269501,335.297638 
	C390.846863,331.904877 385.753876,328.965607 380.506378,327.136536 
	C346.188843,315.174774 311.591125,315.060913 277.166473,326.480042 
	C270.553070,328.673798 264.141357,332.591156 258.734985,337.046326 
	C250.648270,343.710327 250.822632,353.068390 258.810913,359.848328 
	C263.298370,363.656921 268.567627,367.019196 274.047119,369.105042 
	C304.082550,380.538666 334.904816,380.584564 365.973083,374.191284 
	C376.993408,371.923492 387.381287,367.972839 396.799316,360.287842 
M335.040344,434.677673 
	C333.264435,444.821930 333.546967,454.892792 336.089020,464.889099 
	C345.177643,500.628723 379.470520,523.314819 416.203278,517.881653 
	C451.281311,512.693237 478.237946,480.393677 476.564148,445.556946 
	C474.735138,407.489929 445.992981,378.030670 409.131592,376.075134 
	C374.655792,374.246185 342.259979,397.736145 335.040344,434.677673 
M171.500000,421.947266 
	C184.753510,421.947266 198.007019,421.947266 211.479126,421.947266 
	C211.479126,412.543884 211.479126,403.828217 211.479126,394.954590 
	C171.333801,394.954590 131.504532,394.954590 91.772621,394.954590 
	C91.772621,404.125793 91.772621,412.877289 91.772621,421.947266 
	C118.257240,421.947266 144.378616,421.947266 171.500000,421.947266 
M167.500137,344.684723 
	C142.272064,344.684723 117.044006,344.684723 91.822739,344.684723 
	C91.822739,354.169128 91.822739,362.885315 91.822739,371.532288 
	C131.934784,371.532288 171.637939,371.532288 211.344055,371.532288 
	C211.344055,362.440643 211.344055,353.740356 211.344055,344.684692 
	C196.774307,344.684692 182.637222,344.684692 167.500137,344.684723 
M305.173340,482.433960 
	C285.904938,479.105896 266.382874,476.349396 252.956238,458.652496 
	C252.956238,467.001984 253.067612,474.649902 252.917526,482.292664 
	C252.815521,487.486664 254.320236,492.280640 258.499512,495.028625 
	C265.230530,499.454468 272.185608,504.018677 279.699066,506.682739 
	C299.734802,513.786926 320.644501,515.017395 341.736298,513.452576 
	C346.367767,513.109009 350.973083,512.412598 354.554657,511.998444 
	C347.793823,503.175629 341.242523,494.475006 334.461823,485.957001 
	C333.549255,484.810638 331.515656,484.128204 329.942047,484.008636 
	C321.988953,483.404419 314.016296,483.057465 305.173340,482.433960 
M295.048859,389.641388 
	C279.195618,385.993774 263.362488,382.307648 252.949173,366.890381 
	C252.949173,374.776520 253.327164,381.789764 252.851425,388.744598 
	C252.284622,397.030701 255.755234,402.929810 262.369720,407.222717 
	C265.980621,409.566254 269.761414,411.775604 273.722809,413.429321 
	C290.279358,420.340912 307.790863,422.274994 325.524414,422.586456 
	C326.889191,422.610413 328.745087,420.862091 329.598663,419.464722 
	C334.433075,411.550568 339.027985,403.490204 343.714417,395.485474 
	C344.319244,394.452393 344.981415,393.452850 344.975830,393.461792 
	C328.660004,392.249847 312.276642,391.032867 295.048859,389.641388 
M252.936829,419.774261 
	C252.940933,424.606720 253.274033,429.466370 252.876724,434.265625 
	C252.174179,442.752197 256.037689,448.556610 262.698822,453.134949 
	C273.709869,460.703094 286.273804,463.934082 299.165527,465.914581 
	C308.293365,467.316864 317.556427,467.838837 326.529602,468.730927 
	C325.741943,457.944641 325.033844,448.248383 324.332581,438.645172 
	C316.268494,437.789276 308.098358,437.401184 300.113068,435.976654 
	C282.545319,432.842621 264.956909,429.421844 252.938950,412.710205 
	C252.938950,415.345032 252.938950,417.112274 252.936829,419.774261 
z"/>
<path fill="#D2D2D2" opacity="1.000000" stroke="none" 
	d="
M130.124878,297.734497 
	C122.607323,298.010529 115.083954,298.518097 107.578041,298.329834 
	C106.357368,298.299225 104.971687,295.299683 104.125694,293.459381 
	C103.618271,292.355591 103.998543,290.838623 103.998520,289.507355 
	C103.997070,207.454498 103.996544,125.401657 103.999359,43.348808 
	C103.999641,35.244850 105.215813,33.967648 113.152763,34.007240 
	C126.795105,34.075287 140.437134,34.206139 154.490601,34.769844 
	C147.946320,45.313713 145.020309,56.444656 146.758835,69.268890 
	C135.510834,69.268890 124.786392,69.268890 113.669044,69.268890 
	C113.669044,80.522552 113.647934,91.160408 113.673943,101.798141 
	C113.714149,118.242722 118.218071,122.664642 134.862137,122.665497 
	C172.322418,122.667419 209.782700,122.672005 247.242981,122.661903 
	C249.571457,122.661278 251.922165,122.725616 254.224182,122.445053 
	C261.063171,121.611549 267.001648,116.713684 267.281250,110.002113 
	C267.839752,96.595482 267.446869,83.149231 267.446869,69.073769 
	C256.469086,69.073769 245.754181,69.073769 234.530930,69.073769 
	C236.395477,55.948441 232.920609,44.741425 226.090103,34.420029 
	C228.413025,34.279560 230.735855,34.018429 233.058884,34.016701 
	C268.364929,33.990402 303.671021,33.994774 338.977081,34.000381 
	C346.675934,34.001606 347.991852,35.319077 348.000122,42.990524 
	C348.009857,51.983570 348.055969,60.977207 347.959351,69.969231 
	C347.938568,71.901176 347.374603,73.827293 346.304260,76.070381 
	C327.142029,76.384666 308.736359,76.384666 290.293030,76.384666 
	C290.293030,87.250015 290.293030,97.641571 290.293030,108.599922 
	C302.226776,108.599922 313.801453,108.599922 326.062256,108.599922 
	C326.062256,171.294983 326.062256,233.419067 326.062256,295.572784 
	C332.840698,296.102600 338.918793,296.577667 344.996887,297.052734 
	C343.807526,297.699677 342.619751,298.908325 341.428558,298.911713 
	C309.125580,299.003510 276.822205,298.974945 244.518951,298.939453 
	C243.883621,298.938751 243.248642,298.614136 242.569016,297.954773 
	C244.079086,296.876190 245.684357,296.389526 247.180237,295.674133 
	C260.205963,289.444916 266.448486,278.666992 267.303467,264.652283 
	C268.112732,251.387268 263.551849,240.381577 252.064102,233.011810 
	C243.420700,227.466827 233.841354,227.193344 224.069748,228.994568 
	C209.036148,231.765732 198.269714,243.369751 196.109741,259.050079 
	C193.929855,274.875000 200.698334,288.382202 214.227966,295.356964 
	C215.314194,295.916901 216.176758,296.910645 217.143250,297.702820 
	C215.774261,298.134094 214.406479,298.936798 213.036102,298.941254 
	C190.135147,299.015686 167.233841,298.998718 144.332703,298.957367 
	C143.383621,298.955658 142.435333,298.517059 141.283554,297.671173 
	C181.098495,248.609619 221.116577,200.158905 262.148865,150.480286 
	C256.713318,148.587357 252.450089,147.039139 248.143417,145.623016 
	C244.697571,144.489914 242.352005,145.807877 240.027161,148.627045 
	C203.696609,192.682602 167.249680,236.642136 130.841141,280.633392 
	C128.226410,283.792725 125.701233,287.026154 123.080711,290.292053 
	C125.669128,293.026825 127.897003,295.380646 130.124878,297.734497 
M174.225204,208.735046 
	C192.496002,191.113205 188.924530,161.153519 167.192551,150.354248 
	C158.899689,146.233261 150.046219,146.201538 141.313782,148.271118 
	C126.585106,151.761826 117.515762,161.265945 114.674110,176.079132 
	C111.936081,190.352097 115.955505,202.553406 128.009521,211.292587 
	C140.845642,220.598816 160.424225,219.546387 174.225204,208.735046 
z"/>
<path fill="#1A1A19" opacity="1.000000" stroke="none" 
	d="
M55.528233,329.000244 
	C55.570900,370.652740 55.612888,411.805206 55.671608,452.957642 
	C55.672031,453.253540 55.902134,453.549103 56.272091,454.439636 
	C113.922142,454.439636 171.810989,454.439636 229.980957,454.439636 
	C229.980957,465.449402 229.980957,475.860199 229.980957,486.929688 
	C228.006256,486.929688 226.230545,486.929688 224.454819,486.929688 
	C163.638535,486.930481 102.822235,486.936981 42.005947,486.927399 
	C29.432156,486.925415 23.155720,480.728851 23.155283,468.303192 
	C23.150902,344.004700 23.165514,219.706192 23.135056,95.407707 
	C23.133795,90.268021 23.435804,85.066010 27.448402,81.551018 
	C30.191811,79.147827 33.943310,76.530373 37.312698,76.435150 
	C55.109570,75.932175 72.928207,76.199234 91.091820,76.199234 
	C91.091820,86.864273 91.091820,97.280807 91.091820,108.397156 
	C81.657227,108.397156 72.229805,108.369972 62.802605,108.405579 
	C54.984993,108.435104 55.533436,107.313950 55.532593,115.559822 
	C55.525337,186.539963 55.528366,257.520111 55.528233,329.000244 
z"/>
<path fill="#3C3C3B" opacity="1.000000" stroke="none" 
	d="
M225.868225,34.283501 
	C232.920609,44.741425 236.395477,55.948441 234.530930,69.073769 
	C245.754181,69.073769 256.469086,69.073769 267.446869,69.073769 
	C267.446869,83.149231 267.839752,96.595482 267.281250,110.002113 
	C267.001648,116.713684 261.063171,121.611549 254.224182,122.445053 
	C251.922165,122.725616 249.571457,122.661278 247.242981,122.661903 
	C209.782700,122.672005 172.322418,122.667419 134.862137,122.665497 
	C118.218071,122.664642 113.714149,118.242722 113.673943,101.798141 
	C113.647934,91.160408 113.669044,80.522552 113.669044,69.268890 
	C124.786392,69.268890 135.510834,69.268890 146.758835,69.268890 
	C145.020309,56.444656 147.946320,45.313713 155.022186,34.876129 
	C155.449646,34.324577 155.756821,34.125954 156.758850,33.937164 
	C178.142639,33.971058 198.831635,34.021042 219.520386,33.966564 
	C221.059967,33.962509 222.597580,33.209221 224.136108,32.804234 
	C224.639526,33.251812 225.142944,33.699394 225.868225,34.283501 
M171.113724,53.990944 
	C168.176346,62.675541 169.550049,70.496414 176.332260,76.836624 
	C182.553268,82.652222 189.909668,84.280197 198.025101,81.268250 
	C206.779404,78.019196 212.380005,69.276466 211.667694,60.178574 
	C210.943497,50.928448 204.102524,43.014126 195.221695,41.152157 
	C185.309982,39.074051 176.451691,43.575157 171.113724,53.990944 
z"/>
<path fill="#191918" opacity="1.000000" stroke="none" 
	d="
M396.536133,360.530640 
	C387.381287,367.972839 376.993408,371.923492 365.973083,374.191284 
	C334.904816,380.584564 304.082550,380.538666 274.047119,369.105042 
	C268.567627,367.019196 263.298370,363.656921 258.810913,359.848328 
	C250.822632,353.068390 250.648270,343.710327 258.734985,337.046326 
	C264.141357,332.591156 270.553070,328.673798 277.166473,326.480042 
	C311.591125,315.060913 346.188843,315.174774 380.506378,327.136536 
	C385.753876,328.965607 390.846863,331.904877 395.269501,335.297638 
	C405.059906,342.808350 405.343353,351.338348 396.536133,360.530640 
z"/>
<path fill="#1A1A19" opacity="1.000000" stroke="none" 
	d="
M335.098083,434.251099 
	C342.259979,397.736145 374.655792,374.246185 409.131592,376.075134 
	C445.992981,378.030670 474.735138,407.489929 476.564148,445.556946 
	C478.237946,480.393677 451.281311,512.693237 416.203278,517.881653 
	C379.470520,523.314819 345.177643,500.628723 336.089020,464.889099 
	C333.546967,454.892792 333.264435,444.821930 335.098083,434.251099 
M414.194550,401.713348 
	C409.833984,401.827301 405.473450,401.941254 400.161926,402.023468 
	C390.004913,402.016663 379.847931,402.009277 369.690918,402.003204 
	C361.296387,401.998169 360.024384,403.293274 360.018280,411.937958 
	C360.000153,437.746735 359.991058,463.555481 359.980225,489.364258 
	C359.976776,497.559387 361.340729,498.957794 369.501617,498.965363 
	C394.477844,498.988495 419.454041,498.992340 444.430267,498.999756 
	C452.080719,499.002014 453.912109,497.297333 453.929413,489.652344 
	C453.989258,463.177643 453.994904,436.702728 453.967133,410.227997 
	C453.960724,404.130188 451.944031,402.095337 445.909607,402.052826 
	C435.586914,401.980072 425.263367,402.029785 414.194550,401.713348 
z"/>
<path fill="#3B3B3A" opacity="1.000000" stroke="none" 
	d="
M345.349426,296.863647 
	C338.918793,296.577667 332.840698,296.102600 326.062256,295.572784 
	C326.062256,233.419067 326.062256,171.294983 326.062256,108.599922 
	C313.801453,108.599922 302.226776,108.599922 290.293030,108.599922 
	C290.293030,97.641571 290.293030,87.250015 290.293030,76.384666 
	C308.736359,76.384666 327.142029,76.384666 345.974487,76.383163 
	C346.837097,76.647964 347.272858,76.914253 347.879150,77.864059 
	C348.019653,134.539719 347.978546,190.531876 347.966461,246.524033 
	C347.962891,263.187134 348.040863,279.850250 348.081482,296.513367 
	C347.288330,296.567108 346.495148,296.620850 345.349426,296.863647 
z"/>
<path fill="#3E3E3D" opacity="1.000000" stroke="none" 
	d="
M130.534576,297.732666 
	C127.897003,295.380646 125.669128,293.026825 123.080711,290.292053 
	C125.701233,287.026154 128.226410,283.792725 130.841141,280.633392 
	C167.249680,236.642136 203.696609,192.682602 240.027161,148.627045 
	C242.352005,145.807877 244.697571,144.489914 248.143417,145.623016 
	C252.450089,147.039139 256.713318,148.587357 262.148865,150.480286 
	C221.116577,200.158905 181.098495,248.609619 140.975037,297.370392 
	C137.561203,297.697235 134.252747,297.714020 130.534576,297.732666 
z"/>
<path fill="#3D3D3C" opacity="1.000000" stroke="none" 
	d="
M217.575226,297.762268 
	C216.176758,296.910645 215.314194,295.916901 214.227966,295.356964 
	C200.698334,288.382202 193.929855,274.875000 196.109741,259.050079 
	C198.269714,243.369751 209.036148,231.765732 224.069748,228.994568 
	C233.841354,227.193344 243.420700,227.466827 252.064102,233.011810 
	C263.551849,240.381577 268.112732,251.387268 267.303467,264.652283 
	C266.448486,278.666992 260.205963,289.444916 247.180237,295.674133 
	C245.684357,296.389526 244.079086,296.876190 242.247986,297.686096 
	C233.983368,297.876129 225.995285,297.848907 217.575226,297.762268 
M229.206085,245.344330 
	C227.340820,247.571960 224.735062,249.514938 223.748840,252.080460 
	C220.767822,259.835297 221.233597,267.760773 224.390472,275.448242 
	C225.856964,279.019348 228.462448,282.672546 232.351578,281.649536 
	C235.296249,280.874939 238.688797,277.674072 239.776672,274.765472 
	C242.714432,266.910950 242.256638,258.697693 238.812653,250.929306 
	C237.186676,247.261719 234.609543,244.454361 229.206085,245.344330 
z"/>
<path fill="#1A1A19" opacity="1.000000" stroke="none" 
	d="
M171.000000,421.947266 
	C144.378616,421.947266 118.257240,421.947266 91.772621,421.947266 
	C91.772621,412.877289 91.772621,404.125793 91.772621,394.954590 
	C131.504532,394.954590 171.333801,394.954590 211.479126,394.954590 
	C211.479126,403.828217 211.479126,412.543884 211.479126,421.947266 
	C198.007019,421.947266 184.753510,421.947266 171.000000,421.947266 
z"/>
<path fill="#1A1A19" opacity="1.000000" stroke="none" 
	d="
M168.000153,344.684692 
	C182.637222,344.684692 196.774307,344.684692 211.344055,344.684692 
	C211.344055,353.740356 211.344055,362.440643 211.344055,371.532288 
	C171.637939,371.532288 131.934784,371.532288 91.822739,371.532288 
	C91.822739,362.885315 91.822739,354.169128 91.822739,344.684723 
	C117.044006,344.684723 142.272064,344.684723 168.000153,344.684692 
z"/>
<path fill="#1A1A19" opacity="1.000000" stroke="none" 
	d="
M305.611938,482.527130 
	C314.016296,483.057465 321.988953,483.404419 329.942047,484.008636 
	C331.515656,484.128204 333.549255,484.810638 334.461823,485.957001 
	C341.242523,494.475006 347.793823,503.175629 354.554657,511.998444 
	C350.973083,512.412598 346.367767,513.109009 341.736298,513.452576 
	C320.644501,515.017395 299.734802,513.786926 279.699066,506.682739 
	C272.185608,504.018677 265.230530,499.454468 258.499512,495.028625 
	C254.320236,492.280640 252.815521,487.486664 252.917526,482.292664 
	C253.067612,474.649902 252.956238,467.001984 252.956238,458.652496 
	C266.382874,476.349396 285.904938,479.105896 305.611938,482.527130 
z"/>
<path fill="#1B1B1A" opacity="1.000000" stroke="none" 
	d="
M295.471069,389.728638 
	C312.276642,391.032867 328.660004,392.249847 344.975830,393.461792 
	C344.981415,393.452850 344.319244,394.452393 343.714417,395.485474 
	C339.027985,403.490204 334.433075,411.550568 329.598663,419.464722 
	C328.745087,420.862091 326.889191,422.610413 325.524414,422.586456 
	C307.790863,422.274994 290.279358,420.340912 273.722809,413.429321 
	C269.761414,411.775604 265.980621,409.566254 262.369720,407.222717 
	C255.755234,402.929810 252.284622,397.030701 252.851425,388.744598 
	C253.327164,381.789764 252.949173,374.776520 252.949173,366.890381 
	C263.362488,382.307648 279.195618,385.993774 295.471069,389.728638 
z"/>
<path fill="#1B1B1A" opacity="1.000000" stroke="none" 
	d="
M252.937897,419.326904 
	C252.938950,417.112274 252.938950,415.345032 252.938950,412.710205 
	C264.956909,429.421844 282.545319,432.842621 300.113068,435.976654 
	C308.098358,437.401184 316.268494,437.789276 324.332581,438.645172 
	C325.033844,448.248383 325.741943,457.944641 326.529602,468.730927 
	C317.556427,467.838837 308.293365,467.316864 299.165527,465.914581 
	C286.273804,463.934082 273.709869,460.703094 262.698822,453.134949 
	C256.037689,448.556610 252.174179,442.752197 252.876724,434.265625 
	C253.274033,429.466370 252.940933,424.606720 252.937897,419.326904 
z"/>
<path fill="#191918" opacity="1.000000" stroke="none" 
	d="
M348.499908,296.629791 
	C348.040863,279.850250 347.962891,263.187134 347.966461,246.524033 
	C347.978546,190.531876 348.019653,134.539719 348.062439,78.048149 
	C354.642731,79.989891 357.560059,85.064827 358.035339,91.722023 
	C358.272095,95.038147 358.113983,98.383316 358.114136,101.715347 
	C358.116577,165.026459 358.115906,228.337570 358.115936,291.648682 
	C358.115936,293.449341 358.115967,295.249969 358.115967,297.502197 
	C354.758789,297.226257 351.838562,296.986237 348.499908,296.629791 
z"/>
<path fill="#1B1B1A" opacity="1.000000" stroke="none" 
	d="
M223.982819,32.510933 
	C222.597580,33.209221 221.059967,33.962509 219.520386,33.966564 
	C198.831635,34.021042 178.142639,33.971058 156.945068,33.941582 
	C169.810318,14.839952 199.795059,11.686336 218.809586,27.413408 
	C220.589676,28.885719 222.161179,30.610214 223.982819,32.510933 
z"/>
<path fill="#3D3D3C" opacity="1.000000" stroke="none" 
	d="
M173.948029,208.961395 
	C160.424225,219.546387 140.845642,220.598816 128.009521,211.292587 
	C115.955505,202.553406 111.936081,190.352097 114.674110,176.079132 
	C117.515762,161.265945 126.585106,151.761826 141.313782,148.271118 
	C150.046219,146.201538 158.899689,146.233261 167.192551,150.354248 
	C188.924530,161.153519 192.496002,191.113205 173.948029,208.961395 
M159.064133,191.250290 
	C160.511505,183.756973 160.667969,176.203537 156.932175,169.431564 
	C155.471680,166.784073 151.941071,163.828247 149.266327,163.743042 
	C146.975220,163.670029 143.625076,167.050186 142.377045,169.678802 
	C138.806961,177.198151 139.368149,185.186905 141.985794,192.954666 
	C143.358841,197.029053 145.649185,200.777679 150.557388,200.760208 
	C155.057465,200.744202 156.826920,197.012970 158.428513,193.465851 
	C158.631866,193.015503 158.744339,192.524109 159.064133,191.250290 
z"/>
<path fill="#D0D0D0" opacity="1.000000" stroke="none" 
	d="
M171.259766,53.622253 
	C176.451691,43.575157 185.309982,39.074051 195.221695,41.152157 
	C204.102524,43.014126 210.943497,50.928448 211.667694,60.178574 
	C212.380005,69.276466 206.779404,78.019196 198.025101,81.268250 
	C189.909668,84.280197 182.553268,82.652222 176.332260,76.836624 
	C169.550049,70.496414 168.176346,62.675541 171.259766,53.622253 
z"/>
<path fill="#3C3C3B" opacity="1.000000" stroke="none" 
	d="
M414.940155,402.028076 
	C425.263367,402.029785 435.586914,401.980072 445.909607,402.052826 
	C451.944031,402.095337 453.960724,404.130188 453.967133,410.227997 
	C453.994904,436.702728 453.989258,463.177643 453.929413,489.652344 
	C453.912109,497.297333 452.080719,499.002014 444.430267,498.999756 
	C419.454041,498.992340 394.477844,498.988495 369.501617,498.965363 
	C361.340729,498.957794 359.976776,497.559387 359.980225,489.364258 
	C359.991058,463.555481 360.000153,437.746735 360.018280,411.937958 
	C360.024384,403.293274 361.296387,401.998169 369.690918,402.003204 
	C379.847931,402.009277 390.004913,402.016663 400.679626,402.480225 
	C401.197296,405.213745 401.197296,407.490509 401.197296,409.165588 
	C396.854218,410.878204 393.106750,411.912872 389.802643,413.746460 
	C381.670868,418.259155 378.491394,425.625580 379.002533,434.672363 
	C379.480316,443.129120 384.812164,447.738312 392.171356,450.526062 
	C394.811890,451.526398 397.555573,452.250793 400.230164,453.165527 
	C405.100555,454.831299 410.050598,456.318024 414.781311,458.319244 
	C417.914764,459.644745 420.252930,462.648376 418.842651,465.914246 
	C417.777100,468.381927 414.882538,471.424408 412.520538,471.687866 
	C407.364929,472.262939 401.856049,471.923676 396.817261,470.659576 
	C391.780365,469.395966 387.140381,466.550110 381.857727,464.188324 
	C379.981995,467.843750 378.042847,471.622803 375.420471,476.733307 
	C384.227448,480.047516 392.481537,483.153625 401.041138,486.374756 
	C401.163757,488.084259 401.327179,490.363007 401.508850,492.896454 
	C405.973114,492.896454 410.170105,492.896454 415.051636,492.896454 
	C412.882111,485.905029 417.180847,484.411896 422.253448,482.472900 
	C430.756348,479.222687 434.617493,472.218262 434.674072,463.215118 
	C434.728455,454.554535 430.417664,448.469147 421.708038,444.981018 
	C418.010529,443.500214 414.142670,442.443085 410.347198,441.208832 
	C406.402191,439.925934 402.383209,438.836304 398.523651,437.335449 
	C395.282074,436.074890 393.556000,433.541382 393.908478,429.872772 
	C394.277344,426.033569 396.538300,423.677399 400.122192,423.042267 
	C403.181000,422.500214 406.550568,421.998901 409.466949,422.733307 
	C415.011963,424.129608 420.331390,426.421844 426.212830,428.508148 
	C427.916595,425.308044 429.823517,421.726288 431.993042,417.651337 
	C428.259796,415.822357 425.297668,413.627197 422.015381,412.921783 
	C415.656006,411.555115 413.696411,407.999359 414.940155,402.028076 
z"/>
<path fill="#CECECE" opacity="1.000000" stroke="none" 
	d="
M414.567352,401.870728 
	C413.696411,407.999359 415.656006,411.555115 422.015381,412.921783 
	C425.297668,413.627197 428.259796,415.822357 431.993042,417.651337 
	C429.823517,421.726288 427.916595,425.308044 426.212830,428.508148 
	C420.331390,426.421844 415.011963,424.129608 409.466949,422.733307 
	C406.550568,421.998901 403.181000,422.500214 400.122192,423.042267 
	C396.538300,423.677399 394.277344,426.033569 393.908478,429.872772 
	C393.556000,433.541382 395.282074,436.074890 398.523651,437.335449 
	C402.383209,438.836304 406.402191,439.925934 410.347198,441.208832 
	C414.142670,442.443085 418.010529,443.500214 421.708038,444.981018 
	C430.417664,448.469147 434.728455,454.554535 434.674072,463.215118 
	C434.617493,472.218262 430.756348,479.222687 422.253448,482.472900 
	C417.180847,484.411896 412.882111,485.905029 415.051636,492.896454 
	C410.170105,492.896454 405.973114,492.896454 401.508850,492.896454 
	C401.327179,490.363007 401.163757,488.084259 401.041138,486.374756 
	C392.481537,483.153625 384.227448,480.047516 375.420471,476.733307 
	C378.042847,471.622803 379.981995,467.843750 381.857727,464.188324 
	C387.140381,466.550110 391.780365,469.395966 396.817261,470.659576 
	C401.856049,471.923676 407.364929,472.262939 412.520538,471.687866 
	C414.882538,471.424408 417.777100,468.381927 418.842651,465.914246 
	C420.252930,462.648376 417.914764,459.644745 414.781311,458.319244 
	C410.050598,456.318024 405.100555,454.831299 400.230164,453.165527 
	C397.555573,452.250793 394.811890,451.526398 392.171356,450.526062 
	C384.812164,447.738312 379.480316,443.129120 379.002533,434.672363 
	C378.491394,425.625580 381.670868,418.259155 389.802643,413.746460 
	C393.106750,411.912872 396.854218,410.878204 401.197296,409.165588 
	C401.197296,407.490509 401.197296,405.213745 401.155090,402.496094 
	C405.473450,401.941254 409.833984,401.827301 414.567352,401.870728 
z"/>
<path fill="#CECECE" opacity="1.000000" stroke="none" 
	d="
M229.579330,245.238647 
	C234.609543,244.454361 237.186676,247.261719 238.812653,250.929306 
	C242.256638,258.697693 242.714432,266.910950 239.776672,274.765472 
	C238.688797,277.674072 235.296249,280.874939 232.351578,281.649536 
	C228.462448,282.672546 225.856964,279.019348 224.390472,275.448242 
	C221.233597,267.760773 220.767822,259.835297 223.748840,252.080460 
	C224.735062,249.514938 227.340820,247.571960 229.579330,245.238647 
z"/>
<path fill="#CDCDCD" opacity="1.000000" stroke="none" 
	d="
M158.981537,191.651016 
	C158.744339,192.524109 158.631866,193.015503 158.428513,193.465851 
	C156.826920,197.012970 155.057465,200.744202 150.557388,200.760208 
	C145.649185,200.777679 143.358841,197.029053 141.985794,192.954666 
	C139.368149,185.186905 138.806961,177.198151 142.377045,169.678802 
	C143.625076,167.050186 146.975220,163.670029 149.266327,163.743042 
	C151.941071,163.828247 155.471680,166.784073 156.932175,169.431564 
	C160.667969,176.203537 160.511505,183.756973 158.981537,191.651016 
z"/>
</svg>