<svg version="1.1" id="Layer_1" xmlns="http://www.w3.org/2000/svg" xmlns:xlink="http://www.w3.org/1999/xlink" x="0px" y="0px"
	 width="100%" viewBox="0 0 267 205" enable-background="new 0 0 267 205" xml:space="preserve">
<path fill="none" opacity="1.000000" stroke="#000000" stroke-linecap="round" stroke-linejoin="round" stroke-width="2.000000"
	d="
M250.500000,118.000000 
	C255.962006,126.568344 257.744385,135.761749 257.193512,146.010406 
	C256.425262,160.302429 257.000000,174.666672 257.000000,189.000000 
	C257.000000,190.000000 256.996887,191.000015 257.000763,192.000000 
	C257.005981,193.341660 255.961792,193.730637 254.991364,193.964111 
	C253.909622,194.224365 253.466980,193.499435 252.927963,192.540497 
	C252.152023,191.160034 252.538528,189.821320 252.534698,188.499893 
	C252.482986,170.666718 252.513611,152.833298 252.479828,135.000046 
	C252.476288,133.133759 253.047836,131.112518 251.500000,129.500000 
"/>
<path fill="none" opacity="1.000000" stroke="#000000" stroke-linecap="round" stroke-linejoin="round" stroke-width="2.000000"
	d="
M110.000008,124.500000 
	C107.666672,130.666672 105.450195,136.881363 102.944565,142.977219 
	C101.888878,145.545563 101.475342,147.670456 104.298637,149.199814 
	C101.658768,155.018906 95.982422,155.718933 91.438156,157.325027 
	C80.630173,161.144958 80.500000,160.776642 80.500000,171.500000 
	C80.500000,177.333328 80.510612,183.166702 80.494446,188.999985 
	C80.488518,191.139801 81.037514,193.578598 77.499573,193.532990 
	C74.260147,193.491257 74.153343,191.191574 74.034248,188.998138 
	C73.889885,186.339310 73.960922,183.665833 74.018295,181.000397 
	C74.042931,179.855927 73.609657,179.209427 72.087547,178.860291 
	C69.958214,181.659698 71.321045,184.981018 71.045898,188.004181 
	C70.830620,190.369644 71.519188,193.331253 67.997978,193.418060 
	C64.402031,193.506699 64.553474,190.637039 64.468819,188.001007 
	C64.260094,181.501465 65.135368,174.975159 64.000000,168.500000 
"/>
<path fill="none" opacity="1.000000" stroke="#000000" stroke-linecap="round" stroke-linejoin="round" stroke-width="3.000000"
	d="
M160.000000,155.000000 
	C160.000000,163.333328 160.174927,171.672058 159.918671,179.997498 
	C159.807526,183.608231 161.120178,184.583359 164.500000,184.583359 
	C167.879822,184.583359 169.262543,183.612915 169.076874,179.996048 
	C168.786728,174.344284 169.000000,168.666672 169.000000,163.000000 
	C169.000000,162.500000 169.039490,161.996323 168.993408,161.500610 
	C168.745941,158.838562 166.119324,156.098572 168.562607,153.560257 
	C170.987732,151.040817 174.174301,153.179123 177.002701,153.070282 
	C182.993835,152.839737 189.000000,153.000000 195.000000,153.000000 
"/>
<path fill="none" opacity="1.000000" stroke="#000000" stroke-linecap="round" stroke-linejoin="round" stroke-width="2.000000"
	d="
M72.000000,135.000000 
	C77.337959,132.951050 77.278503,132.962677 76.014481,126.497169 
	C74.289764,117.675186 72.690239,108.828804 70.993439,100.001259 
	C69.260178,90.984070 61.453651,83.162941 52.493782,81.534218 
	C50.955235,81.254539 49.439655,81.753189 47.988197,82.476311 
	C44.927715,84.001068 41.698887,83.932861 38.504040,82.986366 
	C28.486490,80.018593 17.228901,86.866241 15.025744,97.505333 
	C12.580098,109.315399 10.333705,121.166740 8.019410,132.904480 
	C8.856717,133.274261 9.678359,133.637131 10.500001,134.000000 
"/>
<path fill="none" opacity="1.000000" stroke="#000000" stroke-linecap="round" stroke-linejoin="round" stroke-width="3.000000"
	d="
M188.000000,162.000000 
	C190.179077,162.000000 192.358139,162.000000 195.000000,162.000000 
	C195.000000,169.492065 194.983185,176.496094 195.009293,183.499969 
	C195.018234,185.900848 194.205231,187.220581 191.497223,187.042252 
	C189.071198,186.882477 187.015778,186.558914 187.003311,183.499985 
	C186.989059,180.000046 187.020142,176.499863 186.995148,173.000031 
	C186.960007,168.082092 187.779449,163.041916 185.000000,158.500000 
"/>
<path fill="none" opacity="1.000000" stroke="#000000" stroke-linecap="round" stroke-linejoin="round" stroke-width="2.000000"
	d="
M186.500000,91.000000 
	C188.149506,89.135742 188.086380,86.762268 188.527969,84.505470 
	C190.255447,75.676857 197.165680,69.430580 205.976791,67.869034 
	C208.251251,67.465950 210.014053,68.180679 211.999405,68.503677 
	C215.537491,69.079285 218.961807,69.363449 222.529770,68.082962 
	C226.369720,66.704872 230.394714,67.553406 233.437241,70.075706 
	C239.975067,75.495705 246.104263,81.405846 252.544098,86.948769 
	C254.144730,88.326485 253.991959,89.845520 253.994965,91.500008 
	C254.007111,98.166649 254.000000,104.833336 254.000000,111.500000 
	C254.000000,117.451782 253.532333,117.897079 247.501144,117.483284 
	C246.662689,117.425758 245.839691,117.142708 244.500000,116.854408 
	C244.500000,111.844009 244.252609,106.656570 244.574051,101.504623 
	C244.858780,96.941238 244.052826,93.189293 240.032211,90.452675 
	C238.500809,89.410347 237.333328,87.833336 236.000000,86.500000 
"/>
<path fill="none" opacity="1.000000" stroke="#000000" stroke-linecap="round" stroke-linejoin="round" stroke-width="3.000000"
	d="
M232.000000,138.500000 
	C230.840027,150.319336 231.810562,162.168533 231.510712,174.000275 
	C231.438705,176.841553 231.500000,179.686218 231.500000,182.750000 
	C221.500000,182.750000 212.000000,182.750000 201.956818,182.750000 
	C202.191101,174.500000 201.567673,166.509048 202.428802,158.492355 
	C202.600830,156.890854 203.017303,156.350632 204.500000,156.500000 
"/>
<path fill="none" opacity="1.000000" stroke="#000000" stroke-linecap="round" stroke-linejoin="round" stroke-width="2.000000"
	d="
M130.500000,107.500000 
	C133.798477,104.902344 136.756012,102.205475 137.053085,97.503357 
	C137.420166,91.692467 133.025589,86.924667 127.994637,86.030159 
	C123.778999,85.280617 117.422684,89.357025 115.999992,93.500000 
	C114.555634,97.706093 117.669212,105.357819 122.049751,106.854370 
	C124.437698,107.670189 127.333336,107.000000 130.000000,107.000000 
"/>
<path fill="none" opacity="1.000000" stroke="#000000" stroke-linecap="round" stroke-linejoin="round" stroke-width="2.000000"
	d="
M236.000000,88.500000 
	C234.838730,96.646370 235.719055,104.834145 235.533005,113.000755 
	C235.373611,119.997124 235.360153,127.004066 235.563416,133.998154 
	C235.654770,137.141632 233.733429,138.118958 231.508224,137.911728 
	C222.338242,137.057816 213.163757,137.827072 204.000000,137.500000 
"/>
<path fill="none" opacity="1.000000" stroke="#000000" stroke-linecap="round" stroke-linejoin="round" stroke-width="2.000000"
	d="
M128.000000,79.000000 
	C128.066345,69.751541 126.556137,60.646412 125.825874,51.458660 
	C121.345764,50.454170 117.164024,49.516575 112.657921,48.506252 
	C111.544823,52.010765 110.335968,55.677101 107.000000,58.000000 
	C107.965118,64.307968 101.647835,65.319641 99.000000,69.000000 
"/>
<path fill="none" opacity="1.000000" stroke="#000000" stroke-linecap="round" stroke-linejoin="round" stroke-width="3.000000"
	d="
M176.500000,59.500000 
	C177.163681,49.985432 177.851624,40.452927 175.972794,31.005411 
	C174.098724,21.581776 168.044464,16.898468 158.005081,17.575441 
	C149.442429,18.152836 143.986435,23.496130 143.230560,32.519314 
	C142.484268,41.428249 142.375290,50.517742 143.500000,59.500000 
"/>
<path fill="none" opacity="1.000000" stroke="#000000" stroke-linecap="round" stroke-linejoin="round" stroke-width="2.000000"
	d="
M91.000000,46.500000 
	C84.820274,48.120468 78.640541,49.740936 72.242416,51.418674 
	C70.824570,64.145752 69.412277,76.822876 67.999992,89.500000 
"/>
<path fill="none" opacity="1.000000" stroke="#000000" stroke-linecap="round" stroke-linejoin="round" stroke-width="3.000000"
	d="
M81.500000,65.500000 
	C81.166664,70.500000 80.572258,75.499168 80.556389,80.500175 
	C80.526764,89.832893 80.979416,99.167580 80.921051,108.499504 
	C80.900520,111.781494 82.111725,112.158585 85.002174,112.082275 
	C93.662804,111.853638 102.333336,112.000000 111.000000,112.000000 
"/>
<path fill="none" opacity="1.000000" stroke="#000000" stroke-linecap="round" stroke-linejoin="round" stroke-width="3.000000"
	d="
M99.000000,111.000000 
	C99.000000,106.833336 98.833199,102.658798 99.029335,98.501381 
	C99.811287,81.926643 98.904045,65.619484 92.558136,49.976414 
	C91.122673,46.437893 91.459846,46.301113 93.000000,43.000000 
	C102.534645,46.987843 109.628952,42.837753 111.017975,32.502415 
	C111.221901,30.985023 111.877083,29.511770 111.961777,27.997862 
	C112.251755,22.813950 111.056915,17.621862 106.396248,15.199624 
	C101.642624,12.729068 96.029411,12.307120 91.012115,15.518925 
	C86.297340,18.537066 84.818970,23.169115 85.041534,28.498264 
	C85.056015,28.844913 85.666672,29.166666 86.000000,29.499998 
"/>
<path fill="none" opacity="1.000000" stroke="#000000" stroke-linecap="round" stroke-linejoin="round" stroke-width="3.000000"
	d="
M217.000000,138.500000 
	C217.000000,153.000000 217.000000,167.500000 217.000000,182.000000 
"/>
<path fill="none" opacity="1.000000" stroke="#000000" stroke-linecap="round" stroke-linejoin="round" stroke-width="2.000000"
	d="
M83.500000,113.000000 
	C83.500000,125.000000 83.489601,137.000015 83.511948,148.999985 
	C83.515060,150.674515 83.198730,152.396790 84.000000,154.000000 
"/>
<path fill="none" opacity="1.000000" stroke="#000000" stroke-linecap="round" stroke-linejoin="round" stroke-width="3.000000"
	d="
M114.000000,159.000000 
	C114.000000,166.000000 113.831841,173.005646 114.066620,179.997757 
	C114.195801,183.845016 112.623016,185.070908 108.999908,185.065842 
	C105.831360,185.061432 102.509346,184.172150 99.500000,186.000000 
"/>
<path fill="none" opacity="1.000000" stroke="#000000" stroke-linecap="round" stroke-linejoin="round" stroke-width="3.000000"
	d="
M122.000000,108.000000 
	C122.318855,110.988419 119.870285,111.749641 118.004387,113.006508 
	C114.936195,115.073235 111.895935,117.181427 108.936462,119.208725 
	C109.171539,123.538010 113.631149,124.359970 115.042641,127.370018 
	C111.311707,136.990692 112.899765,147.375671 109.762108,156.759354 
	C112.793968,159.860428 116.553108,158.257111 119.493782,158.196808 
	C125.655022,158.070496 131.847244,158.493820 137.995819,157.952530 
	C140.001907,157.775909 142.589981,159.425613 143.348984,155.060684 
	C143.774719,152.612289 148.507721,154.930038 151.250000,152.647446 
	C151.250000,163.666672 151.250000,173.833328 151.250000,184.117676 
	C153.833328,184.562149 156.666672,184.965897 159.500000,184.000000 
"/>
<path fill="none" opacity="1.000000" stroke="#000000" stroke-linecap="round" stroke-linejoin="round" stroke-width="2.000000"
	d="
M83.500000,161.000000 
	C83.500000,167.333328 83.715530,173.676712 83.421326,179.996338 
	C83.236969,183.956329 85.113548,184.901840 88.498116,185.044724 
	C91.838844,185.185745 95.319954,184.133774 98.500000,186.000000 
"/>
<path fill="none" opacity="1.000000" stroke="#000000" stroke-linecap="round" stroke-linejoin="round" stroke-width="2.000000"
	d="
M62.000000,116.500000 
	C60.861507,126.650734 62.535603,136.927521 61.262962,146.969955 
	C60.303322,154.542511 61.639366,162.930359 56.000000,169.500000 
"/>
<path fill="none" opacity="1.000000" stroke="#000000" stroke-linecap="round" stroke-linejoin="round" stroke-width="2.000000"
	d="
M190.000000,117.000000 
	C187.104401,119.045845 184.156815,118.897285 180.984421,117.536316 
	C176.969070,115.813713 171.040924,118.441994 170.047592,122.511620 
	C168.043015,130.724121 166.954880,139.107590 166.032990,147.503616 
	C165.900620,148.709213 165.517075,150.161789 167.000000,151.000000 
"/>
<path fill="none" opacity="1.000000" stroke="#000000" stroke-linecap="round" stroke-linejoin="round" stroke-width="3.000000"
	d="
M23.000000,117.500000 
	C24.150869,127.149696 22.521992,136.918091 23.708836,146.474060 
	C24.662704,154.154205 24.917433,161.826019 25.014446,170.000000 
	C35.327682,170.000000 45.163841,170.000000 55.000008,170.000000 
	C56.752277,170.989471 54.374985,174.192993 57.497280,174.525528 
	C60.259617,174.819717 60.088501,172.401840 60.987560,170.992065 
	C62.479950,168.651886 64.094864,166.355377 64.500000,163.500000 
"/>
<path fill="none" opacity="1.000000" stroke="#000000" stroke-linecap="round" stroke-linejoin="round" stroke-width="3.000000"
	d="
M59.500000,152.500000 
	C48.166668,151.673309 36.833332,151.673309 25.500000,152.500000 
"/>
<path fill="none" opacity="1.000000" stroke="#000000" stroke-linecap="round" stroke-linejoin="round" stroke-width="2.000000"
	d="
M170.500000,61.500000 
	C172.079742,61.413067 171.920151,59.586819 173.048767,58.974464 
	C173.348145,59.139866 173.655457,59.375404 174.002716,59.491901 
	C183.209961,62.580833 183.165634,62.582115 184.020279,73.998482 
	C184.409241,79.194519 184.623840,84.424881 186.000000,89.500000 
"/>
<path fill="none" opacity="1.000000" stroke="#000000" stroke-linecap="round" stroke-linejoin="round" stroke-width="2.000000"
	d="
M49.500000,55.000000 
	C52.868237,51.306889 52.839516,47.380779 48.961464,44.044800 
	C44.776642,40.444931 39.549435,40.858719 35.914207,44.412231 
	C34.049084,46.235428 33.417313,48.385017 33.116302,50.516426 
	C32.675247,53.639446 34.544182,54.726551 38.002205,54.010647 
	C41.755833,53.233543 45.473316,53.126850 49.000000,55.000000 
"/>
<path fill="none" opacity="1.000000" stroke="#000000" stroke-linecap="round" stroke-linejoin="round" stroke-width="3.000000"
	d="
M144.000000,85.500000 
	C140.872253,92.196037 141.397751,99.411713 140.987900,106.499298 
	C140.804810,109.665474 141.551666,112.879913 140.500000,116.000000 
"/>
<path fill="none" opacity="1.000000" stroke="#000000" stroke-linecap="round" stroke-linejoin="round" stroke-width="3.000000"
	d="
M100.000000,155.000000 
	C98.923050,156.698135 98.985016,158.591980 98.989594,160.500031 
	C99.012375,169.999969 99.000000,179.500000 99.000000,189.000000 
"/>
<path fill="none" opacity="1.000000" stroke="#000000" stroke-linecap="round" stroke-linejoin="round" stroke-width="3.000000"
	d="
M116.500000,65.500000 
	C116.500000,70.166664 116.260689,74.850830 116.600044,79.492683 
	C116.772057,81.845558 116.635437,83.662064 115.047966,85.540535 
	C112.666229,88.358841 111.805367,91.764091 111.972115,95.501244 
	C112.276764,102.329231 111.544876,109.185898 112.500000,116.000000 
"/>
<path fill="none" opacity="1.000000" stroke="#000000" stroke-linecap="round" stroke-linejoin="round" stroke-width="2.000000"
	d="
M182.500000,162.500000 
	C180.166672,161.484772 177.833328,162.261215 175.077652,161.846008 
	C176.217331,170.154694 174.656662,177.858917 176.000000,185.500000 
"/>
<path fill="none" opacity="1.000000" stroke="#000000" stroke-linecap="round" stroke-linejoin="round" stroke-width="2.000000"
	d="
M160.000000,25.500000 
	C154.233826,26.435713 149.673645,28.959248 148.018997,35.005199 
	C146.479691,40.629700 149.677689,47.559307 155.992355,49.524567 
	C162.158585,51.443634 169.164841,48.128574 171.499985,41.999996 
	C173.620102,36.435841 170.472061,29.662384 164.495041,27.011164 
	C163.195602,26.434776 161.833328,26.000000 160.500000,25.500000 
"/>
<path fill="none" opacity="1.000000" stroke="#000000" stroke-linecap="round" stroke-linejoin="round" stroke-width="3.000000"
	d="
M61.500000,105.500000 
	C62.793991,115.362267 65.088951,125.000175 68.000000,134.500000 
"/>
<path fill="none" opacity="1.000000" stroke="#000000" stroke-linecap="round" stroke-linejoin="round" stroke-width="2.000000"
	d="
M126.500000,159.000000 
	C126.500000,168.833328 126.479530,178.666733 126.509109,188.499969 
	C126.522812,193.054611 127.918129,194.238876 132.501282,194.027985 
	C134.317474,193.944412 135.834763,193.959076 136.048218,191.504196 
	C136.259171,189.077972 134.970154,187.710831 132.994583,187.585022 
	C128.678757,187.310181 124.321251,187.310181 120.005417,187.585022 
	C118.029854,187.710831 116.740822,189.077988 116.951782,191.504196 
	C117.165230,193.959076 118.678375,194.120728 120.499344,193.990784 
	C122.423302,193.853455 124.633377,194.711273 126.000000,192.500000 
"/>
<path fill="none" opacity="1.000000" stroke="#000000" stroke-linecap="round" stroke-linejoin="round" stroke-width="3.000000"
	d="
M184.500000,161.000000 
	C182.604141,162.034714 183.009460,163.845490 183.005051,165.500015 
	C182.991272,170.666641 182.965698,175.833618 183.009750,180.999924 
	C183.052841,186.053482 183.774597,187.375107 177.000000,187.000000 
"/>
<path fill="none" opacity="1.000000" stroke="#000000" stroke-linecap="round" stroke-linejoin="round" stroke-width="2.000000"
	d="
M43.000000,191.500000 
	C45.539219,194.240189 48.592766,194.354034 52.013191,193.556580 
	C54.094509,193.071350 54.981102,192.094772 55.028542,190.000641 
	C55.078815,187.781418 53.771114,186.230484 51.992554,186.121155 
	C48.854305,185.928253 45.221733,184.864899 43.000000,188.500000 
"/>
<path fill="none" opacity="1.000000" stroke="#000000" stroke-linecap="round" stroke-linejoin="round" stroke-width="2.000000"
	d="
M42.000000,188.500000 
	C39.650162,184.562714 35.767628,186.087860 32.505497,186.184845 
	C31.433434,186.216721 29.493980,187.963699 30.048851,189.986603 
	C30.466322,191.508560 30.612066,193.162170 32.981121,193.601746 
	C36.433159,194.242233 39.518291,194.498978 42.000000,191.500000 
"/>
<path fill="none" opacity="1.000000" stroke="#000000" stroke-linecap="round" stroke-linejoin="round" stroke-width="2.000000"
	d="
M119.500000,159.000000 
	C119.500000,166.500000 119.515152,174.000046 119.489494,181.499969 
	C119.482964,183.408066 119.423050,185.301865 120.500000,187.000000 
"/>
<path fill="none" opacity="1.000000" stroke="#000000" stroke-linecap="round" stroke-linejoin="round" stroke-width="2.000000"
	d="
M133.500000,159.000000 
	C133.500000,166.500000 133.484833,174.000046 133.510498,181.499969 
	C133.517029,183.408066 133.576950,185.301865 132.500000,187.000000 
"/>
<path fill="none" opacity="1.000000" stroke="#000000" stroke-linecap="round" stroke-linejoin="round" stroke-width="2.000000"
	d="
M143.000000,124.500000 
	C145.500000,131.000000 147.672531,137.655273 150.647842,143.929901 
	C151.993805,146.768402 148.904526,147.845200 149.500000,150.000000 
"/>
<path fill="none" opacity="1.000000" stroke="#000000" stroke-linecap="round" stroke-linejoin="round" stroke-width="3.000000"
	d="
M196.000000,127.500000 
	C196.333344,132.333328 197.646545,137.354431 196.765030,141.954971 
	C195.515198,148.477631 197.227295,155.160065 195.000000,161.500000 
"/>
<path fill="none" opacity="1.000000" stroke="#000000" stroke-linecap="round" stroke-linejoin="round" stroke-width="2.000000"
	d="
M10.500000,136.000000 
	C7.624523,137.702560 7.760780,140.832184 7.040911,143.510986 
	C6.608985,145.118301 7.137501,146.560211 9.003639,146.983978 
	C10.465157,147.315857 12.594525,146.931732 12.845825,145.960129 
	C13.636868,142.901703 16.366467,139.666672 13.000000,136.500000 
"/>
<path fill="none" opacity="1.000000" stroke="#000000" stroke-linecap="round" stroke-linejoin="round" stroke-width="2.000000"
	d="
M35.000000,56.500000 
	C27.245586,62.153313 24.929968,70.552719 33.000000,81.000000 
"/>
<path fill="none" opacity="1.000000" stroke="#000000" stroke-linecap="round" stroke-linejoin="round" stroke-width="2.000000"
	d="
M50.000000,56.500000 
	C58.702507,62.536968 59.652306,72.535408 52.000000,81.000000 
"/>
<path fill="none" opacity="1.000000" stroke="#000000" stroke-linecap="round" stroke-linejoin="round" stroke-width="3.000000"
	d="
M154.000000,50.000000 
	C154.000000,56.629887 154.140884,57.286533 146.962784,58.826530 
	C138.793320,60.579212 135.686096,65.065407 135.907425,73.002579 
	C135.985977,75.819786 135.000000,78.666664 134.500000,81.500000 
"/>
<path fill="none" opacity="1.000000" stroke="#000000" stroke-linecap="round" stroke-linejoin="round" stroke-width="5.000000"
	d="
M174.500015,127.500000 
	C174.000015,134.000000 173.507645,140.500595 172.994766,146.999588 
	C172.863022,148.669022 172.666656,150.333328 172.500000,152.000000 
"/>
<path fill="none" opacity="1.000000" stroke="#000000" stroke-linecap="round" stroke-linejoin="round" stroke-width="3.000000"
	d="
M99.000000,117.500000 
	C99.000000,125.500000 99.000000,133.500000 99.000000,141.500000 
"/>
<path fill="none" opacity="1.000000" stroke="#000000" stroke-linecap="round" stroke-linejoin="round" stroke-width="3.000000"
	d="
M159.000000,188.500000 
	C156.748657,185.784912 153.681900,187.159088 150.997818,187.101425 
	C149.158051,187.061905 149.026764,188.844757 148.943283,190.497131 
	C148.825684,192.825211 150.509720,193.697281 152.014328,193.885483 
	C154.371460,194.180374 157.011017,194.606979 159.000000,192.500000 
"/>
<path fill="none" opacity="1.000000" stroke="#000000" stroke-linecap="round" stroke-linejoin="round" stroke-width="2.000000"
	d="
M161.000000,192.500000 
	C162.926880,194.039062 165.293793,194.021683 167.496094,193.917404 
	C169.654327,193.815216 170.984985,192.448059 171.034164,190.000687 
	C171.086456,187.398285 169.672440,186.766983 167.501663,187.014618 
	C165.285675,187.267426 162.709900,186.020691 161.000000,188.500000 
"/>
<path fill="none" opacity="1.000000" stroke="#000000" stroke-linecap="round" stroke-linejoin="round" stroke-width="2.000000"
	d="
M226.000000,67.000000 
	C228.469284,63.863369 231.668350,61.046700 232.387299,56.980076 
	C232.881241,54.186153 232.893326,51.481174 230.132339,48.860565 
	C224.843628,43.840755 219.363358,40.909908 212.028793,42.987911 
	C209.784088,41.953030 212.215912,39.046970 209.975769,38.014187 
	C198.406387,44.786270 197.321320,57.373180 207.500000,67.000000 
"/>
<path fill="none" opacity="1.000000" stroke="#000000" stroke-linecap="round" stroke-linejoin="round" stroke-width="2.000000"
	d="
M22.000000,117.500000 
	C19.816771,121.204193 20.011738,125.505478 19.055092,129.513153 
	C17.757544,134.948959 17.923813,134.988647 11.500000,134.500000 
"/>
<path fill="none" opacity="1.000000" stroke="#000000" stroke-linecap="round" stroke-linejoin="round" stroke-width="3.000000"
	d="
M171.000000,100.000000 
	C163.666672,100.000000 156.333328,100.000000 149.000000,100.000000 
"/>
<path fill="none" opacity="1.000000" stroke="#000000" stroke-linecap="round" stroke-linejoin="round" stroke-width="3.000000"
	d="
M32.000000,171.000000 
	C33.260059,174.752747 31.832420,178.739212 32.883667,182.750000 
	C39.500000,182.750000 46.000000,182.750000 53.000000,182.750000 
	C53.000000,178.681152 53.000000,174.840576 53.000000,171.000000 
"/>
<path fill="none" opacity="1.000000" stroke="#000000" stroke-linecap="round" stroke-linejoin="round" stroke-width="3.000000"
	d="
M112.500000,186.000000 
	C115.389191,191.223480 114.131485,193.748398 108.499855,193.996735 
	C105.133148,194.145203 101.822304,194.122025 100.000000,190.500000 
"/>
<path fill="none" opacity="1.000000" stroke="#000000" stroke-linecap="round" stroke-linejoin="round" stroke-width="3.000000"
	d="
M85.500000,186.000000 
	C82.610809,191.223465 83.868515,193.748398 89.500145,193.996735 
	C92.866852,194.145203 96.177696,194.122025 98.000000,190.500000 
"/>
<path fill="none" opacity="1.000000" stroke="#000000" stroke-linecap="round" stroke-linejoin="round" stroke-width="2.000000"
	d="
M193.500000,117.000000 
	C199.229752,118.957947 201.478760,122.819275 201.677719,128.994278 
	C201.893341,135.686218 203.255829,142.385468 204.661118,148.965591 
	C205.041672,150.747528 203.368439,150.100891 203.500000,151.000000 
"/>
<path fill="none" opacity="1.000000" stroke="#000000" stroke-linecap="round" stroke-linejoin="round" stroke-width="2.000000"
	d="
M105.000000,44.000000 
	C106.359039,49.775654 102.775467,54.624271 101.996590,59.999508 
	C101.684067,62.156361 100.259293,64.225075 101.500000,66.500000 
"/>
<path fill="none" opacity="1.000000" stroke="#000000" stroke-linecap="round" stroke-linejoin="round" stroke-width="3.000000"
	d="
M145.000000,85.500000 
	C149.919403,96.166664 147.017624,106.818764 145.037338,117.506920 
	C144.203842,122.005539 140.870255,124.542511 138.408447,126.490776 
	C138.489075,131.364227 140.466537,134.717560 140.327957,139.010590 
	C140.175339,143.738510 140.822021,148.910385 143.000000,153.500000 
"/>
<path fill="none" opacity="1.000000" stroke="#000000" stroke-linecap="round" stroke-linejoin="round" stroke-width="2.000000"
	d="
M96.000000,19.500000 
	C95.916695,22.583307 98.835251,22.664751 100.230255,24.230537 
	C101.161446,23.328115 101.838577,22.671911 102.708183,21.829182 
	C106.043083,23.695614 108.075607,27.103197 111.000000,29.500000 
"/>
<path fill="none" opacity="1.000000" stroke="#000000" stroke-linecap="round" stroke-linejoin="round" stroke-width="4.000000"
	d="
M225.500000,61.500000 
	C219.500000,59.121487 213.500000,59.192833 207.500000,61.500000 
"/>
<path fill="none" opacity="1.000000" stroke="#000000" stroke-linecap="round" stroke-linejoin="round" stroke-width="2.000000"
	d="
M188.500000,188.000000 
	C186.705521,189.374435 186.083206,191.426605 187.597031,192.900314 
	C189.259766,194.518936 191.871750,194.763199 193.963928,193.442841 
	C196.192688,192.036331 196.199997,190.003036 194.500000,188.000000 
"/>
<path fill="none" opacity="1.000000" stroke="#000000" stroke-linecap="round" stroke-linejoin="round" stroke-width="2.000000"
	d="
M61.000000,159.000000 
	C64.648186,157.224991 68.202286,155.615768 72.487244,155.317032 
	C76.341934,155.048309 78.350151,151.224258 79.342033,147.952118 
	C80.493614,144.153122 77.995140,141.523880 74.500000,140.000000 
"/>
<path fill="none" opacity="1.000000" stroke="#000000" stroke-linecap="round" stroke-linejoin="round" stroke-width="2.000000"
	d="
M79.000000,93.500000 
	C77.318420,97.352303 78.053200,101.520180 77.660690,105.515785 
	C77.349449,108.684189 75.671623,108.791374 73.500000,109.000000 
"/>
<path fill="none" opacity="1.000000" stroke="#000000" stroke-linecap="round" stroke-linejoin="round" stroke-width="3.000000"
	d="
M69.500000,140.000000 
	C64.335052,145.603134 64.467926,147.596191 70.500000,155.000000 
"/>
<path fill="none" opacity="1.000000" stroke="#000000" stroke-linecap="round" stroke-linejoin="round" stroke-width="2.000000"
	d="
M197.000000,103.500000 
	C197.831375,108.500000 197.831375,113.500000 197.000000,118.500000 
"/>
<path fill="none" opacity="1.000000" stroke="#000000" stroke-linecap="round" stroke-linejoin="round" stroke-width="2.000000"
	d="
M141.000000,137.500000 
	C142.651077,138.082565 143.105011,139.717438 143.422592,141.018890 
	C144.439087,145.184448 145.706558,149.036697 149.993195,151.014740 
	C150.862198,151.415726 150.399307,152.316833 150.500000,153.000000 
"/>
<path fill="none" opacity="1.000000" stroke="#000000" stroke-linecap="round" stroke-linejoin="round" stroke-width="2.000000"
	d="
M97.000000,154.000000 
	C96.606140,151.175613 95.211075,150.389404 92.484337,151.460114 
	C89.890419,152.478699 87.038330,152.892929 84.531891,154.068024 
	C81.264687,155.599808 78.072792,156.596390 74.500000,155.500000 
"/>
<path fill="none" opacity="1.000000" stroke="#000000" stroke-linecap="round" stroke-linejoin="round" stroke-width="2.000000"
	d="
M112.000000,137.500000 
	C109.521408,138.960251 109.498566,141.783737 108.586197,144.034927 
	C107.669289,146.297302 107.430496,148.828247 104.500000,149.500000 
"/>
<path fill="none" opacity="1.000000" stroke="#000000" stroke-linecap="round" stroke-linejoin="round" stroke-width="2.000000"
	d="
M211.500000,38.000000 
	C220.864441,34.269314 231.767807,40.538746 231.500000,49.500000 
"/>
<path fill="none" opacity="1.000000" stroke="#000000" stroke-linecap="round" stroke-linejoin="round" stroke-width="3.000000"
	d="
M190.500000,113.500000 
	C188.048965,110.833611 184.634171,113.628555 182.014023,111.991768 
	C180.342728,113.042252 181.616165,115.712685 179.500000,116.500000 
"/>
<path fill="none" opacity="1.000000" stroke="#000000" stroke-linecap="round" stroke-linejoin="round" stroke-width="2.000000"
	d="
M148.000000,60.000004 
	C151.666672,63.833336 155.357651,67.643867 158.985535,71.513565 
	C160.108063,72.710915 160.385345,71.374718 161.000000,71.000000 
"/>
<path fill="none" opacity="1.000000" stroke="#000000" stroke-linecap="round" stroke-linejoin="round" stroke-width="2.000000"
	d="
M173.999985,87.500000 
	C173.499985,90.000000 172.882767,92.483414 172.526062,95.003693 
	C171.912781,99.336723 169.939163,103.812202 175.853760,106.790436 
	C177.302078,107.519722 179.166840,110.030159 180.500000,112.000000 
"/>
<path fill="none" opacity="1.000000" stroke="#000000" stroke-linecap="round" stroke-linejoin="round" stroke-width="3.000000"
	d="
M197.500000,92.500000 
	C197.010757,95.358200 197.119965,98.440819 194.352997,100.921173 
	C191.075241,97.955864 187.194061,96.578125 182.561569,95.922676 
	C180.508698,98.176704 179.239182,101.688347 175.515717,102.566597 
	C174.483704,102.810028 175.168228,104.166977 175.000000,105.000000 
"/>
<path fill="none" opacity="1.000000" stroke="#000000" stroke-linecap="round" stroke-linejoin="round" stroke-width="3.000000"
	d="
M165.000000,50.000000 
	C163.471085,55.669033 167.812775,57.098183 171.500000,59.000000 
"/>
<path fill="none" opacity="1.000000" stroke="#000000" stroke-linecap="round" stroke-linejoin="round" stroke-width="2.000000"
	d="
M86.500000,30.500000 
	C85.806938,35.657928 88.349419,39.332909 92.000000,42.500000 
"/>
<path fill="none" opacity="1.000000" stroke="#000000" stroke-linecap="round" stroke-linejoin="round" stroke-width="2.000000"
	d="
M42.500000,171.000000 
	C42.500000,174.833328 42.500000,178.666672 42.500000,182.500000 
"/>
<path fill="none" opacity="1.000000" stroke="#000000" stroke-linecap="round" stroke-linejoin="round" stroke-width="3.000000"
	d="
M247.500000,118.000000 
	C245.169083,121.143433 246.091217,125.049911 245.162689,128.543243 
	C244.644150,130.494095 243.920944,130.567856 242.500000,130.500000 
"/>
<path fill="none" opacity="1.000000" stroke="#000000" stroke-linecap="round" stroke-linejoin="round" stroke-width="2.000000"
	d="
M141.000000,90.500000 
	C138.770416,87.111488 137.205368,83.353699 133.050766,81.392471 
	C128.913986,79.439659 125.100204,79.343605 120.985031,80.961945 
	C119.917870,81.381622 118.666664,81.333328 117.500000,81.500000 
"/>
<path fill="none" opacity="1.000000" stroke="#000000" stroke-linecap="round" stroke-linejoin="round" stroke-width="2.000000"
	d="
M173.000000,106.500000 
	C173.385788,110.106560 173.962921,113.667557 175.500000,117.000000 
"/>
<path fill="none" opacity="1.000000" stroke="#000000" stroke-linecap="round" stroke-linejoin="round" stroke-width="6.000000"
	d="
M196.000000,103.500000 
	C194.926224,107.659836 190.908188,110.715576 191.500000,115.500000 
"/>
<path fill="none" opacity="1.000000" stroke="#000000" stroke-linecap="round" stroke-linejoin="round" stroke-width="3.000000"
	d="
M23.500002,106.500000 
	C23.166668,109.833336 22.833334,113.166664 22.500002,116.500000 
"/>
<path fill="none" opacity="1.000000" stroke="#000000" stroke-linecap="round" stroke-linejoin="round" stroke-width="2.000000"
	d="
M84.000000,49.000000 
	C86.419678,51.351910 85.498222,56.209667 90.000000,57.000000 
	C87.785210,63.212330 93.840149,64.305305 96.500000,67.500000 
"/>
<path fill="none" opacity="1.000000" stroke="#000000" stroke-linecap="round" stroke-linejoin="round" stroke-width="2.000000"
	d="
M210.500000,43.000000 
	C207.028900,44.558907 205.162674,48.066574 202.000000,50.000000 
"/>
<path fill="none" opacity="1.000000" stroke="#000000" stroke-linecap="round" stroke-linejoin="round" stroke-width="2.000000"
	d="
M95.500000,22.000000 
	C93.367920,25.294750 89.323227,26.421879 87.000000,29.500000 
"/>
<path fill="none" opacity="1.000000" stroke="#000000" stroke-linecap="round" stroke-linejoin="round" stroke-width="3.000000"
	d="
M175.500000,77.500000 
	C173.932175,80.250916 176.392319,83.238762 175.000000,86.000000 
"/>
<path fill="none" opacity="1.000000" stroke="#000000" stroke-linecap="round" stroke-linejoin="round" stroke-width="2.000000"
	d="
M175.500000,102.000000 
	C174.028137,97.514069 176.583527,94.964050 180.015442,93.027351 
	C184.323212,90.596382 188.573990,90.986664 191.978470,94.024139 
	C193.114807,95.037987 194.000000,96.333336 195.000000,97.500000 
"/>
<path fill="none" opacity="1.000000" stroke="#000000" stroke-linecap="round" stroke-linejoin="round" stroke-width="3.000000"
	d="
M98.500000,143.500000 
	C99.770699,146.022156 97.979576,149.118408 100.000000,151.500000 
"/>
<path fill="none" opacity="1.000000" stroke="#000000" stroke-linecap="round" stroke-linejoin="round" stroke-width="3.000000"
	d="
M152.000000,154.000000 
	C157.166672,154.000000 162.333328,154.000000 167.500000,154.000000 
"/>
<path fill="none" opacity="1.000000" stroke="#000000" stroke-linecap="round" stroke-linejoin="round" stroke-width="2.000000"
	d="
M119.000015,113.499985 
	C121.500015,115.999985 124.000015,118.499985 126.499985,120.999969 
	C128.999954,118.499962 131.499954,115.999962 133.999954,113.499962 
"/>
<path fill="none" opacity="1.000000" stroke="#000000" stroke-linecap="round" stroke-linejoin="round" stroke-width="2.000000"
	d="
M174.000000,154.000000 
	C174.333344,156.500000 174.666672,159.000000 175.000000,161.500000 
"/>
<path fill="none" opacity="1.000000" stroke="#000000" stroke-linecap="round" stroke-linejoin="round" stroke-width="3.000000"
	d="
M144.000000,77.500000 
	C144.166656,79.833336 144.333328,82.166664 144.500000,84.500000 
"/>
<path fill="none" opacity="1.000000" stroke="#000000" stroke-linecap="round" stroke-linejoin="round" stroke-width="3.000000"
	d="
M160.000000,18.500000 
	C160.000000,20.666666 160.000000,22.833334 160.000000,25.000000 
"/>
<path fill="none" opacity="1.000000" stroke="#000000" stroke-linecap="round" stroke-linejoin="round" stroke-width="2.000000"
	d="
M182.000000,188.500000 
	C183.583939,190.166672 183.832520,192.703506 181.927887,193.247589 
	C180.135895,193.759506 177.555206,195.047256 175.489609,193.010544 
	C173.528915,191.077286 174.579559,189.541290 176.000000,188.000000 
"/>
<path fill="none" opacity="1.000000" stroke="#000000" stroke-linecap="round" stroke-linejoin="round" stroke-width="2.000000"
	d="
M176.000000,87.500000 
	C176.500000,89.666664 177.000000,91.833336 177.500000,94.000000 
"/>
<path fill="none" opacity="1.000000" stroke="#000000" stroke-linecap="round" stroke-linejoin="round" stroke-width="2.000000"
	d="
M198.000000,145.500000 
	C199.013992,147.251221 198.160217,149.851410 200.500000,151.000000 
"/>
<path fill="none" opacity="1.000000" stroke="#000000" stroke-linecap="round" stroke-linejoin="round" stroke-width="3.000000"
	d="
M131.000000,108.000000 
	C130.681152,110.988419 133.139145,111.736450 134.993317,113.009720 
	C137.852005,114.972794 140.666672,117.000000 143.500000,119.000000 
"/>
<path fill="none" opacity="1.000000" stroke="#000000" stroke-linecap="round" stroke-linejoin="round" stroke-width="2.000000"
	d="
M111.500000,48.000000 
	C109.738884,47.269474 108.118774,45.763401 106.000000,47.000000 
"/>
<path fill="none" opacity="1.000000" stroke="#000000" stroke-linecap="round" stroke-linejoin="round" stroke-width="2.000000"
	d="
M246.000000,129.000000 
	C249.496216,130.159103 252.078873,129.491074 253.000000,125.500000 
"/>
<path fill="none" opacity="1.000000" stroke="#000000" stroke-linecap="round" stroke-linejoin="round" stroke-width="2.000000"
	d="
M222.500000,39.000000 
	C222.233810,40.152451 223.074142,41.462975 222.000000,42.500000 
"/>
<path fill="none" opacity="1.000000" stroke="#000000" stroke-linecap="round" stroke-linejoin="round" stroke-width="2.000000"
	d="
M221.000000,186.000000 
	C218.103104,186.895355 218.114380,189.332870 218.586533,191.480972 
	C219.120712,193.911255 221.405991,193.942276 223.499161,194.021881 
	C226.062607,194.119339 228.485275,193.834824 229.968216,191.479980 
	C231.109177,189.668213 229.010849,186.358856 226.495010,186.039276 
	C224.854813,185.830917 223.166672,186.000000 221.500000,186.000000 
"/>
<path fill="none" opacity="1.000000" stroke="#000000" stroke-linecap="round" stroke-linejoin="round" stroke-width="2.000000"
	d="
M206.000000,186.000000 
	C203.103104,186.895355 203.114365,189.332886 203.586517,191.480988 
	C204.120712,193.911255 206.405991,193.942276 208.499161,194.021881 
	C211.062607,194.119339 213.485260,193.834808 214.968216,191.479980 
	C216.109177,189.668213 214.010849,186.358841 211.495010,186.039261 
	C209.854813,185.830917 208.166672,186.000000 206.500000,186.000000 
"/>
</svg>