<svg version="1.1" id="Layer_1" xmlns="http://www.w3.org/2000/svg" xmlns:xlink="http://www.w3.org/1999/xlink" x="0px" y="0px"
	 width="100%" viewBox="0 0 759 767" enable-background="new 0 0 759 767" xml:space="preserve">
<path fill="#203B8B" opacity="1.000000" stroke="none" 
	d="
M760.000000,407.000000 
	C760.000000,527.316406 760.000000,647.632874 760.000000,767.974609 
	C507.052429,767.974609 254.104858,767.974609 1.078640,767.974609 
	C1.078640,512.421692 1.078640,256.843323 1.078640,1.132494 
	C253.876083,1.132494 506.752258,1.132494 760.000000,1.132494 
	C760.000000,122.025574 760.000000,243.051529 759.691528,364.544250 
	C758.972412,364.987030 758.561829,364.963104 758.112000,364.478027 
	C757.955261,359.853363 758.089600,355.665100 757.683228,351.529968 
	C749.190002,265.112579 715.596191,189.806747 655.973572,126.745125 
	C559.247314,24.439533 417.641357,-15.158459 281.634369,21.083130 
	C99.907173,69.507721 -20.186174,249.398331 5.560947,435.718170 
	C20.387142,543.008423 72.241508,628.856995 159.196381,693.236938 
	C198.312592,722.197937 241.922028,742.072266 289.458862,753.845825 
	C291.404846,755.069580 293.061157,756.491516 294.942871,756.917236 
	C327.541626,764.291626 360.614655,766.166138 393.897278,764.796143 
	C402.113953,764.457947 410.280060,762.891479 418.877502,761.937622 
	C433.567169,760.023438 448.146027,759.287720 462.083984,755.908386 
	C595.855713,723.475037 687.552856,642.724792 736.977844,514.334290 
	C750.233948,479.899078 756.513367,443.788239 759.156006,407.006989 
	C759.624939,407.007782 759.812500,407.003876 760.000000,407.000000 
z"/>
<path fill="#6073AA" opacity="1.000000" stroke="none" 
	d="
M760.000000,406.531342 
	C759.812500,407.003876 759.624939,407.007782 758.962769,406.704834 
	C758.375854,392.578369 758.263550,378.758759 758.151245,364.939148 
	C758.561829,364.963104 758.972412,364.987030 759.691528,365.005493 
	C760.000000,378.687561 760.000000,392.375122 760.000000,406.531342 
z"/>
<path fill="#F3F4F6" opacity="1.000000" stroke="none" 
	d="
M758.112000,364.478027 
	C758.263550,378.758759 758.375854,392.578369 758.681396,406.700134 
	C756.513367,443.788239 750.233948,479.899078 736.977844,514.334290 
	C687.552856,642.724792 595.855713,723.475037 462.083984,755.908386 
	C448.146027,759.287720 433.567169,760.023438 418.886597,761.468140 
	C418.487579,650.377625 418.487579,539.804688 418.487579,428.858276 
	C448.394226,428.858276 477.666260,428.858276 507.154175,428.858276 
	C507.154175,399.936615 507.154175,371.390442 507.154175,342.216675 
	C477.436859,342.216675 448.059021,342.216675 418.504517,342.216675 
	C418.504517,332.928497 418.167938,324.250916 418.601196,315.611938 
	C419.016754,307.324768 419.595551,298.949554 421.231049,290.840607 
	C424.287231,275.687683 433.695648,266.239746 448.953735,262.821259 
	C463.652252,259.528137 478.470459,261.085602 493.253082,261.696075 
	C500.313202,261.987610 507.352783,262.776337 514.460938,263.344604 
	C514.460938,230.870789 514.460938,199.141022 514.460938,167.308868 
	C505.487946,166.671051 496.863770,166.055283 488.239197,165.445465 
	C460.287415,163.469070 432.353516,162.295288 404.526855,167.043442 
	C384.826080,170.405045 365.903625,176.184128 349.141479,187.255447 
	C314.870514,209.891327 296.137238,242.467987 291.451599,282.788849 
	C289.402802,300.419434 290.085754,318.367950 289.544800,336.172607 
	C289.485535,338.124115 289.536804,340.078979 289.536804,342.577515 
	C263.571503,342.577515 238.164688,342.577515 212.597015,342.577515 
	C212.597015,371.539886 212.597015,399.951508 212.597015,428.837524 
	C238.263626,428.837524 263.672119,428.837524 289.527344,428.837524 
	C289.527344,430.914886 289.527344,432.537384 289.527344,434.159882 
	C289.527405,538.974182 289.528625,643.788513 289.516998,748.602844 
	C289.516815,750.262085 289.358582,751.921265 289.274109,753.580505 
	C241.922028,742.072266 198.312592,722.197937 159.196381,693.236938 
	C72.241508,628.856995 20.387142,543.008423 5.560947,435.718170 
	C-20.186174,249.398331 99.907173,69.507721 281.634369,21.083130 
	C417.641357,-15.158459 559.247314,24.439533 655.973572,126.745125 
	C715.596191,189.806747 749.190002,265.112579 757.683228,351.529968 
	C758.089600,355.665100 757.955261,359.853363 758.112000,364.478027 
z"/>
<path fill="#010101" opacity="1.000000" stroke="none" 
	d="
M289.458862,753.845825 
	C289.358582,751.921265 289.516815,750.262085 289.516998,748.602844 
	C289.528625,643.788513 289.527405,538.974182 289.527344,434.159882 
	C289.527344,432.537384 289.527344,430.914886 289.527344,428.837524 
	C263.672119,428.837524 238.263626,428.837524 212.597015,428.837524 
	C212.597015,399.951508 212.597015,371.539886 212.597015,342.577515 
	C238.164688,342.577515 263.571503,342.577515 289.536804,342.577515 
	C289.536804,340.078979 289.485535,338.124115 289.544800,336.172607 
	C290.085754,318.367950 289.402802,300.419434 291.451599,282.788849 
	C296.137238,242.467987 314.870514,209.891327 349.141479,187.255447 
	C365.903625,176.184128 384.826080,170.405045 404.526855,167.043442 
	C432.353516,162.295288 460.287415,163.469070 488.239197,165.445465 
	C496.863770,166.055283 505.487946,166.671051 514.460938,167.308868 
	C514.460938,199.141022 514.460938,230.870789 514.460938,263.344604 
	C507.352783,262.776337 500.313202,261.987610 493.253082,261.696075 
	C478.470459,261.085602 463.652252,259.528137 448.953735,262.821259 
	C433.695648,266.239746 424.287231,275.687683 421.231049,290.840607 
	C419.595551,298.949554 419.016754,307.324768 418.601196,315.611938 
	C418.167938,324.250916 418.504517,332.928497 418.504517,342.216675 
	C448.059021,342.216675 477.436859,342.216675 507.154175,342.216675 
	C507.154175,371.390442 507.154175,399.936615 507.154175,428.858276 
	C477.666260,428.858276 448.394226,428.858276 418.487579,428.858276 
	C418.487579,539.804688 418.487579,650.377625 418.478485,761.420044 
	C410.280060,762.891479 402.113953,764.457947 393.897278,764.796143 
	C360.614655,766.166138 327.541626,764.291626 294.942871,756.917236 
	C293.061157,756.491516 291.404846,755.069580 289.458862,753.845825 
z"/>
</svg>