<svg version="1.1" id="Layer_1" xmlns="http://www.w3.org/2000/svg" xmlns:xlink="http://www.w3.org/1999/xlink" x="0px" y="0px"
	 width="100%" viewBox="0 0 208 144" enable-background="new 0 0 208 144" xml:space="preserve">
<path fill="#000000" opacity="1.000000" stroke="none" 
	d="
M161.468643,145.000000 
	C163.135696,136.284668 165.223999,127.557289 167.433182,118.860619 
	C168.191299,115.876213 167.851700,113.922546 165.038254,111.747803 
	C155.980026,104.745956 156.715439,92.780907 166.402222,86.677666 
	C168.862976,85.127258 169.780167,83.450058 169.709000,80.646301 
	C169.527283,73.487923 169.592072,66.323433 169.514420,59.161861 
	C169.509705,58.727093 169.122437,58.296467 168.602737,57.222309 
	C161.580994,59.513790 154.528488,61.782822 147.497864,64.117767 
	C138.335495,67.160675 129.093689,70.000618 120.073334,73.421661 
	C114.417015,75.566864 109.261017,75.343887 103.618263,73.394272 
	C88.994606,68.341698 74.225227,63.710537 59.508156,58.929199 
	C57.953434,58.424099 56.359772,58.038876 54.824627,57.609352 
	C52.999737,59.515060 54.002796,61.604805 53.984638,63.477989 
	C53.889355,73.306961 54.037037,83.138809 53.888245,92.966454 
	C53.839893,96.160217 54.960793,98.215675 57.627510,99.957283 
	C85.503044,118.162498 115.117332,121.116661 146.350540,110.284981 
	C148.080231,109.685127 149.765900,108.959526 151.482498,108.320518 
	C154.092194,107.349052 156.516220,107.329254 157.791214,110.300186 
	C159.177826,113.531174 157.330505,115.270721 154.584747,116.483139 
	C145.699677,120.406471 136.415680,123.026917 126.814568,124.253738 
	C98.502472,127.871429 72.662865,121.445679 49.348610,104.857101 
	C46.147724,102.579597 44.812309,99.867676 44.842010,96.036797 
	C44.936302,83.874908 44.700363,71.708084 44.963432,59.551208 
	C45.052784,55.422127 43.463432,53.535557 39.717335,52.450096 
	C33.006992,50.505722 26.382551,48.264088 19.727327,46.130737 
	C17.289486,45.349281 14.864743,44.484943 14.818391,41.302483 
	C14.771333,38.071400 17.270288,37.245865 19.660982,36.427078 
	C48.947289,26.396826 78.246033,16.402803 107.519165,6.334300 
	C110.317528,5.371803 112.964951,5.142077 115.793434,6.089411 
	C145.461624,16.026043 175.143799,25.920866 204.810486,35.861950 
	C206.057373,36.279778 207.190262,37.037727 208.688141,37.818611 
	C209.000000,39.388889 209.000000,40.777779 208.682892,42.762623 
	C200.124573,46.917915 191.524551,49.462418 182.996597,52.189838 
	C179.685852,53.248680 178.100662,54.870518 178.225769,58.575050 
	C178.478210,66.049263 178.344299,73.538010 178.290573,81.020195 
	C178.274002,83.325394 178.777481,84.939766 180.995544,86.343971 
	C191.498810,92.993378 192.139313,104.760323 182.255493,112.200668 
	C179.636581,114.172127 179.642868,115.851585 180.325714,118.465042 
	C182.631210,127.288933 184.786987,136.151947 187.000000,145.000000 
	C178.645767,145.000000 170.291534,145.000000 161.468643,145.000000 
M41.554943,38.210083 
	C39.107227,39.054665 36.659512,39.899246 33.643620,40.939877 
	C34.760834,41.591309 35.260277,42.012127 35.835720,42.199413 
	C60.510597,50.230087 85.193604,58.235771 109.870010,66.261742 
	C111.558723,66.810997 113.101685,66.497307 114.731537,65.950958 
	C125.145393,62.460083 135.591110,59.064133 146.001480,55.563084 
	C148.523987,54.714760 150.953308,53.589336 153.425461,52.591335 
	C140.053513,49.476791 126.954117,47.384766 113.890221,45.090645 
	C110.890106,44.563808 107.030731,44.141220 107.923576,39.493160 
	C108.660240,35.658157 111.541992,36.037964 114.596375,36.548294 
	C131.632660,39.394703 148.782196,41.654362 165.704788,45.052132 
	C174.330460,46.784019 181.251633,43.791405 189.243896,40.436451 
	C187.819656,39.638424 187.036346,39.024216 186.147079,38.726822 
	C162.327835,30.761011 138.493622,22.839880 114.676674,14.867206 
	C112.656158,14.190843 110.812218,14.361156 108.845886,15.041072 
	C86.672058,22.708342 64.483902,30.334196 41.554943,38.210083 
M169.785660,95.351593 
	C166.498734,99.780548 167.425903,103.914841 172.000839,104.790962 
	C174.916565,105.349342 177.456451,104.890297 179.260818,101.957932 
	C180.668045,99.671005 180.286423,97.824890 178.686371,96.136887 
	C176.290482,93.609367 173.513504,92.613937 169.785660,95.351593 
M174.234756,136.786652 
	C170.401276,137.953323 170.880859,140.651550 171.872818,143.554993 
	C172.231995,141.040131 178.765808,141.308487 174.234756,136.786652 
z"/>
</svg>