<svg version="1.1" id="Layer_1" xmlns="http://www.w3.org/2000/svg" xmlns:xlink="http://www.w3.org/1999/xlink" x="0px" y="0px"
	 width="100%" viewBox="0 0 206 177" enable-background="new 0 0 206 177" xml:space="preserve">
<path fill="#FDFDFD" opacity="1.000000" stroke="none" 
	d="
M118.000000,178.000000 
	C78.692032,178.000000 39.884056,178.000000 1.038042,178.000000 
	C1.038042,119.063911 1.038042,60.127800 1.038042,1.095841 
	C69.557808,1.095841 138.115799,1.095841 206.836884,1.095841 
	C206.836884,59.999641 206.836884,118.999779 206.836884,178.000000 
	C177.461426,178.000000 147.980713,178.000000 118.000000,178.000000 
M8.924221,139.496643 
	C8.927232,143.496429 8.818550,147.500061 8.956447,151.495193 
	C9.245670,159.874573 13.783738,164.799408 22.008028,165.732605 
	C23.988127,165.957291 25.999840,165.967438 27.997040,165.967911 
	C79.161781,165.979904 130.326523,165.981400 181.491272,165.963898 
	C183.652390,165.963165 185.836807,165.927231 187.970383,165.625229 
	C195.874420,164.506470 200.047073,159.808853 200.058426,151.780273 
	C200.108154,116.618256 200.119049,81.456070 200.060394,46.294086 
	C200.044830,36.962975 194.819077,31.957129 185.335358,31.916590 
	C174.335968,31.869572 163.336243,31.904446 152.336655,31.903858 
	C149.240112,31.903692 146.143555,31.903833 142.851761,31.903833 
	C142.851761,27.044767 142.923325,22.881620 142.837433,18.721725 
	C142.634583,8.895721 137.083878,3.254813 127.242477,3.178930 
	C112.077278,3.061997 96.909843,3.060983 81.744667,3.179340 
	C71.907814,3.256112 66.361618,8.902302 66.162704,18.734589 
	C66.076279,23.006607 66.148193,27.281830 66.148193,31.904102 
	C52.417648,31.904102 39.284637,31.899773 26.151628,31.905350 
	C13.631570,31.910666 8.932710,36.563438 8.928223,49.007656 
	C8.917467,78.837723 8.924411,108.667793 8.924221,139.496643 
z"/>
<path fill="#2A3D5A" opacity="1.000000" stroke="none" 
	d="
M8.924216,138.997253 
	C8.924411,108.667793 8.917467,78.837723 8.928223,49.007656 
	C8.932710,36.563438 13.631570,31.910666 26.151628,31.905350 
	C39.284637,31.899773 52.417648,31.904102 66.148193,31.904102 
	C66.148193,27.281830 66.076279,23.006607 66.162704,18.734589 
	C66.361618,8.902302 71.907814,3.256112 81.744667,3.179340 
	C96.909843,3.060983 112.077278,3.061997 127.242477,3.178930 
	C137.083878,3.254813 142.634583,8.895721 142.837433,18.721725 
	C142.923325,22.881620 142.851761,27.044767 142.851761,31.903833 
	C146.143555,31.903833 149.240112,31.903692 152.336655,31.903858 
	C163.336243,31.904446 174.335968,31.869572 185.335358,31.916590 
	C194.819077,31.957129 200.044830,36.962975 200.060394,46.294086 
	C200.119049,81.456070 200.108154,116.618256 200.058426,151.780273 
	C200.047073,159.808853 195.874420,164.506470 187.970383,165.625229 
	C185.836807,165.927231 183.652390,165.963165 181.491272,165.963898 
	C130.326523,165.981400 79.161781,165.979904 27.997040,165.967911 
	C25.999840,165.967438 23.988127,165.957291 22.008028,165.732605 
	C13.783738,164.799408 9.245670,159.874573 8.956447,151.495193 
	C8.818550,147.500061 8.927232,143.496429 8.924216,138.997253 
M105.500023,39.862740 
	C79.187546,39.772484 52.875099,39.669388 26.562567,39.599098 
	C17.623995,39.575218 16.703079,40.497242 16.695646,49.237930 
	C16.682756,64.396408 16.691849,79.554909 16.691763,94.713402 
	C16.691717,102.659195 16.691753,110.604988 16.691753,118.741425 
	C23.727314,118.741425 30.311970,118.741425 36.947132,118.741425 
	C37.319168,114.529091 36.176647,109.463425 42.456211,109.206413 
	C48.276531,108.968216 54.116146,109.070160 59.943691,109.192604 
	C63.093880,109.258804 64.793846,111.109734 64.927269,114.278236 
	C64.988213,115.725578 64.937630,117.177605 64.937630,118.661423 
	C91.239883,118.661423 117.101692,118.661423 142.944763,118.661423 
	C143.366852,109.346466 143.576752,109.143959 152.475128,109.141510 
	C155.473511,109.140686 158.471893,109.140770 161.470276,109.141518 
	C170.614731,109.143806 170.610321,109.144272 171.127579,118.071770 
	C171.142181,118.323746 171.492889,118.556252 171.580887,118.665817 
	C178.612823,118.665817 185.524307,118.665817 192.817459,118.665817 
	C192.817459,116.878212 192.817459,115.411667 192.817459,113.945114 
	C192.817490,92.290123 192.827942,70.635132 192.811920,48.980152 
	C192.806229,41.284084 191.135132,39.584312 183.438522,39.603100 
	C157.792297,39.665703 132.146179,39.772717 105.500023,39.862740 
M64.992569,133.069611 
	C63.158661,134.379211 61.414482,136.633881 59.473732,136.818146 
	C54.024868,137.335480 48.494141,136.941025 42.997322,137.019623 
	C39.106274,137.075241 37.088951,135.326660 36.996117,131.399704 
	C36.965790,130.116745 36.848076,128.835876 36.764130,127.451859 
	C30.058123,127.451859 23.635538,127.451859 16.686031,127.451859 
	C16.686031,134.803909 16.668858,141.924667 16.690578,149.045303 
	C16.715178,157.109695 17.631725,158.042755 25.529865,158.043503 
	C78.343384,158.048569 131.156906,158.046524 183.970428,158.045670 
	C184.969986,158.045654 186.234589,158.419922 186.919128,157.951935 
	C188.930267,156.577072 192.218292,154.962723 192.327942,153.268768 
	C192.880859,144.726791 192.581955,136.129669 192.581955,127.598450 
	C185.113083,127.598450 178.230453,127.598450 171.389801,127.598450 
	C170.746506,137.000458 170.746506,137.000885 161.645432,137.000778 
	C157.313721,137.000732 152.981689,136.964874 148.650421,137.007980 
	C144.981140,137.044495 143.054565,135.357452 143.003494,131.624985 
	C142.985626,130.318710 142.881104,129.013611 142.805740,127.498589 
	C116.888893,127.498589 91.160667,127.498589 65.074860,127.498589 
	C65.074860,129.257736 65.074860,130.734482 64.992569,133.069611 
M98.499992,31.872692 
	C110.597397,31.872692 122.694801,31.872692 135.071075,31.872692 
	C135.071075,26.500492 135.202866,21.696508 135.028625,16.903652 
	C134.893494,13.186145 132.663651,10.981169 128.976410,10.958900 
	C112.664398,10.860389 96.347267,10.742112 80.044159,11.135435 
	C78.008575,11.184545 74.628128,14.010991 74.323166,15.938544 
	C73.514328,21.050842 74.048706,26.375652 74.048706,31.872681 
	C82.227013,31.872681 89.863518,31.872681 98.499992,31.872692 
M159.313477,116.856979 
	C156.580017,116.856979 153.846573,116.856979 151.141754,116.856979 
	C151.141754,121.316910 151.141754,125.025360 151.141754,128.854858 
	C155.340393,128.854858 159.209793,128.854858 163.586884,128.854858 
	C163.586884,125.638664 163.892853,122.654991 163.433990,119.793991 
	C163.254303,118.673622 161.359070,117.828407 159.313477,116.856979 
M56.310806,117.058258 
	C52.576305,117.058258 48.841805,117.058258 45.208771,117.058258 
	C45.208771,121.369026 45.208771,125.089844 45.208771,128.817490 
	C49.321880,128.817490 53.058445,128.817490 57.023415,128.817490 
	C57.023415,124.915123 57.023415,121.310181 56.310806,117.058258 
z"/>
<path fill="#FEFFFF" opacity="1.000000" stroke="none" 
	d="
M106.000031,39.862724 
	C132.146179,39.772717 157.792297,39.665703 183.438522,39.603100 
	C191.135132,39.584312 192.806229,41.284084 192.811920,48.980152 
	C192.827942,70.635132 192.817490,92.290123 192.817459,113.945114 
	C192.817459,115.411667 192.817459,116.878212 192.817459,118.665817 
	C185.524307,118.665817 178.612823,118.665817 171.580887,118.665817 
	C171.492889,118.556252 171.142181,118.323746 171.127579,118.071770 
	C170.610321,109.144272 170.614731,109.143806 161.470276,109.141518 
	C158.471893,109.140770 155.473511,109.140686 152.475128,109.141510 
	C143.576752,109.143959 143.366852,109.346466 142.944763,118.661423 
	C117.101692,118.661423 91.239883,118.661423 64.937630,118.661423 
	C64.937630,117.177605 64.988213,115.725578 64.927269,114.278236 
	C64.793846,111.109734 63.093880,109.258804 59.943691,109.192604 
	C54.116146,109.070160 48.276531,108.968216 42.456211,109.206413 
	C36.176647,109.463425 37.319168,114.529091 36.947132,118.741425 
	C30.311970,118.741425 23.727314,118.741425 16.691753,118.741425 
	C16.691753,110.604988 16.691717,102.659195 16.691763,94.713402 
	C16.691849,79.554909 16.682756,64.396408 16.695646,49.237930 
	C16.703079,40.497242 17.623995,39.575218 26.562567,39.599098 
	C52.875099,39.669388 79.187546,39.772484 106.000031,39.862724 
z"/>
<path fill="#FDFDFD" opacity="1.000000" stroke="none" 
	d="
M65.033714,132.640427 
	C65.074860,130.734482 65.074860,129.257736 65.074860,127.498589 
	C91.160667,127.498589 116.888893,127.498589 142.805740,127.498589 
	C142.881104,129.013611 142.985626,130.318710 143.003494,131.624985 
	C143.054565,135.357452 144.981140,137.044495 148.650421,137.007980 
	C152.981689,136.964874 157.313721,137.000732 161.645432,137.000778 
	C170.746506,137.000885 170.746506,137.000458 171.389801,127.598450 
	C178.230453,127.598450 185.113083,127.598450 192.581955,127.598450 
	C192.581955,136.129669 192.880859,144.726791 192.327942,153.268768 
	C192.218292,154.962723 188.930267,156.577072 186.919128,157.951935 
	C186.234589,158.419922 184.969986,158.045654 183.970428,158.045670 
	C131.156906,158.046524 78.343384,158.048569 25.529865,158.043503 
	C17.631725,158.042755 16.715178,157.109695 16.690578,149.045303 
	C16.668858,141.924667 16.686031,134.803909 16.686031,127.451859 
	C23.635538,127.451859 30.058123,127.451859 36.764130,127.451859 
	C36.848076,128.835876 36.965790,130.116745 36.996117,131.399704 
	C37.088951,135.326660 39.106274,137.075241 42.997322,137.019623 
	C48.494141,136.941025 54.024868,137.335480 59.473732,136.818146 
	C61.414482,136.633881 63.158661,134.379211 65.033714,132.640427 
z"/>
<path fill="#FDFDFD" opacity="1.000000" stroke="none" 
	d="
M98.000000,31.872686 
	C89.863518,31.872681 82.227013,31.872681 74.048706,31.872681 
	C74.048706,26.375652 73.514328,21.050842 74.323166,15.938544 
	C74.628128,14.010991 78.008575,11.184545 80.044159,11.135435 
	C96.347267,10.742112 112.664398,10.860389 128.976410,10.958900 
	C132.663651,10.981169 134.893494,13.186145 135.028625,16.903652 
	C135.202866,21.696508 135.071075,26.500492 135.071075,31.872692 
	C122.694801,31.872692 110.597397,31.872692 98.000000,31.872686 
z"/>
<path fill="#B3C7DB" opacity="1.000000" stroke="none" 
	d="
M159.779327,116.857430 
	C161.359070,117.828407 163.254303,118.673622 163.433990,119.793991 
	C163.892853,122.654991 163.586884,125.638664 163.586884,128.854858 
	C159.209793,128.854858 155.340393,128.854858 151.141754,128.854858 
	C151.141754,125.025360 151.141754,121.316910 151.141754,116.856979 
	C153.846573,116.856979 156.580017,116.856979 159.779327,116.857430 
z"/>
<path fill="#B9CDE0" opacity="1.000000" stroke="none" 
	d="
M56.667110,117.381744 
	C57.023415,121.310181 57.023415,124.915123 57.023415,128.817490 
	C53.058445,128.817490 49.321880,128.817490 45.208771,128.817490 
	C45.208771,125.089844 45.208771,121.369026 45.208771,117.058258 
	C48.841805,117.058258 52.576305,117.058258 56.667110,117.381744 
z"/>
</svg>