<svg version="1.1" id="Layer_1" xmlns="http://www.w3.org/2000/svg" xmlns:xlink="http://www.w3.org/1999/xlink" x="0px" y="0px"
	 width="100%" viewBox="0 0 612 605" enable-background="new 0 0 612 605" xml:space="preserve">
<path fill="#EBEAEA" opacity="1.000000" stroke="none" 
	d="
M613.000000,2.000000 
	C613.000000,203.286560 613.000000,404.573120 613.000000,605.929810 
	C409.094208,605.929810 205.188354,605.929810 1.000000,605.929810 
	C1.000000,404.974243 1.000000,203.948380 1.210799,2.342257 
	C1.692167,1.567040 1.884968,1.313038 2.000000,1.000000 
	C205.025833,1.000000 408.051666,1.000000 611.654175,1.212716 
	C612.438049,1.682782 612.694458,1.874304 613.000000,2.000000 
M278.970062,312.021698 
	C279.301453,312.075958 279.632843,312.130249 280.763245,312.460144 
	C341.533325,312.556000 402.303345,312.696838 463.073456,312.733154 
	C509.357025,312.760803 555.640625,312.655823 602.670593,312.677795 
	C602.990479,305.616547 603.310364,298.555328 603.650391,291.048157 
	C601.415100,291.048157 599.946899,291.048462 598.478699,291.048096 
	C493.488770,291.020477 388.498871,290.988953 283.508942,291.003021 
	C281.963440,291.003235 280.417969,291.571045 279.000000,292.000000 
	C279.000000,292.000000 278.873779,291.872894 278.185822,292.405823 
	C278.269562,298.690948 278.353333,304.976044 278.474792,311.477997 
	C278.474792,311.477997 278.664337,311.589752 278.970062,312.021698 
M479.006653,191.316986 
	C481.193481,186.196472 483.380310,181.075958 485.669037,175.716843 
	C476.363068,175.716843 467.725128,175.716843 458.292664,175.716843 
	C461.006989,181.620697 463.406158,186.839127 465.546661,192.732346 
	C463.969574,197.870895 462.392517,203.009460 460.250885,207.752136 
	C454.513580,196.529526 448.640350,185.372955 443.135254,174.037582 
	C441.771240,171.228973 440.307526,170.419174 437.438965,171.019211 
	C415.066101,175.699158 397.680634,187.199203 386.821869,207.746155 
	C376.774872,226.757080 373.094391,247.424789 371.014587,268.494965 
	C370.517365,273.532288 370.433380,278.610413 370.160461,283.648438 
	C382.198151,283.648438 393.605133,283.648438 405.314423,283.648438 
	C406.196350,266.028931 407.726929,248.781860 416.290344,232.924652 
	C416.290344,249.797577 416.290344,266.670502 416.290344,283.701538 
	C453.684509,283.701538 490.580902,283.701538 527.931091,283.701538 
	C527.931091,266.264282 527.931091,249.073517 527.931091,231.882751 
	C536.728333,248.126190 538.361694,265.816315 539.179504,283.697205 
	C551.010559,283.697205 562.427246,283.697205 573.968140,283.697205 
	C574.082397,282.828033 574.255981,282.190491 574.236206,281.558960 
	C573.672546,263.548798 571.292664,245.793762 565.959229,228.554947 
	C556.847778,199.104813 539.506836,177.899612 507.796722,171.264908 
	C504.202393,170.512848 502.213470,171.058319 500.438812,174.659409 
	C494.948578,185.800110 488.985992,196.708023 482.993622,206.999252 
	C481.568115,201.998291 480.142578,196.997314 479.006653,191.316986 
M427.261932,104.475220 
	C427.270355,104.648811 427.278778,104.822411 426.975006,105.718147 
	C423.268982,115.389664 423.103271,125.172066 426.377899,134.947647 
	C435.001099,160.690109 461.953400,174.343262 487.512512,165.636597 
	C510.981720,157.641876 526.440430,131.673676 516.330688,103.291672 
	C518.201721,100.595963 520.072754,97.900253 522.649048,95.031990 
	C534.172424,89.265381 536.497986,81.376083 528.625793,72.628395 
	C511.874023,54.013702 491.440918,42.844662 465.725677,45.173611 
	C444.089813,47.133106 426.770172,57.947227 413.263855,74.659630 
	C407.861786,81.343994 410.102264,89.309807 417.655853,93.531845 
	C418.957428,94.259346 420.312286,94.891556 422.017365,96.246704 
	C423.786621,98.817024 425.555878,101.387344 427.261932,104.475220 
M3.106283,528.703247 
	C5.482406,532.173584 7.207061,536.546692 10.416228,538.862732 
	C13.683170,541.220459 15.451730,542.967407 15.161043,547.210510 
	C14.815792,552.250122 18.674637,555.874268 23.364347,555.948303 
	C28.028656,556.021912 31.570591,552.549316 31.939686,547.428040 
	C32.064686,545.693604 31.959482,543.942566 31.959482,542.384644 
	C53.017368,542.384644 73.391243,542.384644 93.921089,542.384644 
	C93.921089,544.769165 93.287437,547.070251 94.068031,548.689636 
	C95.270584,551.184265 97.039436,554.275085 99.316689,555.138672 
	C101.600967,556.004822 105.523132,555.306702 107.402107,553.722351 
	C109.334236,552.093140 110.259567,548.623169 110.532028,545.851196 
	C110.814682,542.975342 111.199730,541.289429 114.197975,539.897766 
	C120.602539,536.925110 122.920425,531.103149 122.923370,524.329590 
	C122.944466,475.714478 122.952782,427.099304 122.900200,378.484253 
	C122.888626,367.786255 116.601242,361.559967 105.864128,361.359467 
	C101.421768,361.276520 96.976570,361.345734 91.896912,361.345734 
	C91.896912,355.225952 91.896912,349.605621 92.057709,343.131409 
	C92.057709,341.023926 92.057709,338.916443 92.057709,336.982971 
	C93.086647,336.584473 93.528786,336.348938 94.000160,336.240662 
	C98.560814,335.192902 100.824638,332.136688 100.624954,327.668488 
	C100.431564,323.341156 96.989731,320.824860 91.880600,320.684906 
	C88.723541,320.598419 85.563797,320.609650 82.618370,319.718262 
	C93.001610,284.558380 108.754265,253.085159 142.112457,232.793182 
	C142.112457,252.644989 142.112946,271.793396 142.112366,290.941803 
	C142.109955,370.745178 142.082993,450.548553 142.126114,530.351929 
	C142.134232,545.356628 152.826538,556.056458 167.461761,556.036560 
	C181.842957,556.017029 191.972458,545.428589 191.975922,530.338867 
	C191.988220,476.858917 191.980438,423.378998 191.981232,369.899048 
	C191.981247,368.566284 191.930038,367.229767 192.010452,365.901520 
	C192.226410,362.334259 194.271576,360.324493 197.722839,360.206970 
	C201.193756,360.088715 203.329361,362.136047 203.887360,365.517242 
	C204.182541,367.305786 204.029465,369.173065 204.029877,371.004822 
	C204.042023,424.151520 204.023346,477.298279 204.070557,530.444946 
	C204.084122,545.705261 214.425247,555.735962 229.266556,556.160400 
	C240.176086,556.472412 253.491013,546.325989 253.420837,530.556396 
	C253.014618,439.259094 253.220657,347.959076 253.219528,256.660004 
	C253.219513,255.095810 253.219528,253.531631 253.219528,250.881012 
	C255.095291,253.297653 256.225616,254.694214 257.292664,256.137543 
	C273.557037,278.137878 297.508362,279.848328 316.523407,260.080231 
	C327.044098,249.142883 333.694733,235.650620 340.829376,221.824585 
	C341.167755,221.459793 341.675842,221.151962 341.820190,220.722015 
	C349.877655,196.725845 357.937561,172.730316 365.889282,148.698990 
	C366.786041,145.988785 365.738495,143.808334 362.765442,142.884659 
	C348.706573,138.516861 334.651703,134.136154 320.597107,129.754578 
	C316.947632,128.616821 314.249481,129.835709 313.071045,133.384155 
	C305.666718,155.679337 298.327850,177.996582 291.080322,200.343185 
	C289.748901,204.448517 291.061859,207.420807 295.638123,208.618591 
	C299.473297,209.622391 303.215515,210.981308 306.858917,212.857834 
	C302.863739,219.957748 298.976135,227.121033 294.841644,234.138870 
	C291.075714,240.531128 288.196381,240.566666 283.876160,234.403732 
	C276.998535,224.592621 270.039429,214.831909 263.428772,204.842102 
	C255.399292,192.708252 244.349197,186.936035 229.799606,187.082977 
	C208.142868,187.301697 186.471130,186.754807 164.829681,187.372101 
	C157.367676,187.584976 149.353180,188.971283 142.658356,192.103104 
	C107.178444,208.700562 81.562202,235.626099 65.458504,271.030151 
	C58.205544,286.975769 53.593048,304.122406 46.880131,320.724487 
	C42.068031,320.747559 37.255600,320.743225 32.443935,320.801880 
	C28.177229,320.853851 25.591394,323.145172 24.894005,327.226074 
	C24.182213,331.391235 26.309435,334.208710 30.000708,335.903687 
	C31.038759,336.380371 32.195045,336.599518 33.226147,337.879181 
	C33.225334,344.427277 33.311123,350.977386 33.155476,357.521820 
	C33.121655,358.943848 32.222454,360.345276 30.878611,361.466797 
	C26.393827,361.629059 21.909046,361.791321 17.279224,361.738129 
	C17.279224,361.738129 17.043417,361.846985 16.285294,361.687622 
	C15.532927,361.843109 14.780559,361.998627 13.334617,362.189667 
	C7.613932,364.626648 4.021451,368.744263 3.027425,375.959869 
	C3.017286,410.685028 2.987082,445.410217 3.005973,480.135376 
	C3.014648,496.081238 3.119681,512.027039 3.106283,528.703247 
M422.131989,552.762329 
	C424.926178,552.347656 427.741913,552.043274 430.511139,551.501099 
	C455.159088,546.676453 473.263367,532.325928 486.893921,511.948853 
	C506.414856,482.765869 515.002197,449.528412 520.920227,415.571320 
	C524.309265,396.125397 526.078796,376.396667 528.554138,356.792297 
	C529.911804,346.039124 523.958679,341.407318 513.927795,345.469635 
	C490.892395,354.798584 466.872864,359.298035 442.116241,360.117798 
	C405.274445,361.337738 369.066772,358.293854 334.430756,344.289124 
	C327.989716,341.684723 322.280914,346.434082 322.237732,354.201508 
	C322.052673,387.488190 322.067657,420.778320 328.137695,453.688568 
	C332.077820,475.051147 338.282684,495.666168 350.437500,513.947937 
	C367.202240,539.163330 389.878265,553.949768 422.131989,552.762329 
M499.575073,509.036957 
	C485.334503,532.900757 465.617218,550.085876 438.805939,558.444397 
	C441.682648,566.086731 452.257507,578.699585 461.681213,586.047546 
	C484.827301,604.095337 519.803711,606.450562 542.282227,588.144958 
	C554.497253,578.197510 562.836731,565.507080 568.767639,551.209106 
	C583.345398,516.065613 586.827515,478.885376 588.149780,441.380920 
	C588.369263,435.156769 584.728149,432.121552 578.456848,431.949066 
	C569.143677,431.692932 559.816528,431.562775 550.527954,430.913391 
	C542.963501,430.384552 535.446838,429.172638 528.330139,428.314392 
	C524.553284,442.085052 521.587463,455.935181 516.891479,469.171448 
	C512.138672,482.567810 505.673828,495.356720 499.575073,509.036957 
M243.840118,141.039978 
	C243.939545,140.045975 243.956299,139.035492 244.150421,138.060349 
	C249.773407,109.815895 224.347855,79.577965 192.715836,83.894592 
	C169.568985,87.053299 148.196381,109.645874 153.478882,138.722061 
	C157.302490,159.768036 175.835876,176.368378 194.622681,177.021805 
	C219.545349,177.888626 237.068115,165.315582 243.840118,141.039978 
z"/>
<path fill="#F4F4F4" opacity="1.000000" stroke="none" 
	d="
M613.000000,1.500000 
	C612.694458,1.874304 612.438049,1.682782 612.115479,1.212716 
	C612.333313,1.000000 612.666687,1.000000 613.000000,1.500000 
z"/>
<path fill="#F4F4F4" opacity="1.000000" stroke="none" 
	d="
M1.500000,1.000000 
	C1.884968,1.313038 1.692167,1.567040 1.210799,1.881002 
	C1.000000,1.666667 1.000000,1.333333 1.500000,1.000000 
z"/>
<path fill="#F9CA22" opacity="1.000000" stroke="none" 
	d="
M47.782494,320.724121 
	C53.593048,304.122406 58.205544,286.975769 65.458504,271.030151 
	C81.562202,235.626099 107.178444,208.700562 142.658356,192.103104 
	C149.353180,188.971283 157.367676,187.584976 164.829681,187.372101 
	C186.471130,186.754807 208.142868,187.301697 229.799606,187.082977 
	C244.349197,186.936035 255.399292,192.708252 263.428772,204.842102 
	C270.039429,214.831909 276.998535,224.592621 283.876160,234.403732 
	C288.196381,240.566666 291.075714,240.531128 294.841644,234.138870 
	C298.976135,227.121033 302.863739,219.957748 307.214539,212.323822 
	C313.299103,202.058884 323.242249,199.135315 331.917084,204.668777 
	C338.312042,208.747940 340.486237,214.860626 340.188385,222.127823 
	C333.694733,235.650620 327.044098,249.142883 316.523407,260.080231 
	C297.508362,279.848328 273.557037,278.137878 257.292664,256.137543 
	C256.225616,254.694214 255.095291,253.297653 253.219528,250.881012 
	C253.219528,253.531631 253.219513,255.095810 253.219528,256.660004 
	C253.220657,347.959076 253.014618,439.259094 253.420837,530.556396 
	C253.491013,546.325989 240.176086,556.472412 229.266556,556.160400 
	C214.425247,555.735962 204.084122,545.705261 204.070557,530.444946 
	C204.023346,477.298279 204.042023,424.151520 204.029877,371.004822 
	C204.029465,369.173065 204.182541,367.305786 203.887360,365.517242 
	C203.329361,362.136047 201.193756,360.088715 197.722839,360.206970 
	C194.271576,360.324493 192.226410,362.334259 192.010452,365.901520 
	C191.930038,367.229767 191.981247,368.566284 191.981232,369.899048 
	C191.980438,423.378998 191.988220,476.858917 191.975922,530.338867 
	C191.972458,545.428589 181.842957,556.017029 167.461761,556.036560 
	C152.826538,556.056458 142.134232,545.356628 142.126114,530.351929 
	C142.082993,450.548553 142.109955,370.745178 142.112366,290.941803 
	C142.112946,271.793396 142.112457,252.644989 142.112457,232.793182 
	C108.754265,253.085159 93.001610,284.558380 82.401817,320.433990 
	C80.460976,326.190338 78.736687,331.230988 76.790222,336.510742 
	C68.662727,344.026855 60.689018,343.859161 50.824898,335.869476 
	C46.875488,331.155762 46.423496,326.118469 47.782494,320.724121 
z"/>
<path fill="#0B2D51" opacity="1.000000" stroke="none" 
	d="
M421.668823,552.786865 
	C389.878265,553.949768 367.202240,539.163330 350.437500,513.947937 
	C338.282684,495.666168 332.077820,475.051147 328.137695,453.688568 
	C322.067657,420.778320 322.052673,387.488190 322.237732,354.201508 
	C322.280914,346.434082 327.989716,341.684723 334.430756,344.289124 
	C369.066772,358.293854 405.274445,361.337738 442.116241,360.117798 
	C466.872864,359.298035 490.892395,354.798584 513.927795,345.469635 
	C523.958679,341.407318 529.911804,346.039124 528.554138,356.792297 
	C526.078796,376.396667 524.309265,396.125397 520.920227,415.571320 
	C515.002197,449.528412 506.414856,482.765869 486.893921,511.948853 
	C473.263367,532.325928 455.159088,546.676453 430.511139,551.501099 
	C427.741913,552.043274 424.926178,552.347656 421.668823,552.786865 
M385.647156,478.003906 
	C384.648987,478.002899 383.650665,477.989502 382.652679,478.002808 
	C376.207275,478.088745 374.536377,480.717285 377.554810,486.436218 
	C379.486023,490.095215 381.581909,493.708527 383.983734,497.071045 
	C396.662231,514.820801 417.070099,522.503601 437.350952,516.768616 
	C452.669159,512.436951 462.781952,501.635773 470.412628,488.227417 
	C474.380249,481.255676 472.431641,478.010498 464.465607,478.007324 
	C438.513153,477.997040 412.560730,478.004120 385.647156,478.003906 
M450.371063,419.796570 
	C459.082428,413.102386 464.893555,413.392944 472.740845,420.948273 
	C473.818207,421.985504 474.768799,423.153534 475.832733,424.205780 
	C478.086609,426.434906 480.602081,428.347260 483.567566,425.604309 
	C486.402283,422.982239 485.337463,420.117889 483.075317,417.718536 
	C480.685425,415.183624 478.272461,412.588928 475.503906,410.506409 
	C463.058105,401.144653 444.203705,405.558441 437.396759,419.555298 
	C436.643188,421.104828 437.346680,424.712830 438.587219,425.533966 
	C440.072388,426.517059 443.164001,426.141632 445.002594,425.230316 
	C446.950928,424.264618 448.244965,421.978912 450.371063,419.796570 
M399.367096,421.136627 
	C400.696747,422.620453 401.767517,424.751648 403.425415,425.414673 
	C405.255707,426.146576 408.363281,426.350372 409.552521,425.276245 
	C410.763306,424.182709 411.343567,420.502594 410.428131,419.251160 
	C404.664459,411.372223 397.601318,405.154297 386.972565,405.447693 
	C376.414398,405.739075 369.585663,412.150177 364.103790,420.246521 
	C363.366211,421.335846 363.957367,424.339386 365.002380,425.341370 
	C366.090637,426.384705 368.669342,426.686707 370.235931,426.185730 
	C371.757080,425.699310 372.884308,423.838470 374.075226,422.485016 
	C382.350037,413.081085 389.327698,412.540436 399.367096,421.136627 
z"/>
<path fill="#0B2D51" opacity="1.000000" stroke="none" 
	d="
M91.896912,343.985260 
	C91.896912,349.605621 91.896912,355.225952 91.896912,361.345734 
	C96.976570,361.345734 101.421768,361.276520 105.864128,361.359467 
	C116.601242,361.559967 122.888626,367.786255 122.900200,378.484253 
	C122.952782,427.099304 122.944466,475.714478 122.923370,524.329590 
	C122.920425,531.103149 120.602539,536.925110 114.197975,539.897766 
	C111.199730,541.289429 110.814682,542.975342 110.532028,545.851196 
	C110.259567,548.623169 109.334236,552.093140 107.402107,553.722351 
	C105.523132,555.306702 101.600967,556.004822 99.316689,555.138672 
	C97.039436,554.275085 95.270584,551.184265 94.068031,548.689636 
	C93.287437,547.070251 93.921089,544.769165 93.921089,542.384644 
	C73.391243,542.384644 53.017368,542.384644 31.959482,542.384644 
	C31.959482,543.942566 32.064686,545.693604 31.939686,547.428040 
	C31.570591,552.549316 28.028656,556.021912 23.364347,555.948303 
	C18.674637,555.874268 14.815792,552.250122 15.161043,547.210510 
	C15.451730,542.967407 13.683170,541.220459 10.416228,538.862732 
	C7.207061,536.546692 5.482406,532.173584 3.385818,528.005676 
	C3.774372,526.491272 3.978543,525.674377 3.978803,524.857544 
	C3.994276,476.181885 3.999029,427.506256 3.959463,378.830627 
	C3.958436,377.566803 3.455618,376.303375 3.186814,375.039764 
	C4.021451,368.744263 7.613932,364.626648 13.899251,362.388245 
	C15.323728,362.340210 16.183569,362.093597 17.043415,361.846985 
	C17.043417,361.846985 17.279224,361.738129 17.858143,361.832642 
	C22.865316,361.870148 27.293573,361.813171 31.721828,361.756195 
	C32.222454,360.345276 33.121655,358.943848 33.155476,357.521820 
	C33.311123,350.977386 33.225334,344.427277 33.686256,337.421661 
	C39.050255,336.194519 40.475185,338.429382 40.080231,343.108673 
	C39.691204,347.717682 39.856861,352.391998 40.080269,357.023102 
	C40.147697,358.420837 41.219910,359.770111 42.098793,361.428436 
	C45.061333,362.110809 47.758831,362.854309 50.452217,362.839661 
	C60.438725,362.785461 70.429031,362.219635 80.406685,362.416138 
	C83.802849,362.483032 85.009308,361.650177 84.994370,358.488586 
	C84.974770,354.339783 84.692795,350.156433 85.156761,346.059662 
	C85.329163,344.537323 87.104057,342.943085 88.544716,341.966736 
	C88.997925,341.659546 90.743073,343.258667 91.896912,343.985260 
z"/>
<path fill="#0B2E52" opacity="1.000000" stroke="none" 
	d="
M483.206757,207.706299 
	C488.985992,196.708023 494.948578,185.800110 500.438812,174.659409 
	C502.213470,171.058319 504.202393,170.512848 507.796722,171.264908 
	C539.506836,177.899612 556.847778,199.104813 565.959229,228.554947 
	C571.292664,245.793762 573.672546,263.548798 574.236206,281.558960 
	C574.255981,282.190491 574.082397,282.828033 573.968140,283.697205 
	C562.427246,283.697205 551.010559,283.697205 539.179504,283.697205 
	C538.361694,265.816315 536.728333,248.126190 527.931091,231.882751 
	C527.931091,249.073517 527.931091,266.264282 527.931091,283.701538 
	C490.580902,283.701538 453.684509,283.701538 416.290344,283.701538 
	C416.290344,266.670502 416.290344,249.797577 416.290344,232.924652 
	C407.726929,248.781860 406.196350,266.028931 405.314423,283.648438 
	C393.605133,283.648438 382.198151,283.648438 370.160461,283.648438 
	C370.433380,278.610413 370.517365,273.532288 371.014587,268.494965 
	C373.094391,247.424789 376.774872,226.757080 386.821869,207.746155 
	C397.680634,187.199203 415.066101,175.699158 437.438965,171.019211 
	C440.307526,170.419174 441.771240,171.228973 443.135254,174.037582 
	C448.640350,185.372955 454.513580,196.529526 460.600037,208.299454 
	C464.451080,214.551758 467.953003,220.256744 472.185944,227.152618 
	C476.299988,219.893372 479.753357,213.799835 483.206757,207.706299 
M465.051270,249.393356 
	C467.026489,252.644882 469.851715,255.028992 473.632294,253.605591 
	C475.768890,252.801178 478.416809,250.333954 478.677551,248.334442 
	C479.001923,245.847351 477.771393,242.349014 475.945221,240.647095 
	C474.498199,239.298492 470.841858,239.182434 468.699738,239.969757 
	C464.972290,241.339813 464.075531,244.848495 465.051270,249.393356 
M472.391113,280.739532 
	C478.070190,279.161804 480.724487,275.915222 479.476532,271.892761 
	C478.303986,268.113342 475.610535,265.884033 471.676361,266.252106 
	C467.836304,266.611359 465.222504,269.013031 464.882660,273.044067 
	C464.482880,277.786530 467.367279,279.934296 472.391113,280.739532 
z"/>
<path fill="#D9462F" opacity="1.000000" stroke="none" 
	d="
M499.766998,508.724335 
	C505.673828,495.356720 512.138672,482.567810 516.891479,469.171448 
	C521.587463,455.935181 524.553284,442.085052 528.330139,428.314392 
	C535.446838,429.172638 542.963501,430.384552 550.527954,430.913391 
	C559.816528,431.562775 569.143677,431.692932 578.456848,431.949066 
	C584.728149,432.121552 588.369263,435.156769 588.149780,441.380920 
	C586.827515,478.885376 583.345398,516.065613 568.767639,551.209106 
	C562.836731,565.507080 554.497253,578.197510 542.282227,588.144958 
	C519.803711,606.450562 484.827301,604.095337 461.681213,586.047546 
	C452.257507,578.699585 441.682648,566.086731 438.805939,558.444397 
	C465.617218,550.085876 485.334503,532.900757 499.766998,508.724335 
M529.660339,567.719971 
	C530.815369,567.869446 531.995056,568.243652 533.120239,568.120422 
	C535.268799,567.885071 538.255737,568.059265 539.278809,566.775574 
	C540.361084,565.417725 540.210510,562.312561 539.479797,560.397339 
	C534.375977,547.019714 518.636353,536.058105 505.043396,536.081177 
	C491.184692,536.104736 474.800171,547.597107 469.706543,560.867004 
	C467.574432,566.421631 469.771332,569.208069 475.673523,568.206299 
	C493.362152,565.204224 511.081818,565.130066 529.660339,567.719971 
M554.682678,497.384491 
	C556.768860,495.749359 559.018677,494.280731 560.897522,492.434570 
	C562.989929,490.378540 563.790344,487.855408 561.322632,485.447144 
	C559.076599,483.255219 556.953491,484.009308 554.707214,485.789032 
	C546.417419,492.356964 541.882446,492.121368 533.803833,484.873932 
	C531.596924,482.894104 529.310120,480.897461 526.511292,483.688385 
	C523.670532,486.521118 525.301208,489.119324 527.398193,491.554138 
	C534.310059,499.579407 543.841553,501.806549 554.682678,497.384491 
z"/>
<path fill="#F9CA22" opacity="1.000000" stroke="none" 
	d="
M243.737030,141.447433 
	C237.068115,165.315582 219.545349,177.888626 194.622681,177.021805 
	C175.835876,176.368378 157.302490,159.768036 153.478882,138.722061 
	C148.196381,109.645874 169.568985,87.053299 192.715836,83.894592 
	C224.347855,79.577965 249.773407,109.815895 244.150421,138.060349 
	C243.956299,139.035492 243.939545,140.045975 243.737030,141.447433 
z"/>
<path fill="#0A2D51" opacity="1.000000" stroke="none" 
	d="
M601.924316,312.609833 
	C555.640625,312.655823 509.357025,312.760803 463.073456,312.733154 
	C402.303345,312.696838 341.533325,312.556000 280.215057,312.100952 
	C279.332703,311.691132 278.998505,311.640442 278.664337,311.589752 
	C278.664337,311.589752 278.474792,311.477997 278.606018,310.899628 
	C278.782745,304.171814 278.828278,298.022339 278.873779,291.872894 
	C278.873779,291.872894 279.000000,292.000000 279.412842,291.970917 
	C383.951691,291.970062 488.077759,291.998291 592.203796,292.026581 
	C594.203003,292.027130 596.212402,292.156952 598.199158,291.999908 
	C601.313110,291.753784 602.290466,293.180695 602.180786,296.127960 
	C601.976501,301.617493 601.997253,307.115417 601.924316,312.609833 
z"/>
<path fill="#D9462F" opacity="1.000000" stroke="none" 
	d="
M516.012817,103.861954 
	C526.440430,131.673676 510.981720,157.641876 487.512512,165.636597 
	C461.953400,174.343262 435.001099,160.690109 426.377899,134.947647 
	C423.103271,125.172066 423.268982,115.389664 427.461975,105.358162 
	C428.951691,104.709602 429.954437,104.421021 431.423889,104.062004 
	C459.269928,104.035469 486.649200,104.079369 514.119385,104.257889 
	C514.210266,104.392509 514.641113,104.467339 514.641113,104.467339 
	C514.641113,104.467339 514.967346,104.128510 515.224854,104.046593 
	C515.659119,103.930435 515.835999,103.896194 516.012817,103.861954 
z"/>
<path fill="#D94730" opacity="1.000000" stroke="none" 
	d="
M421.642517,95.567780 
	C420.312286,94.891556 418.957428,94.259346 417.655853,93.531845 
	C410.102264,89.309807 407.861786,81.343994 413.263855,74.659630 
	C426.770172,57.947227 444.089813,47.133106 465.725677,45.173611 
	C491.440918,42.844662 511.874023,54.013702 528.625793,72.628395 
	C536.497986,81.376083 534.172424,89.265381 521.960144,94.944008 
	C520.823914,94.637093 520.397827,94.341812 519.926147,94.210167 
	C496.513245,87.675522 472.618622,87.140755 448.687500,89.472214 
	C439.561188,90.361336 430.651123,93.470413 421.642517,95.567780 
M494.593292,70.894157 
	C489.433380,70.167030 484.561981,66.158089 480.324951,69.142303 
	C477.260040,66.768211 474.746521,63.287930 472.401123,63.397751 
	C469.554169,63.531059 466.849060,66.693878 463.406281,68.998734 
	C457.338043,66.108231 451.198822,71.127930 444.280396,72.965294 
	C448.781982,75.313042 453.421997,76.602638 458.056946,77.910187 
	C460.676392,78.649162 463.512512,79.000793 465.853210,80.264008 
	C470.071320,82.540436 473.828003,82.675888 478.021912,80.161934 
	C480.146332,78.888496 482.845367,78.432274 485.351501,77.966660 
	C490.471161,77.015472 495.796722,76.713234 500.383820,72.006020 
	C498.201385,71.565186 496.791901,71.280487 494.593292,70.894157 
z"/>
<path fill="#0C2E52" opacity="1.000000" stroke="none" 
	d="
M340.508881,221.976196 
	C340.486237,214.860626 338.312042,208.747940 331.917084,204.668777 
	C323.242249,199.135315 313.299103,202.058884 307.284515,211.986389 
	C303.215515,210.981308 299.473297,209.622391 295.638123,208.618591 
	C291.061859,207.420807 289.748901,204.448517 291.080322,200.343185 
	C298.327850,177.996582 305.666718,155.679337 313.071045,133.384155 
	C314.249481,129.835709 316.947632,128.616821 320.597107,129.754578 
	C334.651703,134.136154 348.706573,138.516861 362.765442,142.884659 
	C365.738495,143.808334 366.786041,145.988785 365.889282,148.698990 
	C357.937561,172.730316 349.877655,196.725845 341.820190,220.722015 
	C341.675842,221.151962 341.167755,221.459793 340.508881,221.976196 
M336.910675,193.259460 
	C340.089722,187.925400 340.441406,182.645477 336.620789,177.437241 
	C332.871857,172.326828 326.427460,170.230011 320.219147,172.109985 
	C314.725128,173.773636 311.004669,178.884079 310.912933,184.892990 
	C310.811584,191.531281 313.946381,196.626373 319.818481,198.343811 
	C326.140198,200.192703 332.026031,199.425369 336.910675,193.259460 
z"/>
<path fill="#072749" opacity="1.000000" stroke="none" 
	d="
M421.829956,95.907242 
	C430.651123,93.470413 439.561188,90.361336 448.687500,89.472214 
	C472.618622,87.140755 496.513245,87.675522 519.926147,94.210167 
	C520.397827,94.341812 520.823914,94.637093 521.607544,95.030289 
	C520.072754,97.900253 518.201721,100.595963 516.171753,103.576813 
	C515.835999,103.896194 515.659119,103.930435 514.990417,103.995682 
	C514.498535,104.026695 514.028503,104.123268 514.028503,104.123268 
	C486.649200,104.079369 459.269928,104.035469 431.064178,104.003273 
	C429.266876,103.995872 428.295990,103.976776 427.325134,103.957672 
	C425.555878,101.387344 423.786621,98.817024 421.829956,95.907242 
z"/>
<path fill="#F7C924" opacity="1.000000" stroke="none" 
	d="
M483.100189,207.352783 
	C479.753357,213.799835 476.299988,219.893372 472.185944,227.152618 
	C467.953003,220.256744 464.451080,214.551758 460.882324,208.497391 
	C462.392517,203.009460 463.969574,197.870895 466.093140,192.331299 
	C470.665436,191.952271 474.691254,191.974304 478.717072,191.996353 
	C480.142578,196.997314 481.568115,201.998291 483.100189,207.352783 
z"/>
<path fill="#092749" opacity="1.000000" stroke="none" 
	d="
M91.977310,343.558350 
	C90.743073,343.258667 88.997925,341.659546 88.544716,341.966736 
	C87.104057,342.943085 85.329163,344.537323 85.156761,346.059662 
	C84.692795,350.156433 84.974770,354.339783 84.994370,358.488586 
	C85.009308,361.650177 83.802849,362.483032 80.406685,362.416138 
	C70.429031,362.219635 60.438725,362.785461 50.452217,362.839661 
	C47.758831,362.854309 45.061333,362.110809 42.127487,361.401428 
	C41.889256,361.087524 41.953640,361.041992 42.399094,361.210754 
	C56.509098,361.379517 70.173645,361.379517 83.755890,361.379517 
	C83.755890,352.709625 83.755890,344.686188 83.755890,336.271606 
	C81.272400,336.271606 79.142403,336.271606 77.012405,336.271606 
	C78.736687,331.230988 80.460976,326.190338 82.295258,320.863342 
	C85.563797,320.609650 88.723541,320.598419 91.880600,320.684906 
	C96.989731,320.824860 100.431564,323.341156 100.624954,327.668488 
	C100.824638,332.136688 98.560814,335.192902 94.000160,336.240662 
	C93.528786,336.348938 93.086647,336.584473 92.057709,336.982971 
	C92.057709,338.916443 92.057709,341.023926 91.977310,343.558350 
z"/>
<path fill="#082647" opacity="1.000000" stroke="none" 
	d="
M41.860558,361.114563 
	C41.219910,359.770111 40.147697,358.420837 40.080269,357.023102 
	C39.856861,352.391998 39.691204,347.717682 40.080231,343.108673 
	C40.475185,338.429382 39.050255,336.194519 33.721733,336.950470 
	C32.195045,336.599518 31.038759,336.380371 30.000708,335.903687 
	C26.309435,334.208710 24.182213,331.391235 24.894005,327.226074 
	C25.591394,323.145172 28.177229,320.853851 32.443935,320.801880 
	C37.255600,320.743225 42.068031,320.747559 47.331314,320.724304 
	C46.423496,326.118469 46.875488,331.155762 50.387447,335.930420 
	C47.443916,336.332977 44.814232,336.332977 41.953640,336.332977 
	C41.953640,344.854584 41.953640,352.948273 41.953640,361.041992 
	C41.953640,361.041992 41.889256,361.087524 41.860558,361.114563 
z"/>
<path fill="#394A67" opacity="1.000000" stroke="none" 
	d="
M602.297485,312.643799 
	C601.997253,307.115417 601.976501,301.617493 602.180786,296.127960 
	C602.290466,293.180695 601.313110,291.753784 598.199158,291.999908 
	C596.212402,292.156952 594.203003,292.027130 592.203796,292.026581 
	C488.077759,291.998291 383.951691,291.970062 279.349060,291.907898 
	C280.417969,291.571045 281.963440,291.003235 283.508942,291.003021 
	C388.498871,290.988953 493.488770,291.020477 598.478699,291.048096 
	C599.946899,291.048462 601.415100,291.048157 603.650391,291.048157 
	C603.310364,298.555328 602.990479,305.616547 602.297485,312.643799 
z"/>
<path fill="#FBD01F" opacity="1.000000" stroke="none" 
	d="
M478.861877,191.656677 
	C474.691254,191.974304 470.665436,191.952271 466.222473,191.993896 
	C463.406158,186.839127 461.006989,181.620697 458.292664,175.716843 
	C467.725128,175.716843 476.363068,175.716843 485.669037,175.716843 
	C483.380310,181.075958 481.193481,186.196472 478.861877,191.656677 
z"/>
<path fill="#161B28" opacity="1.000000" stroke="none" 
	d="
M3.107119,375.499817 
	C3.455618,376.303375 3.958436,377.566803 3.959463,378.830627 
	C3.999029,427.506256 3.994276,476.181885 3.978803,524.857544 
	C3.978543,525.674377 3.774372,526.491272 3.423185,527.640503 
	C3.119681,512.027039 3.014648,496.081238 3.005973,480.135376 
	C2.987082,445.410217 3.017286,410.685028 3.107119,375.499817 
z"/>
<path fill="#394A67" opacity="1.000000" stroke="none" 
	d="
M278.529785,292.139343 
	C278.828278,298.022339 278.782745,304.171814 278.587158,310.791199 
	C278.353333,304.976044 278.269562,298.690948 278.529785,292.139343 
z"/>
<path fill="#082647" opacity="1.000000" stroke="none" 
	d="
M31.300220,361.611511 
	C27.293573,361.813171 22.865316,361.870148 17.930660,361.940369 
	C21.909046,361.791321 26.393827,361.629059 31.300220,361.611511 
z"/>
<path fill="#EA4B2B" opacity="1.000000" stroke="none" 
	d="
M427.293518,104.216446 
	C428.295990,103.976776 429.266876,103.995872 430.597473,104.073708 
	C429.954437,104.421021 428.951691,104.709602 427.618073,104.997093 
	C427.278778,104.822411 427.270355,104.648811 427.293518,104.216446 
z"/>
<path fill="#082647" opacity="1.000000" stroke="none" 
	d="
M16.664352,361.767273 
	C16.183569,362.093597 15.323728,362.340210 14.246038,362.370483 
	C14.780559,361.998627 15.532927,361.843109 16.664352,361.767273 
z"/>
<path fill="#394A67" opacity="1.000000" stroke="none" 
	d="
M278.817200,311.805725 
	C278.998505,311.640442 279.332703,311.691132 279.815552,311.963165 
	C279.632843,312.130249 279.301453,312.075958 278.817200,311.805725 
z"/>
<path fill="#E9EAEA" opacity="1.000000" stroke="none" 
	d="
M42.399094,361.210754 
	C41.953640,352.948273 41.953640,344.854584 41.953640,336.332977 
	C44.814232,336.332977 47.443916,336.332977 50.511055,336.272034 
	C60.689018,343.859161 68.662727,344.026855 76.790222,336.510742 
	C79.142403,336.271606 81.272400,336.271606 83.755890,336.271606 
	C83.755890,344.686188 83.755890,352.709625 83.755890,361.379517 
	C70.173645,361.379517 56.509098,361.379517 42.399094,361.210754 
z"/>
<path fill="#F6D134" opacity="1.000000" stroke="none" 
	d="
M386.127716,478.004181 
	C412.560730,478.004120 438.513153,477.997040 464.465607,478.007324 
	C472.431641,478.010498 474.380249,481.255676 470.412628,488.227417 
	C462.781952,501.635773 452.669159,512.436951 437.350952,516.768616 
	C417.070099,522.503601 396.662231,514.820801 383.983734,497.071045 
	C381.581909,493.708527 379.486023,490.095215 377.554810,486.436218 
	C374.536377,480.717285 376.207275,478.088745 382.652679,478.002808 
	C383.650665,477.989502 384.648987,478.002899 386.127716,478.004181 
M457.357788,487.412201 
	C456.879883,487.287170 456.402100,487.053467 455.924011,487.052795 
	C435.148621,487.023041 414.373169,486.992828 393.597992,487.058014 
	C392.434540,487.061646 391.273651,487.872192 390.496399,488.819275 
	C401.280243,506.369080 421.379547,513.539062 439.442871,505.781677 
	C447.675842,502.246002 454.784851,497.002960 457.357788,487.412201 
z"/>
<path fill="#F3CF34" opacity="1.000000" stroke="none" 
	d="
M450.097900,420.033142 
	C448.244965,421.978912 446.950928,424.264618 445.002594,425.230316 
	C443.164001,426.141632 440.072388,426.517059 438.587219,425.533966 
	C437.346680,424.712830 436.643188,421.104828 437.396759,419.555298 
	C444.203705,405.558441 463.058105,401.144653 475.503906,410.506409 
	C478.272461,412.588928 480.685425,415.183624 483.075317,417.718536 
	C485.337463,420.117889 486.402283,422.982239 483.567566,425.604309 
	C480.602081,428.347260 478.086609,426.434906 475.832733,424.205780 
	C474.768799,423.153534 473.818207,421.985504 472.740845,420.948273 
	C464.893555,413.392944 459.082428,413.102386 450.097900,420.033142 
z"/>
<path fill="#F4D034" opacity="1.000000" stroke="none" 
	d="
M399.120544,420.870483 
	C389.327698,412.540436 382.350037,413.081085 374.075226,422.485016 
	C372.884308,423.838470 371.757080,425.699310 370.235931,426.185730 
	C368.669342,426.686707 366.090637,426.384705 365.002380,425.341370 
	C363.957367,424.339386 363.366211,421.335846 364.103790,420.246521 
	C369.585663,412.150177 376.414398,405.739075 386.972565,405.447693 
	C397.601318,405.154297 404.664459,411.372223 410.428131,419.251160 
	C411.343567,420.502594 410.763306,424.182709 409.552521,425.276245 
	C408.363281,426.350372 405.255707,426.146576 403.425415,425.414673 
	C401.767517,424.751648 400.696747,422.620453 399.120544,420.870483 
z"/>
<path fill="#F2C825" opacity="1.000000" stroke="none" 
	d="
M464.968414,249.036804 
	C464.075531,244.848495 464.972290,241.339813 468.699738,239.969757 
	C470.841858,239.182434 474.498199,239.298492 475.945221,240.647095 
	C477.771393,242.349014 479.001923,245.847351 478.677551,248.334442 
	C478.416809,250.333954 475.768890,252.801178 473.632294,253.605591 
	C469.851715,255.028992 467.026489,252.644882 464.968414,249.036804 
z"/>
<path fill="#F1C826" opacity="1.000000" stroke="none" 
	d="
M472.010559,280.736877 
	C467.367279,279.934296 464.482880,277.786530 464.882660,273.044067 
	C465.222504,269.013031 467.836304,266.611359 471.676361,266.252106 
	C475.610535,265.884033 478.303986,268.113342 479.476532,271.892761 
	C480.724487,275.915222 478.070190,279.161804 472.010559,280.736877 
z"/>
<path fill="#0B2A4D" opacity="1.000000" stroke="none" 
	d="
M529.251343,567.571045 
	C511.081818,565.130066 493.362152,565.204224 475.673523,568.206299 
	C469.771332,569.208069 467.574432,566.421631 469.706543,560.867004 
	C474.800171,547.597107 491.184692,536.104736 505.043396,536.081177 
	C518.636353,536.058105 534.375977,547.019714 539.479797,560.397339 
	C540.210510,562.312561 540.361084,565.417725 539.278809,566.775574 
	C538.255737,568.059265 535.268799,567.885071 533.120239,568.120422 
	C531.995056,568.243652 530.815369,567.869446 529.251343,567.571045 
M511.242645,557.257324 
	C516.253479,557.529724 521.264282,557.802063 526.766174,558.101196 
	C516.022583,541.703186 489.736969,545.186035 483.810638,557.246521 
	C492.526733,557.246521 501.410034,557.246521 511.242645,557.257324 
z"/>
<path fill="#0E2A4D" opacity="1.000000" stroke="none" 
	d="
M554.350342,497.571838 
	C543.841553,501.806549 534.310059,499.579407 527.398193,491.554138 
	C525.301208,489.119324 523.670532,486.521118 526.511292,483.688385 
	C529.310120,480.897461 531.596924,482.894104 533.803833,484.873932 
	C541.882446,492.121368 546.417419,492.356964 554.707214,485.789032 
	C556.953491,484.009308 559.076599,483.255219 561.322632,485.447144 
	C563.790344,487.855408 562.989929,490.378540 560.897522,492.434570 
	C559.018677,494.280731 556.768860,495.749359 554.350342,497.571838 
z"/>
<path fill="#EA4B2B" opacity="1.000000" stroke="none" 
	d="
M514.119385,104.257889 
	C514.028503,104.123268 514.498535,104.026695 514.732910,104.077606 
	C514.967346,104.128510 514.641113,104.467339 514.641113,104.467339 
	C514.641113,104.467339 514.210266,104.392509 514.119385,104.257889 
z"/>
<path fill="#FAD40B" opacity="1.000000" stroke="none" 
	d="
M494.987854,70.944969 
	C496.791901,71.280487 498.201385,71.565186 500.383820,72.006020 
	C495.796722,76.713234 490.471161,77.015472 485.351501,77.966660 
	C482.845367,78.432274 480.146332,78.888496 478.021912,80.161934 
	C473.828003,82.675888 470.071320,82.540436 465.853210,80.264008 
	C463.512512,79.000793 460.676392,78.649162 458.056946,77.910187 
	C453.421997,76.602638 448.781982,75.313042 444.280396,72.965294 
	C451.198822,71.127930 457.338043,66.108231 463.406281,68.998734 
	C466.849060,66.693878 469.554169,63.531059 472.401123,63.397751 
	C474.746521,63.287930 477.260040,66.768211 480.324951,69.142303 
	C484.561981,66.158089 489.433380,70.167030 494.987854,70.944969 
z"/>
<path fill="#E5C81D" opacity="1.000000" stroke="none" 
	d="
M336.704224,193.569824 
	C332.026031,199.425369 326.140198,200.192703 319.818481,198.343811 
	C313.946381,196.626373 310.811584,191.531281 310.912933,184.892990 
	C311.004669,178.884079 314.725128,173.773636 320.219147,172.109985 
	C326.427460,170.230011 332.871857,172.326828 336.620789,177.437241 
	C340.441406,182.645477 340.089722,187.925400 336.704224,193.569824 
M325.764465,185.897568 
	C326.637512,187.141586 327.510559,188.385590 329.082062,190.624847 
	C330.140137,187.418930 330.671478,185.808945 331.202850,184.198944 
	C330.882233,183.740372 330.561615,183.281799 330.240967,182.823212 
	C328.819550,183.604172 327.398132,184.385132 325.764465,185.897568 
M318.799530,185.832855 
	C320.016632,186.146515 321.233734,186.460190 322.674011,186.831360 
	C323.195068,184.993744 323.625244,183.476593 324.025696,182.064255 
	C319.414459,179.186188 319.045349,182.443390 318.799530,185.832855 
z"/>
<path fill="#102F51" opacity="1.000000" stroke="none" 
	d="
M457.975220,487.961945 
	C454.784851,497.002960 447.675842,502.246002 439.442871,505.781677 
	C421.379547,513.539062 401.280243,506.369080 390.759399,488.495117 
	C413.340027,488.101288 435.657623,488.031616 457.975220,487.961945 
z"/>
<path fill="#F0E230" opacity="1.000000" stroke="none" 
	d="
M457.666504,487.687073 
	C435.657623,488.031616 413.340027,488.101288 390.567017,488.239075 
	C391.273651,487.872192 392.434540,487.061646 393.597992,487.058014 
	C414.373169,486.992828 435.148621,487.023041 455.924011,487.052795 
	C456.402100,487.053467 456.879883,487.287170 457.666504,487.687073 
z"/>
<path fill="#D5452F" opacity="1.000000" stroke="none" 
	d="
M510.767975,557.251953 
	C501.410034,557.246521 492.526733,557.246521 483.810638,557.246521 
	C489.736969,545.186035 516.022583,541.703186 526.766174,558.101196 
	C521.264282,557.802063 516.253479,557.529724 510.767975,557.251953 
z"/>
<path fill="#233550" opacity="1.000000" stroke="none" 
	d="
M325.870575,185.531830 
	C327.398132,184.385132 328.819550,183.604172 330.240967,182.823212 
	C330.561615,183.281799 330.882233,183.740372 331.202850,184.198944 
	C330.671478,185.808945 330.140137,187.418930 329.082062,190.624847 
	C327.510559,188.385590 326.637512,187.141586 325.870575,185.531830 
z"/>
<path fill="#233550" opacity="1.000000" stroke="none" 
	d="
M318.586914,185.533966 
	C319.045349,182.443390 319.414459,179.186188 324.025696,182.064255 
	C323.625244,183.476593 323.195068,184.993744 322.674011,186.831360 
	C321.233734,186.460190 320.016632,186.146515 318.586914,185.533966 
z"/>
</svg>