<svg version="1.1" id="Layer_1" xmlns="http://www.w3.org/2000/svg" xmlns:xlink="http://www.w3.org/1999/xlink" x="0px" y="0px"
	 width="100%" viewBox="0 0 304 272" enable-background="new 0 0 304 272" xml:space="preserve">
<path fill="#000000" opacity="1.000000" stroke="none" 
	d="
M212.894043,144.110733 
	C210.968063,145.306015 209.421310,144.202667 207.801422,143.318954 
	C203.171082,140.792938 199.090424,137.141937 193.399612,136.799759 
	C191.725616,136.699097 190.252121,135.287094 190.474731,133.333450 
	C190.725098,131.136383 192.551941,130.295746 194.480728,130.328156 
	C197.881439,130.385269 200.921066,131.839905 203.837936,133.454803 
	C206.006210,134.655243 208.083221,136.020493 211.192703,137.917374 
	C210.851654,134.551392 211.015549,131.899277 210.266083,129.536957 
	C207.536133,120.932373 207.287704,111.868744 205.001694,103.166718 
	C202.779449,94.707451 205.465179,87.803040 213.837128,83.684563 
	C213.173553,80.969269 212.926575,78.252342 211.847885,75.920097 
	C209.933945,71.782005 211.761063,70.419540 215.474487,69.926353 
	C221.027390,69.188843 222.682327,66.063438 220.316574,60.822681 
	C218.644058,57.117615 219.625107,55.498455 223.856110,54.980896 
	C230.803543,54.131039 230.890503,54.132942 231.042175,47.174587 
	C231.125626,43.346638 232.003113,40.759869 236.630447,40.742500 
	C241.206482,40.725338 242.227798,43.080654 242.215698,47.053875 
	C242.194168,54.125355 242.321838,54.121796 249.600632,54.990955 
	C253.432327,55.448498 254.861771,56.967331 253.137405,61.039608 
	C250.690720,66.817772 252.110977,68.979546 258.224274,69.908539 
	C261.816223,70.454369 263.557373,72.240173 261.531494,75.707253 
	C260.125732,78.113060 260.762268,80.940102 259.081299,83.413696 
	C269.696991,88.380104 269.747192,97.054092 267.701569,106.651062 
	C265.561005,116.693321 263.728027,126.801147 261.621033,137.595322 
	C266.876099,135.688965 270.310425,131.930634 275.082611,130.979263 
	C276.711273,130.654556 278.291656,129.967331 279.981171,130.403320 
	C281.352264,130.757141 282.373505,131.630783 282.764801,133.015488 
	C283.207520,134.582077 282.266022,136.017059 281.042633,136.201340 
	C274.214691,137.229996 268.984711,141.598358 263.016327,144.405014 
	C262.381104,144.703735 261.426300,144.322922 260.309875,144.128403 
	C260.000000,143.999451 259.996338,143.993835 259.961121,143.619736 
	C258.488525,137.113312 254.911407,135.140442 249.431320,137.409882 
	C247.031281,138.403793 245.327301,140.181992 243.734695,142.136047 
	C239.212143,147.684952 237.559418,148.042023 230.979156,144.985962 
	C230.996017,145.003799 231.029663,145.039536 230.938782,144.700226 
	C229.859680,141.997345 228.325684,140.068634 226.200745,138.636047 
	C219.887375,134.379730 214.260788,136.640778 213.022278,143.955414 
	C212.980438,144.007935 212.894043,144.110733 212.894043,144.110733 
z"/>
<path fill="#000000" opacity="1.000000" stroke="none" 
	d="
M90.329590,100.452682 
	C87.185822,102.686737 86.566223,105.187805 87.736084,108.529388 
	C89.272209,112.917206 90.393311,117.449387 91.731483,121.907898 
	C92.270050,123.702255 92.679840,125.528778 91.799858,127.261490 
	C90.967331,128.900757 89.841820,130.522705 87.863075,130.783234 
	C85.951904,131.034866 85.549019,129.137589 84.787888,127.945702 
	C81.580040,122.922379 78.448410,117.850372 75.297249,112.809555 
	C70.717949,113.750938 67.700851,117.687233 62.928337,117.530716 
	C62.308620,114.540703 63.892361,112.406502 65.309181,110.558311 
	C68.396027,106.531647 67.207489,104.188675 63.056774,102.103500 
	C59.644501,100.389290 56.398396,98.297424 53.250164,96.124443 
	C51.689724,95.047394 48.441936,94.443336 50.107643,91.504936 
	C51.504093,89.041519 53.660107,86.996162 57.101486,88.099327 
	C62.006927,89.671814 66.996086,91.010193 71.823349,92.790581 
	C75.413704,94.114769 77.590683,93.100197 79.870316,90.155128 
	C84.352028,84.365181 89.010292,78.664452 94.082382,73.395485 
	C97.504387,69.840660 96.839523,67.346146 93.329002,64.953094 
	C84.523621,58.950645 75.633301,53.072701 66.771187,47.153603 
	C63.724205,45.118496 60.609100,43.180702 57.625702,41.057148 
	C56.219116,40.055958 54.115566,39.038200 55.435139,36.743519 
	C56.573940,34.763195 58.252586,33.516712 60.843979,34.311806 
	C66.241104,35.967773 71.683243,37.477169 77.078789,39.138042 
	C79.804115,39.976967 82.105721,39.948391 84.428490,37.817204 
	C89.328979,33.320896 94.357674,34.784157 95.803146,41.306255 
	C96.840233,45.985641 99.046440,45.155754 101.693810,43.214188 
	C108.791435,38.008812 112.786819,39.616390 114.568481,48.595932 
	C117.375572,48.996861 118.629593,46.734093 120.235313,45.184330 
	C127.539803,38.134380 134.437088,30.565266 144.824585,27.830805 
	C147.193100,27.207306 149.357788,26.577049 151.357361,28.465431 
	C153.343109,30.340719 153.041550,32.634781 152.474243,34.983688 
	C150.302032,43.977634 144.394989,50.479958 138.165619,56.840115 
	C135.798233,59.257214 132.695786,61.184109 131.560257,64.815887 
	C133.413269,66.209389 135.731125,66.001724 137.375061,67.675056 
	C140.917908,71.281273 141.146545,73.095078 137.715866,76.919182 
	C133.958847,81.107040 134.204498,82.147430 139.414551,84.113785 
	C144.608185,86.073944 146.080521,90.986870 142.352890,94.958992 
	C140.063217,97.398811 139.681183,100.022774 140.741150,102.758423 
	C142.741104,107.920097 143.358673,113.425835 145.077347,118.624878 
	C145.995865,121.403404 145.240265,123.264938 142.973785,124.526703 
	C140.328156,125.999542 139.432632,123.464622 138.434677,121.947220 
	C131.843887,111.925949 125.359077,101.834961 118.843597,91.764191 
	C118.572495,91.345161 118.356186,90.890770 118.086449,90.470772 
	C113.056541,82.638985 111.599487,82.385223 104.676086,88.227379 
	C99.967270,92.200806 95.292587,96.214691 90.329590,100.452682 
z"/>
<path fill="#000000" opacity="1.000000" stroke="none" 
	d="
M195.692688,192.409912 
	C198.197037,199.325348 205.028183,204.220963 203.338608,212.355927 
	C203.104080,213.485123 203.527161,215.137680 202.887115,215.734970 
	C197.519165,220.744415 199.839813,227.203400 199.442612,233.104660 
	C199.185837,236.919632 199.266190,240.770874 199.422104,244.596634 
	C199.625443,249.585556 199.397415,254.271088 194.627045,257.419952 
	C192.897827,258.561401 193.246979,260.691681 192.941559,262.465637 
	C192.351517,265.892883 190.281906,267.841217 186.861557,268.014282 
	C183.456009,268.186615 180.907257,266.541290 180.307266,263.128754 
	C179.750336,259.961182 178.153290,259.111481 175.172119,259.186890 
	C168.678391,259.351044 162.177567,259.278168 155.680161,259.230927 
	C153.302872,259.213654 151.411240,259.427307 151.271210,262.534912 
	C151.106720,266.185272 148.575455,267.841461 145.303177,268.062500 
	C141.630356,268.310608 139.078110,266.104187 138.455139,262.718964 
	C137.846649,259.412445 136.371185,256.933075 134.172180,254.570511 
	C132.132507,252.379120 131.796692,249.522354 131.811829,246.619400 
	C131.845718,240.121384 131.854019,233.623093 131.843552,227.124985 
	C131.837219,223.191406 132.143753,219.456192 128.943726,216.007767 
	C126.243500,213.097931 127.927719,204.674301 130.957794,201.861816 
	C131.706009,201.167297 132.532654,200.582214 132.720428,199.546661 
	C134.473480,189.879196 142.192551,186.229874 150.095779,184.385529 
	C163.202805,181.326782 176.531143,181.115067 189.107376,187.384155 
	C191.479156,188.566452 193.803436,189.930099 195.692688,192.409912 
M144.840393,234.735886 
	C158.824051,234.737961 172.808075,234.683380 186.791122,234.776886 
	C190.952637,234.804703 192.920090,233.210953 192.825363,228.874054 
	C192.672714,221.885818 192.807663,214.891388 192.810837,207.899582 
	C192.814377,200.078461 192.074127,199.078354 184.280121,199.418671 
	C170.967804,199.999954 157.663879,200.137817 144.350830,199.723297 
	C140.925858,199.616638 138.927032,200.969742 138.933838,204.605087 
	C138.949982,213.242783 138.934296,221.880768 139.005707,230.518021 
	C139.031967,233.695282 140.952454,234.888916 144.840393,234.735886 
M157.705185,191.452484 
	C156.596970,191.897690 155.060623,193.208710 156.958572,193.497742 
	C163.002502,194.418076 169.151535,194.307892 175.218918,192.620270 
	C169.696259,190.823471 164.064713,191.333969 157.705185,191.452484 
M147.267456,243.114044 
	C145.278732,241.668243 143.563995,241.955017 142.190811,243.981537 
	C141.351944,245.219513 141.390808,246.485794 142.397430,247.627335 
	C143.520309,248.900726 144.981949,249.227692 146.440613,248.473038 
	C148.533127,247.390381 149.277634,245.759552 147.267456,243.114044 
M188.657227,248.216705 
	C190.275040,246.435806 190.278259,244.584549 188.597626,242.931549 
	C187.527725,241.879288 186.144226,242.010895 184.924698,242.854675 
	C183.555496,243.801971 182.912796,245.146759 183.488647,246.749924 
	C184.276077,248.942154 186.035645,249.102722 188.657227,248.216705 
z"/>
<path fill="#000000" opacity="1.000000" stroke="none" 
	d="
M30.600206,221.999893 
	C30.596195,215.010590 30.964043,208.495438 30.515320,202.037048 
	C29.411953,186.156555 34.538269,181.827972 47.766357,177.614441 
	C61.000408,173.399017 74.378426,174.548279 86.521660,182.432632 
	C91.387100,185.591690 93.833382,190.155502 93.881966,195.828964 
	C94.007347,210.470413 94.048157,225.114426 93.912865,239.755478 
	C93.839264,247.720535 89.908150,251.867767 81.914070,252.016312 
	C68.441986,252.266647 54.958786,252.237152 41.485985,251.999985 
	C34.416245,251.875519 30.702562,247.638504 30.626217,240.470108 
	C30.562429,234.480621 30.605034,228.489990 30.600206,221.999893 
M87.794899,219.181168 
	C87.794785,212.700897 87.774246,206.220551 87.801849,199.740402 
	C87.819908,195.499756 86.029686,193.283096 81.517960,193.316223 
	C68.724319,193.410202 55.929317,193.383575 43.135265,193.320145 
	C38.987179,193.299576 37.062408,195.034256 37.158367,199.319519 
	C37.318287,206.460953 37.400547,213.615128 37.146687,220.750809 
	C36.986530,225.252625 38.557835,226.965240 43.167583,226.884109 
	C55.791908,226.661896 68.425720,226.645401 81.049400,226.884308 
	C86.103630,226.979980 88.082382,224.883041 87.794899,219.181168 
M60.583534,185.385193 
	C57.985516,185.976364 54.677433,183.935211 52.192356,188.019516 
	C59.316753,189.115326 65.754265,189.150604 73.604866,187.942062 
	C69.031631,184.525940 65.127617,185.699753 60.583534,185.385193 
M45.748558,235.364792 
	C43.845150,233.887039 42.034882,233.859421 40.753120,236.054932 
	C39.872936,237.562576 39.860497,239.253525 41.195641,240.628418 
	C42.225647,241.689102 43.591564,241.978256 44.812561,241.189163 
	C46.807671,239.899750 47.976063,238.210815 45.748558,235.364792 
M79.210136,234.838043 
	C77.129425,236.356430 76.704437,238.212036 78.273773,240.300919 
	C79.128876,241.439148 80.412148,241.935928 81.753479,241.256760 
	C83.255562,240.496246 84.629814,239.358627 84.219460,237.455307 
	C83.736855,235.216858 82.149429,234.241516 79.210136,234.838043 
z"/>
<path fill="#000000" opacity="1.000000" stroke="none" 
	d="
M302.269592,241.244751 
	C302.271454,244.371521 302.644257,247.098114 302.196442,249.682526 
	C301.124146,255.871445 296.414703,260.510529 294.600433,266.497162 
	C294.112122,268.108368 291.253113,268.427277 289.180206,267.611694 
	C286.623444,266.605774 284.799744,264.642120 284.964264,261.982758 
	C285.271667,257.014008 282.738464,256.229004 278.571289,256.329407 
	C269.758484,256.541718 260.937256,256.443115 252.119812,256.403534 
	C248.941437,256.389252 246.712845,257.003265 246.650330,260.966522 
	C246.589142,264.845367 244.729141,268.026703 240.421204,267.905945 
	C236.033798,267.782959 234.801422,264.432312 234.699814,260.547760 
	C234.665604,259.239777 234.960052,257.575684 233.594742,256.925446 
	C230.965240,255.673218 229.153931,253.886719 229.025574,250.936462 
	C228.802231,245.802673 228.316101,240.606003 230.749039,235.762985 
	C230.972519,235.318130 231.503891,234.883667 231.472870,234.476334 
	C230.668488,223.912384 243.459549,223.806091 246.030090,215.591766 
	C246.741608,213.318024 250.374954,212.882278 253.152100,212.886749 
	C261.636932,212.900436 270.121887,212.896027 278.606689,212.870285 
	C282.790741,212.857605 285.905304,214.512802 288.036713,218.232269 
	C289.980591,221.624527 291.624115,225.534607 296.709564,225.188797 
	C297.705444,225.121078 298.938782,226.132599 298.848755,226.987717 
	C298.317139,232.038177 302.593140,235.837402 302.269592,241.244751 
M256.723694,219.318146 
	C249.399979,219.341537 247.614594,220.788086 245.971130,228.430756 
	C259.337891,228.430756 272.600189,228.430756 286.006897,228.430756 
	C283.578278,220.157532 282.526031,219.315872 275.108459,219.318954 
	C269.296173,219.321365 263.483887,219.318985 256.723694,219.318146 
M291.681427,238.037247 
	C289.044464,236.881500 287.561493,238.264740 286.697571,240.502594 
	C285.983002,242.353439 287.027344,243.705673 288.548431,244.620941 
	C289.980286,245.482544 291.441528,245.360168 292.583954,244.062988 
	C294.301514,242.112701 294.178314,240.197037 291.681427,238.037247 
M242.838943,237.939713 
	C240.386841,236.969498 239.048691,238.285965 238.330307,240.356476 
	C237.740326,242.056915 238.205185,243.642349 239.820648,244.651505 
	C241.283325,245.565247 242.808228,245.327652 243.831879,244.067703 
	C245.397369,242.140793 245.181931,240.127121 242.838943,237.939713 
z"/>
<path fill="#000000" opacity="1.000000" stroke="none" 
	d="
M260.002197,144.001511 
	C260.575256,146.242096 261.146118,148.480621 261.777557,150.956757 
	C266.301941,150.517715 268.939026,146.925171 272.351929,144.789642 
	C275.651123,142.725266 278.865936,140.718857 282.950928,141.029083 
	C285.075287,141.190430 287.128052,141.712982 287.058014,144.360352 
	C286.998779,146.597992 285.309479,147.516953 283.274231,147.470551 
	C278.881989,147.370468 275.842773,150.057312 272.630371,152.409775 
	C270.078552,154.278473 267.638458,156.313782 264.530426,157.258652 
	C258.625153,159.053864 255.833389,157.381607 254.599197,151.279099 
	C253.693909,146.802917 251.630569,145.998779 248.167725,148.960861 
	C246.535339,150.357178 245.272049,152.175278 243.735397,153.694992 
	C239.072189,158.306808 234.452759,158.328140 229.742691,153.801941 
	C227.825851,151.959946 226.127502,149.839493 224.017776,148.263306 
	C221.776749,146.589020 219.837433,146.587158 218.966003,150.093964 
	C216.853455,158.595245 212.361191,160.211502 204.904572,155.418762 
	C199.671005,152.054932 195.329300,146.976685 188.273895,147.098282 
	C186.975693,147.120651 185.968933,145.695801 186.145203,144.160355 
	C186.343231,142.435364 187.622635,141.562317 189.195770,141.295990 
	C193.428665,140.579361 196.991089,142.253952 200.403687,144.532974 
	C203.811768,146.808945 206.771118,149.855530 210.885468,151.127335 
	C212.511124,149.118225 212.308334,146.863602 212.862289,144.473053 
	C212.894043,144.110733 212.980438,144.007935 213.290802,143.759949 
	C217.484009,139.373352 221.778305,139.022690 226.457443,142.100952 
	C227.970901,143.096603 229.505005,144.060898 231.029663,145.039536 
	C231.029663,145.039536 230.996017,145.003799 231.129974,145.291748 
	C235.538544,151.824249 236.688629,151.933014 241.625107,146.632980 
	C242.640656,145.542679 243.664581,144.430099 244.832443,143.516754 
	C251.136169,138.586838 254.474930,138.715866 259.996338,143.993835 
	C259.996338,143.993835 260.000000,143.999451 260.002197,144.001511 
z"/>
<path fill="#000000" opacity="1.000000" stroke="none" 
	d="
M27.918659,269.010803 
	C31.148296,264.334534 34.212700,259.982178 37.260376,255.618179 
	C38.129356,254.373871 39.033035,253.290375 40.646778,252.883179 
	C45.753750,251.594543 47.925949,253.044647 48.298473,258.133514 
	C53.031296,259.154755 72.330040,259.069031 76.954575,257.998077 
	C77.890411,256.584625 75.823799,255.178925 76.900963,253.756622 
	C83.128960,251.656387 85.410637,252.266068 88.787865,257.089600 
	C91.874229,261.497711 94.889061,265.955933 98.442711,271.130798 
	C92.948822,272.080994 88.775230,273.558014 85.652199,268.918182 
	C84.460617,267.147888 82.579338,267.147247 80.726440,267.146606 
	C68.743729,267.142487 56.760788,267.179260 44.778473,267.108734 
	C42.100147,267.092957 40.108242,267.843842 38.293007,269.990021 
	C35.503620,273.287994 31.693787,272.358032 28.138723,271.485870 
	C27.212637,271.258698 27.409220,270.147430 27.918659,269.010803 
z"/>
</svg>