<svg version="1.1" id="Layer_1" xmlns="http://www.w3.org/2000/svg" xmlns:xlink="http://www.w3.org/1999/xlink" x="0px" y="0px"
	 width="100%" viewBox="0 0 1495 245" enable-background="new 0 0 1495 245" xml:space="preserve">
<path fill="#F1F2F4" opacity="1.000000" stroke="none" 
	d="
M825.000000,246.000000 
	C800.312439,246.000000 775.624878,246.000000 750.583496,245.623779 
	C748.494202,235.298965 745.474304,225.378128 745.258728,215.396683 
	C744.546143,182.418762 744.808716,149.419006 744.777405,116.427559 
	C744.765869,104.248024 742.571777,92.919525 733.711548,83.728699 
	C725.939941,75.667107 716.411377,70.648094 705.719543,68.094368 
	C680.677246,62.113026 655.507385,61.962505 630.506592,68.263031 
	C617.353027,71.577888 605.692993,77.894608 596.553589,88.255447 
	C587.858032,98.113091 583.690186,109.645378 583.263123,122.922455 
	C599.729492,122.922455 615.655396,122.922455 631.392700,122.922455 
	C631.670593,122.518753 631.811279,122.398659 631.843567,122.254311 
	C632.133484,120.957710 632.431580,119.661949 632.676514,118.356438 
	C634.817688,106.943695 641.553955,99.319000 652.943420,97.830330 
	C661.698303,96.686005 670.907227,96.896858 679.641418,98.257004 
	C690.187744,99.899376 695.473816,107.808372 695.820618,119.213158 
	C696.115356,128.906464 692.252075,133.656845 681.194824,137.106873 
	C679.450073,137.651276 677.669678,138.159149 675.867615,138.430359 
	C660.552795,140.735168 645.191895,142.758209 629.920105,145.315552 
	C617.704590,147.361069 605.623596,150.431091 595.594482,158.139191 
	C577.552673,172.005692 575.129578,191.150299 579.022095,211.787170 
	C581.601318,225.461624 589.550049,235.675934 601.710938,242.554779 
	C603.538757,243.588699 605.240112,244.846024 607.000000,246.000000 
	C587.645752,246.000000 568.291565,246.000000 548.465210,245.531357 
	C547.991150,210.065826 548.356995,175.063034 547.793396,140.075195 
	C547.588257,127.340408 546.270447,114.394470 543.491516,101.985771 
	C539.658936,84.872139 528.524780,72.901436 511.520599,67.980431 
	C502.525665,65.377312 492.864716,63.846478 483.521515,63.922710 
	C461.663544,64.101059 443.873291,72.921432 431.648682,92.055191 
	C430.826233,92.176735 430.357788,92.248779 429.912415,91.832558 
	C429.957001,61.229527 429.978485,31.114763 430.000000,1.000000 
	C589.020874,1.000000 748.041809,1.000000 907.402283,1.453512 
	C907.741882,30.962572 907.741882,60.018120 907.741882,88.771561 
	C901.256775,83.276230 895.715149,77.043129 888.869751,73.038948 
	C854.483459,52.924919 809.668030,65.349091 789.641113,100.467545 
	C773.968018,127.951454 772.245056,157.378754 779.474304,187.611313 
	C785.762207,213.907486 800.364075,233.914124 825.000000,246.000000 
z"/>
<path fill="#EECE5F" opacity="1.000000" stroke="none" 
	d="
M1158.000000,0.999999 
	C1216.354248,1.000000 1274.708496,1.000000 1333.518066,1.468509 
	C1333.970703,30.050535 1333.975464,58.164059 1333.963257,86.277573 
	C1333.940308,139.176804 1333.907349,192.076019 1333.421143,244.981659 
	C1277.151733,244.990982 1221.340088,244.995117 1165.528320,244.992554 
	C1163.128540,244.992447 1160.728882,244.930542 1158.259888,244.440628 
	C1158.175049,165.153427 1158.160522,86.323006 1158.137695,7.492590 
	C1158.137085,5.328380 1158.047974,3.164195 1158.000000,0.999999 
z"/>
<path fill="#11245C" opacity="1.000000" stroke="none" 
	d="
M982.000000,1.000000 
	C1039.687622,1.000000 1097.375122,1.000000 1155.543701,1.468533 
	C1156.016479,82.916695 1156.008179,163.896332 1155.531006,244.900162 
	C1097.475952,244.912170 1039.889648,244.899979 982.170776,244.443497 
	C982.025513,162.999466 982.012756,81.999733 982.000000,1.000000 
z"/>
<path fill="#F1F2F4" opacity="1.000000" stroke="none" 
	d="
M199.000000,1.000000 
	C259.354218,1.000000 319.708466,1.000000 380.575409,1.466890 
	C381.074982,10.252180 381.052338,18.570578 381.050201,26.888981 
	C381.031403,99.925987 381.016235,172.962997 381.000000,246.000000 
	C354.979095,246.000000 328.958221,246.000000 302.533752,245.635422 
	C330.919952,235.409576 349.591858,210.513199 352.559875,178.555237 
	C351.281555,178.449310 350.000580,178.253418 348.719208,178.250916 
	C336.723511,178.227417 324.715912,178.548462 312.737274,178.095734 
	C307.360962,177.892532 305.506287,179.456879 304.365814,184.806595 
	C300.726196,201.878998 288.997223,212.387634 273.095612,213.950256 
	C254.091614,215.817749 240.829849,208.846481 233.528595,192.014618 
	C230.523117,185.085922 228.332443,177.499054 227.449280,170.013565 
	C225.116470,150.241318 226.711823,130.977234 239.475342,114.380035 
	C249.351624,101.537285 262.763428,98.594124 277.941467,101.484848 
	C292.200500,104.200554 300.255096,113.318352 303.204163,127.147881 
	C303.930817,130.555450 305.544769,131.235153 308.675140,131.180023 
	C318.501923,131.007050 328.333740,131.119171 338.163605,131.120438 
	C342.603302,131.121002 347.043030,131.120529 351.899109,131.120529 
	C350.616180,108.893333 341.286316,91.823730 323.693939,79.536369 
	C303.574036,65.483635 280.740448,62.106712 256.910309,64.299385 
	C233.145584,66.486046 213.027527,76.224258 197.967270,95.159492 
	C183.317657,113.578423 178.066666,135.164749 177.612900,158.184433 
	C176.877350,195.499481 195.000122,229.998108 230.882889,244.236206 
	C231.694153,244.558090 232.298904,245.400436 233.000000,246.000000 
	C197.312439,246.000000 161.624878,246.000000 125.310257,245.554703 
	C124.666451,179.049118 124.649712,112.988831 125.095490,46.739624 
	C149.737518,46.550709 173.917023,46.550709 198.546524,46.550709 
	C198.546524,41.540550 198.505630,37.416611 198.554474,33.293736 
	C198.682022,22.528908 198.848831,11.764546 199.000000,1.000000 
z"/>
<path fill="#A7363A" opacity="1.000000" stroke="none" 
	d="
M1336.000000,1.000000 
	C1389.275513,1.000000 1442.551025,1.000000 1496.000000,1.000000 
	C1496.000000,82.020813 1496.000000,163.041748 1495.531372,244.527298 
	C1442.040771,244.970978 1389.018799,244.950058 1335.994385,244.464905 
	C1335.994629,163.000473 1335.997314,82.000237 1336.000000,1.000000 
z"/>
<path fill="#030303" opacity="1.000000" stroke="none" 
	d="
M825.468628,246.000000 
	C800.364075,233.914124 785.762207,213.907486 779.474304,187.611313 
	C772.245056,157.378754 773.968018,127.951454 789.641113,100.467545 
	C809.668030,65.349091 854.483459,52.924919 888.869751,73.038948 
	C895.715149,77.043129 901.256775,83.276230 907.741882,88.771561 
	C907.741882,60.018120 907.741882,30.962572 907.870972,1.453512 
	C924.020874,1.000000 940.041809,1.000000 956.297607,1.416750 
	C956.528076,81.756172 956.520996,161.678848 956.539001,241.601517 
	C956.539368,243.067703 956.839661,244.533844 957.000000,246.000000 
	C941.645752,246.000000 926.291565,246.000000 910.421509,245.533401 
	C909.905762,238.385803 909.905762,231.704788 909.905762,225.023788 
	C909.496033,224.892181 909.086243,224.760590 908.676514,224.628983 
	C903.298096,233.570724 895.597290,239.881363 886.694580,244.846161 
	C886.354370,245.035904 886.226685,245.606735 886.000000,246.000000 
	C865.979126,246.000000 845.958191,246.000000 825.468628,246.000000 
M904.963867,127.744537 
	C903.839783,125.334846 902.875183,122.834427 901.565247,120.530411 
	C894.015930,107.252373 882.726562,100.315720 867.275513,100.487274 
	C851.872437,100.658287 840.019409,106.834641 832.493225,120.642448 
	C826.330750,131.948364 824.421509,144.239761 824.493164,156.816895 
	C824.586914,173.266220 827.714844,188.840775 839.020264,201.856781 
	C856.287781,221.736954 890.452820,217.664124 901.673279,193.873474 
	C911.660461,172.697708 910.871826,150.665878 904.963867,127.744537 
z"/>
<path fill="#020202" opacity="1.000000" stroke="none" 
	d="
M381.468658,246.000000 
	C381.016235,172.962997 381.031403,99.925987 381.050201,26.888981 
	C381.052338,18.570578 381.074982,10.252180 381.044067,1.466890 
	C397.020905,1.000000 413.041779,1.000000 429.531342,1.000000 
	C429.978485,31.114763 429.957001,61.229527 430.020355,92.150513 
	C430.737701,92.639709 431.370178,92.322693 432.002655,92.005676 
	C443.873291,72.921432 461.663544,64.101059 483.521515,63.922710 
	C492.864716,63.846478 502.525665,65.377312 511.520599,67.980431 
	C528.524780,72.901436 539.658936,84.872139 543.491516,101.985771 
	C546.270447,114.394470 547.588257,127.340408 547.793396,140.075195 
	C548.356995,175.063034 547.991150,210.065826 547.996521,245.531357 
	C531.979126,246.000000 515.958191,246.000000 499.515778,245.533386 
	C499.098236,212.749130 499.191803,180.431076 499.033875,148.114243 
	C499.000641,141.312531 498.502502,134.441299 497.419037,127.731209 
	C495.047699,113.044724 487.991608,104.667725 475.749359,103.153160 
	C468.961639,102.313416 461.766266,102.842735 455.010651,104.114677 
	C444.545074,106.085121 437.227264,112.908630 434.403778,123.070557 
	C432.065399,131.486603 430.342987,140.356049 430.211731,149.052734 
	C429.724243,181.362198 430.006683,213.683273 430.000000,246.000000 
	C413.979095,246.000000 397.958221,246.000000 381.468658,246.000000 
z"/>
<path fill="#030303" opacity="1.000000" stroke="none" 
	d="
M607.468628,246.000000 
	C605.240112,244.846024 603.538757,243.588699 601.710938,242.554779 
	C589.550049,235.675934 581.601318,225.461624 579.022095,211.787170 
	C575.129578,191.150299 577.552673,172.005692 595.594482,158.139191 
	C605.623596,150.431091 617.704590,147.361069 629.920105,145.315552 
	C645.191895,142.758209 660.552795,140.735168 675.867615,138.430359 
	C677.669678,138.159149 679.450073,137.651276 681.194824,137.106873 
	C692.252075,133.656845 696.115356,128.906464 695.820618,119.213158 
	C695.473816,107.808372 690.187744,99.899376 679.641418,98.257004 
	C670.907227,96.896858 661.698303,96.686005 652.943420,97.830330 
	C641.553955,99.319000 634.817688,106.943695 632.676514,118.356438 
	C632.431580,119.661949 632.133484,120.957710 631.843567,122.254311 
	C631.811279,122.398659 631.670593,122.518753 631.392700,122.922455 
	C615.655396,122.922455 599.729492,122.922455 583.263123,122.922455 
	C583.690186,109.645378 587.858032,98.113091 596.553589,88.255447 
	C605.692993,77.894608 617.353027,71.577888 630.506592,68.263031 
	C655.507385,61.962505 680.677246,62.113026 705.719543,68.094368 
	C716.411377,70.648094 725.939941,75.667107 733.711548,83.728699 
	C742.571777,92.919525 744.765869,104.248024 744.777405,116.427559 
	C744.808716,149.419006 744.546143,182.418762 745.258728,215.396683 
	C745.474304,225.378128 748.494202,235.298965 750.114807,245.623779 
	C733.979126,246.000000 717.958191,246.000000 701.494019,245.590851 
	C699.955383,240.217529 698.859985,235.253387 697.650818,229.773453 
	C695.150330,231.839615 693.092102,234.004913 690.624023,235.488007 
	C684.515930,239.158325 678.220276,242.516418 672.000000,246.000000 
	C650.645752,246.000000 629.291565,246.000000 607.468628,246.000000 
M632.763123,179.265320 
	C625.979797,186.441498 625.031677,194.933685 627.776245,203.907806 
	C630.447021,212.640305 637.509399,216.563065 645.883484,217.433624 
	C653.095825,218.183456 660.568848,218.335266 667.723145,217.319061 
	C680.760986,215.467117 689.417053,207.514191 693.405884,195.022873 
	C696.999634,183.769104 695.811768,172.112885 695.771729,160.674332 
	C690.641235,162.338776 686.039490,164.266724 681.244507,165.287720 
	C673.600281,166.915375 665.799866,167.793594 658.116577,169.257141 
	C649.295227,170.937485 640.314941,172.351944 632.763123,179.265320 
z"/>
<path fill="#000000" opacity="1.000000" stroke="none" 
	d="
M124.632973,46.928539 
	C124.649712,112.988831 124.666451,179.049118 124.841599,245.554703 
	C107.312439,246.000000 89.624878,246.000000 71.292091,245.560471 
	C70.646866,178.893997 70.646866,112.667038 70.646866,46.000000 
	C46.926262,46.000000 23.963131,46.000000 1.000000,46.000000 
	C1.000000,31.645771 1.000000,17.291544 1.466131,2.413426 
	C65.350426,1.875940 128.768661,1.897199 192.186584,1.766531 
	C196.207062,1.758248 197.317184,3.016577 197.234573,6.902110 
	C197.008179,17.550207 196.866409,28.217958 197.287735,38.854294 
	C197.492386,44.020950 195.885895,45.254490 190.873795,45.184895 
	C170.237656,44.898338 149.595047,45.027050 128.955612,45.144176 
	C127.511398,45.152374 126.073700,46.307014 124.632973,46.928539 
z"/>
<path fill="#030303" opacity="1.000000" stroke="none" 
	d="
M233.468658,246.000000 
	C232.298904,245.400436 231.694153,244.558090 230.882889,244.236206 
	C195.000122,229.998108 176.877350,195.499481 177.612900,158.184433 
	C178.066666,135.164749 183.317657,113.578423 197.967270,95.159492 
	C213.027527,76.224258 233.145584,66.486046 256.910309,64.299385 
	C280.740448,62.106712 303.574036,65.483635 323.693939,79.536369 
	C341.286316,91.823730 350.616180,108.893333 351.899109,131.120529 
	C347.043030,131.120529 342.603302,131.121002 338.163605,131.120438 
	C328.333740,131.119171 318.501923,131.007050 308.675140,131.180023 
	C305.544769,131.235153 303.930817,130.555450 303.204163,127.147881 
	C300.255096,113.318352 292.200500,104.200554 277.941467,101.484848 
	C262.763428,98.594124 249.351624,101.537285 239.475342,114.380035 
	C226.711823,130.977234 225.116470,150.241318 227.449280,170.013565 
	C228.332443,177.499054 230.523117,185.085922 233.528595,192.014618 
	C240.829849,208.846481 254.091614,215.817749 273.095612,213.950256 
	C288.997223,212.387634 300.726196,201.878998 304.365814,184.806595 
	C305.506287,179.456879 307.360962,177.892532 312.737274,178.095734 
	C324.715912,178.548462 336.723511,178.227417 348.719208,178.250916 
	C350.000580,178.253418 351.281555,178.449310 352.559875,178.555237 
	C349.591858,210.513199 330.919952,235.409576 302.065063,245.635422 
	C279.312439,246.000000 256.624878,246.000000 233.468658,246.000000 
z"/>
<path fill="#F1F2F4" opacity="1.000000" stroke="none" 
	d="
M1.000000,46.468658 
	C23.963131,46.000000 46.926262,46.000000 70.646866,46.000000 
	C70.646866,112.667038 70.646866,178.893997 70.823433,245.560471 
	C47.704525,246.000000 24.409050,246.000000 1.000000,246.000000 
	C1.000000,179.645813 1.000000,113.291565 1.000000,46.468658 
z"/>
<path fill="#F1F2F4" opacity="1.000000" stroke="none" 
	d="
M430.468658,246.000000 
	C430.006683,213.683273 429.724243,181.362198 430.211731,149.052734 
	C430.342987,140.356049 432.065399,131.486603 434.403778,123.070557 
	C437.227264,112.908630 444.545074,106.085121 455.010651,104.114677 
	C461.766266,102.842735 468.961639,102.313416 475.749359,103.153160 
	C487.991608,104.667725 495.047699,113.044724 497.419037,127.731209 
	C498.502502,134.441299 499.000641,141.312531 499.033875,148.114243 
	C499.191803,180.431076 499.098236,212.749130 499.047119,245.533386 
	C476.312439,246.000000 453.624878,246.000000 430.468658,246.000000 
z"/>
<path fill="#F0F2F5" opacity="1.000000" stroke="none" 
	d="
M957.468628,246.000000 
	C956.839661,244.533844 956.539368,243.067703 956.539001,241.601517 
	C956.520996,161.678848 956.528076,81.756172 956.766296,1.416750 
	C965.020935,1.000000 973.041809,1.000000 981.531372,1.000000 
	C982.012756,81.999733 982.025513,162.999466 982.072876,244.715530 
	C982.071594,245.621231 982.035767,245.810623 982.000000,246.000000 
	C973.979065,246.000000 965.958191,246.000000 957.468628,246.000000 
z"/>
<path fill="#2F3644" opacity="1.000000" stroke="none" 
	d="
M1155.999756,244.875961 
	C1156.008179,163.896332 1156.016479,82.916695 1156.012451,1.468533 
	C1156.444458,1.000000 1156.888916,1.000000 1157.666748,0.999999 
	C1158.047974,3.164195 1158.137085,5.328380 1158.137695,7.492590 
	C1158.160522,86.323006 1158.175049,165.153427 1158.126709,244.444397 
	C1158.062866,244.904953 1157.797241,244.926254 1157.497070,244.923157 
	C1156.797729,244.905350 1156.398804,244.890656 1155.999756,244.875961 
z"/>
<path fill="#A64D31" opacity="1.000000" stroke="none" 
	d="
M1335.666748,1.000000 
	C1335.997314,82.000237 1335.994629,163.000473 1335.685059,244.491562 
	C1334.964844,244.962738 1334.551514,244.943054 1334.071533,244.927200 
	C1334.004883,244.931015 1333.878662,244.975250 1333.878662,244.975250 
	C1333.907349,192.076019 1333.940308,139.176804 1333.963257,86.277573 
	C1333.975464,58.164059 1333.970703,30.050535 1333.986816,1.468509 
	C1334.444458,1.000000 1334.888916,1.000000 1335.666748,1.000000 
z"/>
<path fill="#3B3B3C" opacity="1.000000" stroke="none" 
	d="
M125.095490,46.739624 
	C126.073700,46.307014 127.511398,45.152374 128.955612,45.144176 
	C149.595047,45.027050 170.237656,44.898338 190.873795,45.184895 
	C195.885895,45.254490 197.492386,44.020950 197.287735,38.854294 
	C196.866409,28.217958 197.008179,17.550207 197.234573,6.902110 
	C197.317184,3.016577 196.207062,1.758248 192.186584,1.766531 
	C128.768661,1.897199 65.350426,1.875940 1.466131,1.944768 
	C2.329662,1.666667 3.659107,1.042701 4.989016,1.041715 
	C69.346878,0.993994 133.704788,1.000000 198.531342,1.000000 
	C198.848831,11.764546 198.682022,22.528908 198.554474,33.293736 
	C198.505630,37.416611 198.546524,41.540550 198.546524,46.550709 
	C173.917023,46.550709 149.737518,46.550709 125.095490,46.739624 
z"/>
<path fill="#E2E3E5" opacity="1.000000" stroke="none" 
	d="
M886.468628,246.000000 
	C886.226685,245.606735 886.354370,245.035904 886.694580,244.846161 
	C895.597290,239.881363 903.298096,233.570724 908.676514,224.628983 
	C909.086243,224.760590 909.496033,224.892181 909.905762,225.023788 
	C909.905762,231.704788 909.905762,238.385803 909.952881,245.533401 
	C902.312439,246.000000 894.624817,246.000000 886.468628,246.000000 
z"/>
<path fill="#E6E6E8" opacity="1.000000" stroke="none" 
	d="
M672.468628,246.000000 
	C678.220276,242.516418 684.515930,239.158325 690.624023,235.488007 
	C693.092102,234.004913 695.150330,231.839615 697.650818,229.773453 
	C698.859985,235.253387 699.955383,240.217529 701.025391,245.590851 
	C691.645752,246.000000 682.291565,246.000000 672.468628,246.000000 
z"/>
<path fill="#F3DC87" opacity="1.000000" stroke="none" 
	d="
M1158.196045,244.901184 
	C1160.728882,244.930542 1163.128540,244.992447 1165.528320,244.992554 
	C1221.340088,244.995117 1277.151733,244.990982 1333.421143,244.981659 
	C1333.878662,244.975250 1334.004883,244.931015 1334.024902,245.194855 
	C1334.029907,245.639114 1334.015015,245.819550 1334.000000,246.000000 
	C1275.645752,246.000000 1217.291504,246.000000 1158.429688,245.729370 
	C1157.880371,245.281235 1157.838867,245.103745 1157.797241,244.926254 
	C1157.797241,244.926254 1158.062866,244.904953 1158.196045,244.901184 
z"/>
<path fill="#526085" opacity="1.000000" stroke="none" 
	d="
M1157.497070,244.923157 
	C1157.838867,245.103745 1157.880371,245.281235 1157.960938,245.729370 
	C1099.645752,246.000000 1041.291504,246.000000 982.468628,246.000000 
	C982.035767,245.810623 982.071594,245.621231 982.205444,245.159821 
	C1039.889648,244.899979 1097.475952,244.912170 1155.531006,244.900162 
	C1156.398804,244.890656 1156.797729,244.905350 1157.497070,244.923157 
z"/>
<path fill="#C57379" opacity="1.000000" stroke="none" 
	d="
M1334.468628,246.000000 
	C1334.015015,245.819550 1334.029907,245.639114 1334.091553,245.191040 
	C1334.551514,244.943054 1334.964844,244.962738 1335.687500,244.955780 
	C1389.018799,244.950058 1442.040771,244.970978 1495.531372,244.995972 
	C1494.671143,245.333344 1493.342529,245.956894 1492.013428,245.958145 
	C1439.654663,246.007355 1387.296021,246.000000 1334.468628,246.000000 
z"/>
<path fill="#3E3E3F" opacity="1.000000" stroke="none" 
	d="
M431.648682,92.055183 
	C431.370178,92.322693 430.737701,92.639709 429.997253,92.638779 
	C430.357788,92.248779 430.826233,92.176735 431.648682,92.055183 
z"/>
<path fill="#F1F2F4" opacity="1.000000" stroke="none" 
	d="
M905.068970,128.125610 
	C910.871826,150.665878 911.660461,172.697708 901.673279,193.873474 
	C890.452820,217.664124 856.287781,221.736954 839.020264,201.856781 
	C827.714844,188.840775 824.586914,173.266220 824.493164,156.816895 
	C824.421509,144.239761 826.330750,131.948364 832.493225,120.642448 
	C840.019409,106.834641 851.872437,100.658287 867.275513,100.487274 
	C882.726562,100.315720 894.015930,107.252373 901.565247,120.530411 
	C902.875183,122.834427 903.839783,125.334846 905.068970,128.125610 
z"/>
<path fill="#EFF0F2" opacity="1.000000" stroke="none" 
	d="
M633.020996,179.013336 
	C640.314941,172.351944 649.295227,170.937485 658.116577,169.257141 
	C665.799866,167.793594 673.600281,166.915375 681.244507,165.287720 
	C686.039490,164.266724 690.641235,162.338776 695.771729,160.674332 
	C695.811768,172.112885 696.999634,183.769104 693.405884,195.022873 
	C689.417053,207.514191 680.760986,215.467117 667.723145,217.319061 
	C660.568848,218.335266 653.095825,218.183456 645.883484,217.433624 
	C637.509399,216.563065 630.447021,212.640305 627.776245,203.907806 
	C625.031677,194.933685 625.979797,186.441498 633.020996,179.013336 
z"/>
</svg>