<svg version="1.1" id="Layer_1" xmlns="http://www.w3.org/2000/svg" xmlns:xlink="http://www.w3.org/1999/xlink" x="0px" y="0px"
	 width="100%" viewBox="0 0 1597 259" enable-background="new 0 0 1597 259" xml:space="preserve">
<path fill="#273A86" opacity="1.000000" stroke="none" 
	d="
M265.000000,260.000000 
	C177.080765,260.000000 89.161530,260.000000 1.000000,260.000000 
	C1.000000,189.312622 1.000000,118.624969 1.461091,47.378376 
	C26.809513,46.819435 51.696842,46.819435 76.861351,46.819435 
	C76.861351,49.290478 76.861359,50.939194 76.861336,52.587910 
	C76.860420,117.885315 76.856720,183.182709 76.869316,248.480118 
	C76.869797,250.972122 77.027702,253.464111 77.430931,256.204407 
	C78.545990,256.633636 79.342041,256.970734 80.138786,256.972382 
	C96.496704,257.005737 112.854790,257.023315 129.212494,256.958832 
	C130.452682,256.953949 131.690353,256.312561 133.014160,255.507172 
	C133.099106,185.771835 133.099106,116.496391 133.099106,46.770412 
	C159.016678,46.770412 184.279648,46.770412 210.000000,46.770412 
	C210.000000,31.215992 210.000000,16.107996 210.000000,1.000000 
	C273.354218,1.000000 336.708466,1.000000 400.375854,1.446284 
	C400.660370,2.557462 400.606689,3.222355 400.606628,3.887250 
	C400.602356,86.446304 400.599609,169.005356 400.620575,251.564407 
	C400.620941,253.041580 400.907532,254.518692 401.391357,256.234741 
	C402.521576,256.644836 403.320618,256.963348 404.120422,256.965363 
	C418.484680,257.001404 432.849152,257.022736 447.213226,256.963867 
	C448.464905,256.958740 449.714203,256.371796 451.221802,255.722900 
	C451.542297,251.063324 451.644379,246.736130 451.662567,242.408569 
	C451.794250,211.081680 451.827850,179.753983 452.115326,148.428589 
	C452.159210,143.646057 453.080231,138.817352 454.061096,134.106949 
	C458.625946,112.185577 473.526581,104.684410 493.889099,105.565071 
	C513.077087,106.394936 519.539551,117.009789 522.126160,132.160751 
	C523.380737,139.509735 523.844055,147.068436 523.887146,154.536682 
	C524.071838,186.531540 523.949219,218.528122 524.012329,250.523926 
	C524.016052,252.388199 524.669067,254.251175 525.368896,256.332214 
	C541.510376,256.651001 557.302856,256.762299 573.095642,256.813995 
	C573.670776,256.815887 574.247925,256.232880 574.885620,255.462296 
	C574.960876,218.675568 575.111450,182.348206 574.896790,146.023026 
	C574.839844,136.391403 574.063049,126.717773 572.908264,117.148933 
	C570.764954,99.388290 564.013306,84.080887 547.919739,74.362007 
	C538.427246,68.629501 527.926636,66.274422 517.036621,65.450279 
	C491.286316,63.501556 469.764984,71.184227 454.616913,93.176331 
	C454.024261,94.036697 453.239685,94.764862 451.672607,96.545265 
	C451.672607,93.482666 451.672699,91.714066 451.672607,89.945473 
	C451.671509,66.449699 451.648010,42.953892 451.684479,19.458174 
	C451.694031,13.305301 451.889740,7.152717 452.000000,1.000000 
	C618.020874,1.000000 784.041809,1.000000 950.447266,1.462167 
	C950.831909,31.829651 950.831909,61.734966 950.831909,93.027779 
	C949.008545,90.978355 948.102295,90.115143 947.376953,89.120071 
	C941.427002,80.957413 933.632568,75.098671 924.415710,71.207680 
	C885.293518,54.691936 841.489990,71.619888 823.687561,110.592178 
	C809.025269,142.690369 809.169312,175.583252 821.300598,208.331131 
	C829.396973,230.186920 843.823120,246.677765 866.078247,255.325897 
	C870.635986,257.097015 875.355225,258.452789 880.000000,260.000000 
	C815.645752,260.000000 751.291565,260.000000 686.649780,259.648132 
	C703.204651,256.778717 718.598389,250.976379 731.060730,238.403046 
	C732.579468,244.929657 733.854736,250.410187 735.440552,256.147858 
	C736.716980,256.601959 737.682373,256.967926 738.648804,256.970581 
	C753.143311,257.010437 767.638184,257.026001 782.132507,256.964417 
	C783.397095,256.959045 784.659180,256.372284 786.093872,255.806458 
	C781.995544,245.566544 780.877380,234.957169 780.781555,224.295639 
	C780.473022,189.979324 780.567993,155.659241 780.209778,121.343697 
	C780.139282,114.587196 779.733643,107.537636 777.759155,101.156517 
	C772.989502,85.741875 761.062256,77.026779 746.499634,71.938766 
	C724.671936,64.312393 702.088623,63.971771 679.383179,66.436279 
	C663.813416,68.126266 648.923035,72.121399 635.997559,81.435524 
	C620.617920,92.518150 612.398132,107.499062 611.766663,126.458519 
	C612.466797,126.776283 612.761841,127.026810 613.057800,127.027832 
	C628.550049,127.081276 644.043091,127.045609 659.534180,127.203766 
	C662.749268,127.236588 662.785950,125.299065 663.167297,123.074646 
	C664.512573,115.227867 667.537537,108.114075 674.931335,104.320961 
	C689.129700,97.036972 704.005554,97.144928 718.324829,103.355049 
	C728.308960,107.685066 729.651550,117.274673 729.057068,127.159142 
	C728.570435,135.250473 722.899353,138.709885 716.408447,140.858856 
	C710.608826,142.778931 704.514526,143.940735 698.470276,144.964706 
	C681.750183,147.797272 664.810181,149.579391 648.282043,153.242752 
	C618.843079,159.767715 604.707886,179.059357 605.920532,209.080658 
	C606.926819,233.994400 621.653381,251.831543 646.168823,257.918549 
	C648.161987,258.413422 650.058533,259.297028 652.000000,260.000000 
	C534.979126,260.000000 417.958221,260.000000 300.677887,259.667358 
	C343.605103,253.265457 368.537109,222.151581 371.484497,185.106201 
	C355.373749,185.106201 339.273834,185.106201 322.981262,185.106201 
	C322.369171,187.720474 321.867554,190.153748 321.227478,192.550034 
	C316.652130,209.678406 304.571533,220.813293 289.322784,221.997437 
	C268.140259,223.642380 254.962189,216.724518 247.158569,199.088669 
	C237.541489,177.354492 237.265579,154.891342 245.182724,132.831100 
	C255.128189,105.119186 277.852051,98.046440 301.574921,107.276978 
	C306.749603,109.290436 311.470337,114.073929 314.822083,118.720093 
	C318.206726,123.411827 319.630676,129.518005 321.969299,135.138458 
	C337.958313,135.138458 354.333374,135.138458 370.945587,135.138458 
	C369.785736,115.097221 362.216370,98.523041 347.073120,85.969971 
	C324.605316,67.345215 298.102112,62.876526 270.013824,66.023857 
	C237.441391,69.673637 213.233780,86.035454 199.152145,115.918510 
	C189.312149,136.800293 186.718155,159.100174 190.156509,181.801056 
	C195.524551,217.242203 214.169586,242.540634 248.568359,254.979706 
	C253.947327,256.924805 259.517975,258.339844 265.000000,260.000000 
z"/>
<path fill="#11245C" opacity="1.000000" stroke="none" 
	d="
M1078.000000,260.000000 
	C1076.933350,260.000000 1075.866577,260.000000 1074.260498,259.636353 
	C1069.051392,257.702301 1064.402222,256.522461 1060.000000,260.000000 
	C1058.933350,260.000000 1057.866577,260.000000 1056.344971,259.585876 
	C1055.607300,256.374268 1055.079468,253.576935 1055.077515,250.779236 
	C1055.019653,167.519516 1055.014038,84.259758 1055.000000,1.000000 
	C1116.020874,1.000000 1177.041870,1.000000 1238.641357,1.457561 
	C1239.243164,87.151802 1239.266357,172.388474 1239.167236,257.937622 
	C1239.000854,258.469360 1238.956665,258.688599 1238.636597,258.974365 
	C1237.907104,259.360596 1237.453491,259.680298 1237.000000,260.000000 
	C1236.250000,260.000000 1235.500000,260.000000 1234.276611,259.867676 
	C1233.462280,259.565216 1233.194458,259.653442 1233.000000,260.000000 
	C1231.933350,260.000000 1230.866577,260.000000 1229.259277,259.634796 
	C1227.360840,258.859497 1226.004150,258.095428 1224.645264,258.091705 
	C1198.619141,258.020508 1172.592773,258.005615 1146.567017,258.122131 
	C1145.041870,258.128937 1143.522217,259.346100 1142.000000,260.000000 
	C1129.979126,260.000000 1117.958130,260.000000 1105.327881,259.634827 
	C1104.193237,258.915253 1103.672119,258.259033 1103.142212,258.251831 
	C1095.608643,258.149139 1088.072998,258.073334 1080.540649,258.182526 
	C1079.685181,258.194916 1078.846436,259.366119 1078.000000,260.000000 
z"/>
<path fill="#EDCE5F" opacity="1.000000" stroke="none" 
	d="
M1239.289551,257.625153 
	C1239.266357,172.388474 1239.243164,87.151802 1239.109985,1.457561 
	C1300.020874,1.000000 1361.041870,1.000000 1422.553833,1.468217 
	C1423.053223,84.515953 1423.058594,167.095474 1423.084106,249.674988 
	C1423.084839,252.162506 1423.297119,254.649963 1423.213501,257.368896 
	C1422.684326,257.832520 1422.352295,258.064667 1421.558716,258.203735 
	C1363.647827,258.088043 1306.198486,258.071991 1248.749146,258.025238 
	C1245.595825,258.022675 1242.442749,257.764404 1239.289551,257.625153 
z"/>
<path fill="#A7363A" opacity="1.000000" stroke="none" 
	d="
M1423.410645,257.137451 
	C1423.297119,254.649963 1423.084839,252.162506 1423.084106,249.674988 
	C1423.058594,167.095474 1423.053223,84.515953 1423.022461,1.468217 
	C1481.274170,1.000000 1539.548462,1.000000 1598.000000,1.000000 
	C1598.000000,86.354149 1598.000000,171.708420 1597.582520,257.485168 
	C1594.017578,257.684082 1590.870483,257.269501 1587.722778,257.265320 
	C1532.952148,257.192780 1478.181396,257.170593 1423.410645,257.137451 
z"/>
<path fill="#FAFAFB" opacity="1.000000" stroke="none" 
	d="
M880.468628,260.000000 
	C875.355225,258.452789 870.635986,257.097015 866.078247,255.325897 
	C843.823120,246.677765 829.396973,230.186920 821.300598,208.331131 
	C809.169312,175.583252 809.025269,142.690369 823.687561,110.592178 
	C841.489990,71.619888 885.293518,54.691936 924.415710,71.207680 
	C933.632568,75.098671 941.427002,80.957413 947.376953,89.120071 
	C948.102295,90.115143 949.008545,90.978355 950.831909,93.027779 
	C950.831909,61.734966 950.831909,31.829651 950.915955,1.462167 
	C967.687561,1.000000 984.375122,1.000000 1001.469116,1.465092 
	C1001.866150,84.585785 1001.863281,167.241394 1001.810181,249.896957 
	C1001.808899,251.960068 1001.253723,254.022827 1000.494629,256.035522 
	C984.415588,255.926865 968.798828,255.868454 953.187500,255.353394 
	C953.192871,247.702988 953.192871,240.509247 953.192871,233.315521 
	C951.163208,234.435867 950.102295,235.809540 949.086304,237.215698 
	C943.628967,244.769058 936.730408,250.647675 928.123596,254.197891 
	C922.563904,256.491211 916.717773,258.089966 911.000000,260.000000 
	C900.979126,260.000000 890.958191,260.000000 880.468628,260.000000 
M943.653198,203.026093 
	C945.302734,199.039169 947.314209,195.159973 948.538208,191.046402 
	C953.483826,174.425369 953.638000,157.510666 950.280945,140.641556 
	C945.700439,117.625053 931.208313,104.408401 910.292297,103.676552 
	C892.415405,103.051041 878.479614,110.072151 871.272339,126.745941 
	C860.160034,152.453827 860.132935,178.466263 874.246704,203.067749 
	C890.042969,230.601883 930.577515,227.674011 943.653198,203.026093 
z"/>
<path fill="#FAFAFC" opacity="1.000000" stroke="none" 
	d="
M525.019958,256.114746 
	C524.669067,254.251175 524.016052,252.388199 524.012329,250.523926 
	C523.949219,218.528122 524.071838,186.531540 523.887146,154.536682 
	C523.844055,147.068436 523.380737,139.509735 522.126160,132.160751 
	C519.539551,117.009789 513.077087,106.394936 493.889099,105.565071 
	C473.526581,104.684410 458.625946,112.185577 454.061096,134.106949 
	C453.080231,138.817352 452.159210,143.646057 452.115326,148.428589 
	C451.827850,179.753983 451.794250,211.081680 451.662567,242.408569 
	C451.644379,246.736130 451.542297,251.063324 450.758179,255.684479 
	C433.711700,255.984131 417.386108,255.989990 401.060547,255.995850 
	C400.907532,254.518692 400.620941,253.041580 400.620575,251.564407 
	C400.599609,169.005356 400.602356,86.446304 400.606628,3.887250 
	C400.606689,3.222355 400.660370,2.557462 400.844513,1.446284 
	C417.687561,1.000000 434.375122,1.000000 451.531342,1.000000 
	C451.889740,7.152717 451.694031,13.305301 451.684479,19.458174 
	C451.648010,42.953892 451.671509,66.449699 451.672607,89.945473 
	C451.672699,91.714066 451.672607,93.482666 451.672607,96.545265 
	C453.239685,94.764862 454.024261,94.036697 454.616913,93.176331 
	C469.764984,71.184227 491.286316,63.501556 517.036621,65.450279 
	C527.926636,66.274422 538.427246,68.629501 547.919739,74.362007 
	C564.013306,84.080887 570.764954,99.388290 572.908264,117.148933 
	C574.063049,126.717773 574.839844,136.391403 574.896790,146.023026 
	C575.111450,182.348206 574.960876,218.675568 574.435303,255.467041 
	C557.622314,255.992889 541.321106,256.053802 525.019958,256.114746 
z"/>
<path fill="#FAFBFC" opacity="1.000000" stroke="none" 
	d="
M735.130066,255.890732 
	C733.854736,250.410187 732.579468,244.929657 731.060730,238.403046 
	C718.598389,250.976379 703.204651,256.778717 686.181152,259.648132 
	C674.979126,260.000000 663.958191,260.000000 652.468628,260.000000 
	C650.058533,259.297028 648.161987,258.413422 646.168823,257.918549 
	C621.653381,251.831543 606.926819,233.994400 605.920532,209.080658 
	C604.707886,179.059357 618.843079,159.767715 648.282043,153.242752 
	C664.810181,149.579391 681.750183,147.797272 698.470276,144.964706 
	C704.514526,143.940735 710.608826,142.778931 716.408447,140.858856 
	C722.899353,138.709885 728.570435,135.250473 729.057068,127.159142 
	C729.651550,117.274673 728.308960,107.685066 718.324829,103.355049 
	C704.005554,97.144928 689.129700,97.036972 674.931335,104.320961 
	C667.537537,108.114075 664.512573,115.227867 663.167297,123.074646 
	C662.785950,125.299065 662.749268,127.236588 659.534180,127.203766 
	C644.043091,127.045609 628.550049,127.081276 613.057800,127.027832 
	C612.761841,127.026810 612.466797,126.776283 611.766663,126.458519 
	C612.398132,107.499062 620.617920,92.518150 635.997559,81.435524 
	C648.923035,72.121399 663.813416,68.126266 679.383179,66.436279 
	C702.088623,63.971771 724.671936,64.312393 746.499634,71.938766 
	C761.062256,77.026779 772.989502,85.741875 777.759155,101.156517 
	C779.733643,107.537636 780.139282,114.587196 780.209778,121.343697 
	C780.567993,155.659241 780.473022,189.979324 780.781555,224.295639 
	C780.877380,234.957169 781.995544,245.566544 785.635132,255.768921 
	C768.380005,255.950546 751.755066,255.920639 735.130066,255.890732 
M728.975464,189.297546 
	C728.975464,181.594223 728.975464,173.890915 728.975464,165.605042 
	C719.238831,171.427673 708.949158,172.411728 698.820068,174.004501 
	C688.163757,175.680176 677.246887,176.596375 667.770569,182.400314 
	C654.052856,190.801956 652.443848,212.430786 665.317627,221.005081 
	C670.044006,224.152954 676.339355,225.797119 682.099121,226.396591 
	C709.716248,229.270966 727.228516,216.510483 728.975464,189.297546 
z"/>
<path fill="#FBFBFC" opacity="1.000000" stroke="none" 
	d="
M209.531342,1.000000 
	C210.000000,16.107996 210.000000,31.215992 210.000000,46.770412 
	C184.279648,46.770412 159.016678,46.770412 133.099106,46.770412 
	C133.099106,116.496391 133.099106,185.771835 132.552704,255.506989 
	C113.708275,255.963181 95.410255,255.959641 77.112244,255.956100 
	C77.027702,253.464111 76.869797,250.972122 76.869316,248.480118 
	C76.856720,183.182709 76.860420,117.885315 76.861336,52.587910 
	C76.861359,50.939194 76.861351,49.290478 76.861351,46.819435 
	C51.696842,46.819435 26.809513,46.819435 1.461091,46.909718 
	C1.000000,31.693014 1.000000,16.386028 1.000000,1.000000 
	C70.354210,1.000000 139.708450,1.000000 209.531342,1.000000 
z"/>
<path fill="#FAFAFB" opacity="1.000000" stroke="none" 
	d="
M265.468658,260.000000 
	C259.517975,258.339844 253.947327,256.924805 248.568359,254.979706 
	C214.169586,242.540634 195.524551,217.242203 190.156509,181.801056 
	C186.718155,159.100174 189.312149,136.800293 199.152145,115.918510 
	C213.233780,86.035454 237.441391,69.673637 270.013824,66.023857 
	C298.102112,62.876526 324.605316,67.345215 347.073120,85.969971 
	C362.216370,98.523041 369.785736,115.097221 370.945587,135.138458 
	C354.333374,135.138458 337.958313,135.138458 321.969299,135.138458 
	C319.630676,129.518005 318.206726,123.411827 314.822083,118.720093 
	C311.470337,114.073929 306.749603,109.290436 301.574921,107.276978 
	C277.852051,98.046440 255.128189,105.119186 245.182724,132.831100 
	C237.265579,154.891342 237.541489,177.354492 247.158569,199.088669 
	C254.962189,216.724518 268.140259,223.642380 289.322784,221.997437 
	C304.571533,220.813293 316.652130,209.678406 321.227478,192.550034 
	C321.867554,190.153748 322.369171,187.720474 322.981262,185.106201 
	C339.273834,185.106201 355.373749,185.106201 371.484497,185.106201 
	C368.537109,222.151581 343.605103,253.265457 300.209229,259.667358 
	C288.645782,260.000000 277.291534,260.000000 265.468658,260.000000 
z"/>
<path fill="#273A86" opacity="1.000000" stroke="none" 
	d="
M911.468628,260.000000 
	C916.717773,258.089966 922.563904,256.491211 928.123596,254.197891 
	C936.730408,250.647675 943.628967,244.769058 949.086304,237.215698 
	C950.102295,235.809540 951.163208,234.435867 953.192871,233.315521 
	C953.192871,240.509247 953.192871,247.702988 953.476746,255.626389 
	C969.211243,256.435944 984.661804,256.518555 1000.112488,256.574310 
	C1000.393372,256.575317 1000.675476,256.255737 1000.956970,256.085754 
	C1001.253723,254.022827 1001.808899,251.960068 1001.810181,249.896957 
	C1001.863281,167.241394 1001.866150,84.585785 1001.937744,1.465092 
	C1019.354248,1.000000 1036.708496,1.000000 1054.531372,1.000000 
	C1055.014038,84.259758 1055.019653,167.519516 1055.077515,250.779236 
	C1055.079468,253.576935 1055.607300,256.374268 1055.945068,259.585876 
	C1007.979126,260.000000 959.958191,260.000000 911.468628,260.000000 
z"/>
<path fill="#483268" opacity="1.000000" stroke="none" 
	d="
M1423.213623,257.368896 
	C1478.181396,257.170593 1532.952148,257.192780 1587.722778,257.265320 
	C1590.870483,257.269501 1594.017578,257.684082 1597.582520,257.953796 
	C1597.669067,258.666656 1597.457275,259.783966 1596.983398,259.909027 
	C1595.895386,260.196228 1594.679810,260.000000 1593.515991,260.000000 
	C1536.656372,260.000000 1479.796875,260.000000 1422.468628,259.716064 
	C1422.006836,259.053680 1422.013550,258.675262 1422.020264,258.296814 
	C1422.352295,258.064667 1422.684326,257.832520 1423.213623,257.368896 
z"/>
<path fill="#4B4E61" opacity="1.000000" stroke="none" 
	d="
M1421.558716,258.203735 
	C1422.013550,258.675262 1422.006836,259.053680 1422.000000,259.716064 
	C1361.312378,260.000000 1300.624878,260.000000 1239.464844,259.725525 
	C1238.965942,259.269958 1238.939331,259.088928 1238.912598,258.907867 
	C1238.956665,258.688599 1239.000854,258.469360 1239.167236,257.937622 
	C1242.442749,257.764404 1245.595825,258.022675 1248.749146,258.025238 
	C1306.198486,258.071991 1363.647827,258.088043 1421.558716,258.203735 
z"/>
<path fill="#273A86" opacity="1.000000" stroke="none" 
	d="
M1142.468628,260.000000 
	C1143.522217,259.346100 1145.041870,258.128937 1146.567017,258.122131 
	C1172.592773,258.005615 1198.619141,258.020508 1224.645264,258.091705 
	C1226.004150,258.095428 1227.360840,258.859497 1228.859375,259.634796 
	C1200.312378,260.000000 1171.624878,260.000000 1142.468628,260.000000 
z"/>
<path fill="#273A86" opacity="1.000000" stroke="none" 
	d="
M1078.468628,260.000000 
	C1078.846436,259.366119 1079.685181,258.194916 1080.540649,258.182526 
	C1088.072998,258.073334 1095.608643,258.149139 1103.142212,258.251831 
	C1103.672119,258.259033 1104.193237,258.915253 1104.859131,259.634827 
	C1096.312378,260.000000 1087.624878,260.000000 1078.468628,260.000000 
z"/>
<path fill="#273A86" opacity="1.000000" stroke="none" 
	d="
M1060.464600,260.000000 
	C1064.402222,256.522461 1069.051392,257.702301 1073.860596,259.636353 
	C1069.643066,260.000000 1065.286255,260.000000 1060.464600,260.000000 
z"/>
<path fill="#273A86" opacity="1.000000" stroke="none" 
	d="
M1238.636597,258.974365 
	C1238.939331,259.088928 1238.965942,259.269958 1238.996338,259.725525 
	C1238.555542,260.000000 1238.111084,260.000000 1237.333252,260.000000 
	C1237.453491,259.680298 1237.907104,259.360596 1238.636597,258.974365 
z"/>
<path fill="#273A86" opacity="1.000000" stroke="none" 
	d="
M1233.250000,260.000000 
	C1233.194458,259.653442 1233.462280,259.565216 1233.901611,259.867676 
	C1234.000000,260.000000 1233.500000,260.000000 1233.250000,260.000000 
z"/>
<path fill="#2F396A" opacity="1.000000" stroke="none" 
	d="
M77.430923,256.204407 
	C95.410255,255.959641 113.708275,255.963181 132.467743,255.966888 
	C131.690353,256.312561 130.452682,256.953949 129.212494,256.958832 
	C112.854790,257.023315 96.496704,257.005737 80.138786,256.972382 
	C79.342041,256.970734 78.545990,256.633636 77.430923,256.204407 
z"/>
<path fill="#2F396B" opacity="1.000000" stroke="none" 
	d="
M735.440552,256.147858 
	C751.755066,255.920639 768.380005,255.950546 785.463745,256.018005 
	C784.659180,256.372284 783.397095,256.959045 782.132507,256.964417 
	C767.638184,257.026001 753.143311,257.010437 738.648804,256.970581 
	C737.682373,256.967926 736.716980,256.601959 735.440552,256.147858 
z"/>
<path fill="#2F396A" opacity="1.000000" stroke="none" 
	d="
M401.391357,256.234741 
	C417.386108,255.989990 433.711700,255.984131 450.500916,256.016693 
	C449.714203,256.371796 448.464905,256.958740 447.213226,256.963867 
	C432.849152,257.022736 418.484680,257.001404 404.120422,256.965363 
	C403.320618,256.963348 402.521576,256.644836 401.391357,256.234741 
z"/>
<path fill="#2F396A" opacity="1.000000" stroke="none" 
	d="
M525.368896,256.332214 
	C541.321106,256.053802 557.622314,255.992889 574.373779,255.927216 
	C574.247925,256.232880 573.670776,256.815887 573.095642,256.813995 
	C557.302856,256.762299 541.510376,256.651001 525.368896,256.332214 
z"/>
<path fill="#273A86" opacity="1.000000" stroke="none" 
	d="
M943.466919,203.345001 
	C930.577515,227.674011 890.042969,230.601883 874.246704,203.067749 
	C860.132935,178.466263 860.160034,152.453827 871.272339,126.745941 
	C878.479614,110.072151 892.415405,103.051041 910.292297,103.676552 
	C931.208313,104.408401 945.700439,117.625053 950.280945,140.641556 
	C953.638000,157.510666 953.483826,174.425369 948.538208,191.046402 
	C947.314209,195.159973 945.302734,199.039169 943.466919,203.345001 
z"/>
<path fill="#2F396A" opacity="1.000000" stroke="none" 
	d="
M1000.494629,256.035522 
	C1000.675476,256.255737 1000.393372,256.575317 1000.112488,256.574310 
	C984.661804,256.518555 969.211243,256.435944 953.471375,256.083038 
	C968.798828,255.868454 984.415588,255.926865 1000.494629,256.035522 
z"/>
<path fill="#293B86" opacity="1.000000" stroke="none" 
	d="
M728.954224,189.768768 
	C727.228516,216.510483 709.716248,229.270966 682.099121,226.396591 
	C676.339355,225.797119 670.044006,224.152954 665.317627,221.005081 
	C652.443848,212.430786 654.052856,190.801956 667.770569,182.400314 
	C677.246887,176.596375 688.163757,175.680176 698.820068,174.004501 
	C708.949158,172.411728 719.238831,171.427673 728.975464,165.605042 
	C728.975464,173.890915 728.975464,181.594223 728.954224,189.768768 
z"/>
</svg>