<svg version="1.1" id="Layer_1" xmlns="http://www.w3.org/2000/svg" xmlns:xlink="http://www.w3.org/1999/xlink" x="0px" y="0px"
	 width="100%" viewBox="0 0 1547 252" enable-background="new 0 0 1547 252" xml:space="preserve">
<path fill="#FEFEFE" opacity="1.000000" stroke="none" 
	d="
M624.000000,253.000000 
	C604.312439,253.000000 584.624878,253.000000 564.576050,252.541992 
	C564.224854,216.924423 564.431213,181.763214 564.129944,146.606339 
	C564.034729,135.488647 563.312317,124.268593 561.597717,113.295265 
	C558.170898,91.363503 546.280212,75.786629 524.292664,69.833801 
	C515.877502,67.555504 506.884521,66.415977 498.164276,66.464302 
	C479.170868,66.569534 462.740234,73.400963 450.185638,88.193382 
	C448.013855,90.752304 446.117279,93.544792 444.093567,96.229378 
	C443.019409,94.119987 443.022064,92.366638 443.019043,90.613304 
	C442.968292,61.122711 442.916809,31.632120 442.930847,1.859885 
	C442.997467,1.385494 442.998749,1.192747 443.000000,1.000000 
	C606.020874,1.000000 769.041809,1.000000 932.499146,1.260607 
	C932.967651,1.693320 932.999634,1.865426 932.943604,2.496552 
	C932.855591,32.826824 932.855591,62.698074 932.855591,94.027702 
	C930.935852,91.644035 930.088684,90.268906 928.941162,89.223404 
	C924.053223,84.770142 919.634766,79.464134 914.041199,76.177902 
	C878.649658,55.385235 832.176331,68.027824 811.748413,103.759491 
	C797.124084,129.339783 794.328613,156.858551 799.441895,185.405167 
	C803.161072,206.168686 811.060730,225.089310 827.178223,239.399078 
	C833.123840,244.677902 840.355103,248.508743 847.000000,253.000000 
	C821.979126,253.000000 796.958191,253.000000 771.597290,252.622223 
	C770.098633,248.091568 768.348755,244.001251 767.901428,239.773117 
	C766.886719,230.183075 766.041443,220.528854 765.966370,210.894180 
	C765.728760,180.398666 765.796265,149.899826 765.910217,119.402893 
	C765.964783,104.800812 762.171143,91.631271 749.941528,82.933670 
	C742.765869,77.830376 734.452271,73.645714 726.029358,71.116310 
	C707.304932,65.493355 687.866760,65.556870 668.554932,67.352837 
	C652.673401,68.829788 637.369934,72.691795 624.088135,82.182076 
	C608.758972,93.135262 600.784363,108.044907 599.980774,127.084785 
	C616.805908,127.084785 633.219177,127.084785 649.866272,127.084785 
	C650.244080,125.086685 650.515991,123.295830 650.927002,121.537483 
	C652.490723,114.848579 655.218323,108.634270 661.488342,105.276306 
	C675.785461,97.619400 690.754944,97.669167 705.232239,104.183769 
	C714.222961,108.229515 716.030457,117.090828 715.668030,126.271927 
	C715.337341,134.647141 709.650269,138.475845 702.707031,140.901443 
	C698.804749,142.264709 694.727234,143.299973 690.643616,143.939774 
	C675.025635,146.386688 659.316895,148.292435 643.751160,151.022614 
	C631.036194,153.252777 618.786438,157.249008 609.026306,166.265625 
	C593.433167,180.670853 589.398987,209.330048 599.544678,229.785187 
	C604.902649,240.587494 613.771912,247.451141 624.000000,253.000000 
z"/>
<path fill="#0B2560" opacity="1.000000" stroke="none" 
	d="
M1010.000000,0.999999 
	C1070.020874,1.000000 1130.041870,1.000000 1190.472900,1.465622 
	C1190.875366,77.137840 1190.863159,152.344437 1190.866089,227.551025 
	C1190.866455,236.034012 1190.953247,244.517014 1191.000000,253.000000 
	C1130.979126,253.000000 1070.958252,253.000000 1010.405151,252.535034 
	C1009.865173,169.375198 1009.856812,86.680336 1009.855713,3.985469 
	C1009.855713,2.990313 1009.949768,1.995155 1010.000000,0.999999 
z"/>
<path fill="#F4CC44" opacity="1.000000" stroke="none" 
	d="
M1191.468506,253.000000 
	C1190.953247,244.517014 1190.866455,236.034012 1190.866089,227.551025 
	C1190.863159,152.344437 1190.875366,77.137840 1190.941406,1.465622 
	C1251.020874,1.000000 1311.041870,1.000000 1371.433960,1.460600 
	C1371.786865,84.622421 1371.767456,167.323639 1371.760254,250.024857 
	C1371.760254,251.016571 1371.916626,252.008286 1372.000000,253.000000 
	C1311.979126,253.000000 1251.958130,253.000000 1191.468506,253.000000 
z"/>
<path fill="#FEFEFE" opacity="1.000000" stroke="none" 
	d="
M393.000000,253.000000 
	C366.645782,253.000000 340.291534,253.000000 313.635315,252.683289 
	C342.328369,241.813065 361.085541,216.369476 363.904419,184.193054 
	C347.974609,184.193054 332.058197,184.193054 316.055695,184.193054 
	C315.593079,186.361221 315.197662,188.314392 314.758331,190.257614 
	C310.796783,207.781204 298.856812,218.897507 282.095367,220.678207 
	C263.168854,222.688919 249.281952,215.224014 241.698242,198.232956 
	C232.077362,176.677780 231.985504,154.448807 239.798401,132.533417 
	C245.079102,117.720978 254.846664,106.346550 271.763062,104.500397 
	C290.715576,102.432045 306.426941,109.014420 312.257568,127.363876 
	C313.095642,130.001389 313.724457,132.705414 314.386902,135.145844 
	C330.881287,135.145844 346.907928,135.145844 363.274475,135.145844 
	C361.573212,109.565926 349.601929,90.907082 327.937042,78.568977 
	C307.453796,66.903824 285.097198,64.530602 262.162445,67.391510 
	C235.821396,70.677299 214.584656,83.000969 200.175217,105.643814 
	C185.982254,127.946480 182.062088,152.794327 185.182510,178.549210 
	C189.210861,211.797668 205.635025,236.790787 236.934250,250.839920 
	C238.053802,251.342438 238.982407,252.270340 240.000000,253.000000 
	C203.645767,253.000000 167.291550,253.000000 130.280945,252.564453 
	C129.624573,184.279526 129.624573,116.430138 129.624573,48.021507 
	C155.057022,48.021507 179.918228,48.021507 204.897308,48.021507 
	C204.897308,32.344746 204.897308,17.228113 204.959595,1.836992 
	C205.014587,1.375004 205.007294,1.187502 205.000000,1.000000 
	C267.354218,1.000000 329.708466,1.000000 392.508057,1.269593 
	C392.989227,1.715997 393.025024,1.892807 392.979248,2.527611 
	C392.891754,70.023766 392.877960,137.061920 392.885681,204.100082 
	C392.887543,220.400055 392.960022,236.700027 393.000000,253.000000 
z"/>
<path fill="#B52936" opacity="1.000000" stroke="none" 
	d="
M1372.468628,253.000000 
	C1371.916626,252.008286 1371.760254,251.016571 1371.760254,250.024857 
	C1371.767456,167.323639 1371.786865,84.622421 1371.902588,1.460600 
	C1430.624146,1.000000 1489.248291,1.000000 1547.936279,1.000000 
	C1547.936279,84.896591 1547.936279,168.793243 1547.936279,253.000000 
	C1489.646118,253.000000 1431.291626,253.000000 1372.468628,253.000000 
z"/>
<path fill="#020202" opacity="1.000000" stroke="none" 
	d="
M847.468628,253.000000 
	C840.355103,248.508743 833.123840,244.677902 827.178223,239.399078 
	C811.060730,225.089310 803.161072,206.168686 799.441895,185.405167 
	C794.328613,156.858551 797.124084,129.339783 811.748413,103.759491 
	C832.176331,68.027824 878.649658,55.385235 914.041199,76.177902 
	C919.634766,79.464134 924.053223,84.770142 928.941162,89.223404 
	C930.088684,90.268906 930.935852,91.644035 932.855591,94.027702 
	C932.855591,62.698074 932.855591,32.826824 933.409912,2.479577 
	C950.255188,2.058277 966.546082,2.112972 982.894409,2.622551 
	C982.967896,86.384956 982.983948,169.692474 983.000000,253.000000 
	C967.312439,253.000000 951.624878,253.000000 935.587280,252.544418 
	C935.237305,245.220474 935.237305,238.352112 935.237305,231.483734 
	C928.427124,240.970459 919.825500,247.685898 910.000000,253.000000 
	C889.312439,253.000000 868.624878,253.000000 847.468628,253.000000 
M934.158081,169.640320 
	C934.982483,154.012115 934.302002,138.566330 926.471558,124.492874 
	C918.863586,110.819229 907.035278,103.895424 891.271912,104.073128 
	C875.535828,104.250511 863.381226,110.565636 855.649170,124.712051 
	C849.469727,136.017899 847.486084,148.299866 847.445312,160.864258 
	C847.389221,178.167618 850.474792,194.611908 862.438477,208.294189 
	C880.298401,228.719696 914.970337,224.225845 926.843262,199.902817 
	C931.384277,190.600113 933.442444,180.772644 934.158081,169.640320 
z"/>
<path fill="#020202" opacity="1.000000" stroke="none" 
	d="
M393.468658,253.000000 
	C392.960022,236.700027 392.887543,220.400055 392.885681,204.100082 
	C392.877960,137.061920 392.891754,70.023766 393.443665,2.508680 
	C410.281647,2.068346 426.573547,2.104938 442.865479,2.141529 
	C442.916809,31.632120 442.968292,61.122711 443.019043,90.613304 
	C443.022064,92.366638 443.019409,94.119987 444.093567,96.229378 
	C446.117279,93.544792 448.013855,90.752304 450.185638,88.193382 
	C462.740234,73.400963 479.170868,66.569534 498.164276,66.464302 
	C506.884521,66.415977 515.877502,67.555504 524.292664,69.833801 
	C546.280212,75.786629 558.170898,91.363503 561.597717,113.295265 
	C563.312317,124.268593 564.034729,135.488647 564.129944,146.606339 
	C564.431213,181.763214 564.224854,216.924423 564.107422,252.541992 
	C547.645752,253.000000 531.291565,253.000000 514.489075,252.531723 
	C514.042358,219.254120 514.280212,186.442032 513.896240,153.637207 
	C513.786316,144.242798 512.350525,134.781418 510.628265,125.517014 
	C509.458832,119.226402 505.799500,113.929642 500.073914,110.373581 
	C480.749359,98.371582 452.365540,108.616241 446.618439,130.460205 
	C444.112274,139.985718 443.310516,150.166931 443.174103,160.070190 
	C442.747375,191.041718 443.006622,222.022690 443.000000,253.000000 
	C426.645782,253.000000 410.291534,253.000000 393.468658,253.000000 
z"/>
<path fill="#020202" opacity="1.000000" stroke="none" 
	d="
M624.468628,253.000000 
	C613.771912,247.451141 604.902649,240.587494 599.544678,229.785187 
	C589.398987,209.330048 593.433167,180.670853 609.026306,166.265625 
	C618.786438,157.249008 631.036194,153.252777 643.751160,151.022614 
	C659.316895,148.292435 675.025635,146.386688 690.643616,143.939774 
	C694.727234,143.299973 698.804749,142.264709 702.707031,140.901443 
	C709.650269,138.475845 715.337341,134.647141 715.668030,126.271927 
	C716.030457,117.090828 714.222961,108.229515 705.232239,104.183769 
	C690.754944,97.669167 675.785461,97.619400 661.488342,105.276306 
	C655.218323,108.634270 652.490723,114.848579 650.927002,121.537483 
	C650.515991,123.295830 650.244080,125.086685 649.866272,127.084785 
	C633.219177,127.084785 616.805908,127.084785 599.980774,127.084785 
	C600.784363,108.044907 608.758972,93.135262 624.088135,82.182076 
	C637.369934,72.691795 652.673401,68.829788 668.554932,67.352837 
	C687.866760,65.556870 707.304932,65.493355 726.029358,71.116310 
	C734.452271,73.645714 742.765869,77.830376 749.941528,82.933670 
	C762.171143,91.631271 765.964783,104.800812 765.910217,119.402893 
	C765.796265,149.899826 765.728760,180.398666 765.966370,210.894180 
	C766.041443,220.528854 766.886719,230.183075 767.901428,239.773117 
	C768.348755,244.001251 770.098633,248.091568 771.128601,252.622223 
	C754.645752,253.000000 738.291565,253.000000 721.419434,252.603851 
	C719.799133,247.228073 718.696655,242.248444 717.786438,238.137436 
	C709.318604,243.018066 700.659302,248.009048 692.000000,253.000015 
	C669.645752,253.000000 647.291565,253.000000 624.468628,253.000000 
M689.097351,223.837952 
	C701.495911,220.469482 710.518799,212.819260 713.157349,200.329315 
	C715.549500,189.005600 715.586609,177.184387 716.696167,165.214401 
	C711.261414,167.163864 707.341003,169.006897 703.214966,169.953049 
	C696.101746,171.584213 688.783569,172.337311 681.692871,174.046082 
	C672.875916,176.170837 663.741821,177.885513 655.588501,181.619797 
	C646.203918,185.917984 643.001770,195.586548 644.851318,207.270416 
	C646.170471,215.603790 652.239624,222.364258 662.018738,223.660553 
	C670.632324,224.802353 679.509705,223.954758 689.097351,223.837952 
z"/>
<path fill="#020202" opacity="1.000000" stroke="none" 
	d="
M204.897308,2.111478 
	C204.897308,17.228113 204.897308,32.344746 204.897308,48.021507 
	C179.918228,48.021507 155.057022,48.021507 129.624573,48.021507 
	C129.624573,116.430138 129.624573,184.279526 129.812286,252.564453 
	C111.645775,253.000000 93.291542,253.000000 74.456375,252.531464 
	C73.975441,184.224182 73.975441,116.385429 73.975441,48.000000 
	C49.200600,48.000000 25.100300,48.000000 1.000000,48.000000 
	C1.000000,32.979103 1.000000,17.958210 1.468650,2.465860 
	C37.764194,1.994068 73.591095,1.978347 109.417984,1.997988 
	C141.244446,2.015437 173.070862,2.072115 204.897308,2.111478 
z"/>
<path fill="#020202" opacity="1.000000" stroke="none" 
	d="
M240.468658,253.000000 
	C238.982407,252.270340 238.053802,251.342438 236.934250,250.839920 
	C205.635025,236.790787 189.210861,211.797668 185.182510,178.549210 
	C182.062088,152.794327 185.982254,127.946480 200.175217,105.643814 
	C214.584656,83.000969 235.821396,70.677299 262.162445,67.391510 
	C285.097198,64.530602 307.453796,66.903824 327.937042,78.568977 
	C349.601929,90.907082 361.573212,109.565926 363.274475,135.145844 
	C346.907928,135.145844 330.881287,135.145844 314.386902,135.145844 
	C313.724457,132.705414 313.095642,130.001389 312.257568,127.363876 
	C306.426941,109.014420 290.715576,102.432045 271.763062,104.500397 
	C254.846664,106.346550 245.079102,117.720978 239.798401,132.533417 
	C231.985504,154.448807 232.077362,176.677780 241.698242,198.232956 
	C249.281952,215.224014 263.168854,222.688919 282.095367,220.678207 
	C298.856812,218.897507 310.796783,207.781204 314.758331,190.257614 
	C315.197662,188.314392 315.593079,186.361221 316.055695,184.193054 
	C332.058197,184.193054 347.974609,184.193054 363.904419,184.193054 
	C361.085541,216.369476 342.328369,241.813065 313.166626,252.683289 
	C288.979095,253.000000 264.958221,253.000000 240.468658,253.000000 
z"/>
<path fill="#FEFEFE" opacity="1.000000" stroke="none" 
	d="
M1.000000,48.468658 
	C25.100300,48.000000 49.200600,48.000000 73.975441,48.000000 
	C73.975441,116.385429 73.975441,184.224182 73.987717,252.531464 
	C49.705009,253.000000 25.410017,253.000000 1.000000,253.000000 
	C1.000000,184.979141 1.000000,116.958229 1.000000,48.468658 
z"/>
<path fill="#FDFDFD" opacity="1.000000" stroke="none" 
	d="
M443.468658,253.000000 
	C443.006622,222.022690 442.747375,191.041718 443.174103,160.070190 
	C443.310516,150.166931 444.112274,139.985718 446.618439,130.460205 
	C452.365540,108.616241 480.749359,98.371582 500.073914,110.373581 
	C505.799500,113.929642 509.458832,119.226402 510.628265,125.517014 
	C512.350525,134.781418 513.786316,144.242798 513.896240,153.637207 
	C514.280212,186.442032 514.042358,219.254120 514.020386,252.531723 
	C490.645782,253.000000 467.291534,253.000000 443.468658,253.000000 
z"/>
<path fill="#FBFCFC" opacity="1.000000" stroke="none" 
	d="
M983.468628,253.000000 
	C982.983948,169.692474 982.967896,86.384956 982.960999,2.334237 
	C982.980042,1.394026 982.990051,1.197013 983.000000,1.000000 
	C991.687561,1.000000 1000.375183,1.000000 1009.531372,0.999999 
	C1009.949768,1.995155 1009.855713,2.990313 1009.855713,3.985469 
	C1009.856812,86.680336 1009.865173,169.375198 1009.936523,252.535034 
	C1001.312439,253.000000 992.624817,253.000000 983.468628,253.000000 
z"/>
<path fill="#F6F6F6" opacity="1.000000" stroke="none" 
	d="
M910.468628,253.000000 
	C919.825500,247.685898 928.427124,240.970459 935.237305,231.483734 
	C935.237305,238.352112 935.237305,245.220474 935.118652,252.544418 
	C926.979065,253.000000 918.958191,253.000000 910.468628,253.000000 
z"/>
<path fill="#F4F4F4" opacity="1.000000" stroke="none" 
	d="
M692.468628,253.000015 
	C700.659302,248.009048 709.318604,243.018066 717.786438,238.137436 
	C718.696655,242.248444 719.799133,247.228073 720.950806,252.603851 
	C711.645752,253.000000 702.291565,253.000000 692.468628,253.000015 
z"/>
<path fill="#979797" opacity="1.000000" stroke="none" 
	d="
M204.959595,1.836992 
	C173.070862,2.072115 141.244446,2.015437 109.417984,1.997988 
	C73.591095,1.978347 37.764194,1.994068 1.468650,1.997203 
	C2.496079,1.666667 3.991947,1.042864 5.488269,1.041771 
	C71.679710,0.993434 137.871201,1.000000 204.531342,1.000000 
	C205.007294,1.187502 205.014587,1.375004 204.959595,1.836992 
z"/>
<path fill="#979797" opacity="1.000000" stroke="none" 
	d="
M982.531372,1.000000 
	C982.990051,1.197013 982.980042,1.394026 982.903564,1.879353 
	C966.546082,2.112972 950.255188,2.058277 933.497986,2.020556 
	C932.999634,1.865426 932.967651,1.693320 932.967834,1.260607 
	C949.354248,1.000000 965.708435,1.000000 982.531372,1.000000 
z"/>
<path fill="#979797" opacity="1.000000" stroke="none" 
	d="
M442.930847,1.859885 
	C426.573547,2.104938 410.281647,2.068346 393.525269,2.050686 
	C393.025024,1.892807 392.989227,1.715997 392.976746,1.269593 
	C409.354218,1.000000 425.708466,1.000000 442.531342,1.000000 
	C442.998749,1.192747 442.997467,1.385494 442.930847,1.859885 
z"/>
<path fill="#FDFDFD" opacity="1.000000" stroke="none" 
	d="
M934.135742,170.098663 
	C933.442444,180.772644 931.384277,190.600113 926.843262,199.902817 
	C914.970337,224.225845 880.298401,228.719696 862.438477,208.294189 
	C850.474792,194.611908 847.389221,178.167618 847.445312,160.864258 
	C847.486084,148.299866 849.469727,136.017899 855.649170,124.712051 
	C863.381226,110.565636 875.535828,104.250511 891.271912,104.073128 
	C907.035278,103.895424 918.863586,110.819229 926.471558,124.492874 
	C934.302002,138.566330 934.982483,154.012115 934.135742,170.098663 
z"/>
<path fill="#FCFCFC" opacity="1.000000" stroke="none" 
	d="
M688.683960,223.911804 
	C679.509705,223.954758 670.632324,224.802353 662.018738,223.660553 
	C652.239624,222.364258 646.170471,215.603790 644.851318,207.270416 
	C643.001770,195.586548 646.203918,185.917984 655.588501,181.619797 
	C663.741821,177.885513 672.875916,176.170837 681.692871,174.046082 
	C688.783569,172.337311 696.101746,171.584213 703.214966,169.953049 
	C707.341003,169.006897 711.261414,167.163864 716.696167,165.214401 
	C715.586609,177.184387 715.549500,189.005600 713.157349,200.329315 
	C710.518799,212.819260 701.495911,220.469482 688.683960,223.911804 
z"/>
</svg>